{
.appVersion = "1206";
copyright = "Copyright © 2019 by Noir Blanc Rouge. All rights reserved.";
customParameters = (
{
name = panose;
value = (
0,
0,
5,
0,
0,
0,
0,
0,
0,
0
);
},
{
name = unicodeRanges;
value = (
0,
1
);
},
{
name = codePageRanges;
value = (
1252
);
},
{
name = blueScale;
value = 0.037;
},
{
name = glyphOrder;
value = (
.notdef,
A,
Aacute,
Acircumflex,
Adieresis,
Agrave,
Aring,
Atilde,
AE,
B,
C,
Ccedilla,
D,
Eth,
E,
Eacute,
Ecircumflex,
Edieresis,
Egrave,
F,
G,
H,
I,
Iacute,
Icircumflex,
Idieresis,
Igrave,
J,
K,
L,
Lslash,
M,
N,
Ntilde,
O,
Oacute,
Ocircumflex,
Odieresis,
Ograve,
Oslash,
Otilde,
OE,
P,
Thorn,
Q,
R,
S,
Scaron,
T,
U,
Uacute,
Ucircumflex,
Udieresis,
Ugrave,
V,
W,
X,
Y,
Yacute,
Ydieresis,
Z,
Zcaron,
a,
aacute,
acircumflex,
adieresis,
agrave,
aring,
atilde,
ae,
b,
c,
ccedilla,
d,
eth,
e,
eacute,
ecircumflex,
edieresis,
egrave,
f,
g,
h,
i,
dotlessi,
iacute,
icircumflex,
idieresis,
igrave,
j,
k,
l,
lslash,
m,
n,
ntilde,
o,
oacute,
ocircumflex,
odieresis,
ograve,
oslash,
otilde,
oe,
p,
thorn,
q,
r,
s,
scaron,
germandbls,
t,
u,
uacute,
ucircumflex,
udieresis,
ugrave,
v,
w,
x,
y,
yacute,
ydieresis,
z,
zcaron,
fi,
fl,
ordfeminine,
ordmasculine,
Delta,
Omega,
mu,
pi,
zero,
one,
two,
three,
four,
five,
six,
seven,
eight,
nine,
fraction,
onehalf,
onequarter,
threequarters,
onesuperior,
twosuperior,
threesuperior,
asterisk,
backslash,
periodcentered,
bullet,
colon,
comma,
ellipsis,
exclam,
exclamdown,
numbersign,
period,
question,
questiondown,
quotedbl,
quotesingle,
semicolon,
slash,
underscore,
braceleft,
braceright,
bracketleft,
bracketright,
parenleft,
parenright,
emdash,
endash,
hyphen,
softhyphen,
guillemotleft,
guillemotright,
guilsinglleft,
guilsinglright,
quotedblbase,
quotedblleft,
quotedblright,
quoteleft,
quoteright,
quotesinglbase,
space,
cent,
currency,
dollar,
Euro,
florin,
sterling,
yen,
approxequal,
asciitilde,
divide,
equal,
greater,
greaterequal,
infinity,
integral,
less,
lessequal,
logicalnot,
minus,
multiply,
notequal,

glyphs = (
{
glyphname = .notdef;
layers = (
{
hints = (
{
horizontal = 1;
place = "{0, 50}";
type = Stem;
},
{
horizontal = 1;
place = "{650, 50}";
type = Stem;
},
{
place = "{0, 50}";
type = Stem;
},
{
place = "{450, 50}";
type = Stem;
}
);
layerId = "F5467FAD-1970-4982-B3D3-939C01050498";
paths = (
{
closed = 1;
nodes = (
"0 0 LINE",
"500 0 LINE",
"500 700 LINE",
"0 700 LINE"
);
},
{
closed = 1;
nodes = (
"250 395 LINE",
"80 650 LINE",
"420 650 LINE"
);
},
{
closed = 1;
nodes = (
"280 350 LINE",
"450 605 LINE",
"450 95 LINE"
);
},
{
closed = 1;
nodes = (
"80 50 LINE",
"250 305 LINE",
"420 50 LINE"
);
},
{
closed = 1;
nodes = (
"50 605 LINE",
"220 350 LINE",
"50 95 LINE"
);
}
);
width = 500;
}
);
note = .notdef;
},
{
glyphname = A;
layers = (
{
hints = (
{
horizontal = 1;
place = "{219.12, 27}";
type = Stem;
},
{
horizontal = 1;
place = "{675.17, 24.83}";
type = Stem;
},
{
place = "{20, 638}";
type = Stem;
}
);
layerId = "F5467FAD-1970-4982-B3D3-939C01050498";
paths = (
{
closed = 1;
nodes = (
"67 0 LINE",
"155.27 219.12 LINE",
"522.72 219.12 LINE",
"611 0 LINE",
"658 0 LINE",
"374 700 LINE",
"304 700 LINE",
"20 0 LINE"
);
},
{
closed = 1;
nodes = (
"166.15 246.12 LINE",
"339 675.17 LINE",
"511.85 246.12 LINE"
);
}
);
width = 678;
}
);
leftKerningGroup = A;
note = A;
rightKerningGroup = A;
unicode = 0041;
},
{
glyphname = Aacute;
layers = (
{
hints = (
{
horizontal = 1;
place = "{219.12, 27}";
type = Stem;
},
{
horizontal = 1;
place = "{675.17, 24.83}";
type = Stem;
},
{
place = "{20, 638}";
type = Stem;
}
);
layerId = "F5467FAD-1970-4982-B3D3-939C01050498";
paths = (
{
closed = 1;
nodes = (
"278 820 LINE",
"295 815 LINE",
"421 894 LINE",
"398 933 LINE"
);
},
{
closed = 1;
nodes = (
"67 0 LINE",
"155.27 219.12 LINE",
"522.72 219.12 LINE",
"611 0 LINE",
"658 0 LINE",
"374 700 LINE",
"304 700 LINE",
"20 0 LINE"
);
},
{
closed = 1;
nodes = (
"166.15 246.12 LINE",
"339 675.17 LINE",
"511.85 246.12 LINE"
);
}
);
width = 678;
}
);
leftKerningGroup = A;
note = Aacute;
rightKerningGroup = A;
unicode = 00C1;
},
{
glyphname = Acircumflex;
layers = (
{
hints = (
{
horizontal = 1;
place = "{219.12, 27}";
type = Stem;
},
{
horizontal = 1;
place = "{675.17, 24.83}";
type = Stem;
},
{
place = "{20, 638}";
type = Stem;
}
);
layerId = "F5467FAD-1970-4982-B3D3-939C01050498";
paths = (
{
closed = 1;
nodes = (
"227 815 LINE",
"340 920.52 LINE",
"453 815 LINE",
"495 829 LINE",
"341 966 LINE",
"340 965 LINE",
"339 966 LINE",
"185 829 LINE"
);
},
{
closed = 1;
nodes = (
"67 0 LINE",
"155.27 219.12 LINE",
"522.72 219.12 LINE",
"611 0 LINE",
"658 0 LINE",
"374 700 LINE",
"304 700 LINE",
"20 0 LINE"
);
},
{
closed = 1;
nodes = (
"166.15 246.12 LINE",
"339 675.17 LINE",
"511.85 246.12 LINE"
);
}
);
width = 668;
}
);
leftKerningGroup = A;
note = Acircumflex;
rightKerningGroup = A;
unicode = 00C2;
},
{
glyphname = Adieresis;
layers = (
{
hints = (
{
horizontal = 1;
place = "{219.12, 27}";
type = Stem;
},
{
horizontal = 1;
place = "{675.17, 24.83}";
type = Stem;
},
{
horizontal = 1;
place = "{831, 42}";
type = Stem;
},
{
place = "{194, 42}";
type = Stem;
},
{
place = "{442, 42}";
type = Stem;
}
);
layerId = "F5467FAD-1970-4982-B3D3-939C01050498";
paths = (
{
closed = 1;
nodes = (
"236 873 LINE",
"194 873 LINE",
"194 831 LINE",
"236 831 LINE"
);
},
{
closed = 1;
nodes = (
"484 873 LINE",
"442 873 LINE",
"442 831 LINE",
"484 831 LINE"
);
},
{
closed = 1;
nodes = (
"67 0 LINE",
"155.27 219.12 LINE",
"522.72 219.12 LINE",
"611 0 LINE",
"658 0 LINE",
"374 700 LINE",
"304 700 LINE",
"20 0 LINE"
);
},
{
closed = 1;
nodes = (
"166.15 246.12 LINE",
"339 675.17 LINE",
"511.85 246.12 LINE"
);
}
);
width = 678;
}
);
leftKerningGroup = A;
note = Adieresis;
rightKerningGroup = A;
unicode = 00C4;
},
{
glyphname = Agrave;
layers = (
{
hints = (
{
horizontal = 1;
place = "{219.12, 27}";
type = Stem;
},
{
horizontal = 1;
place = "{675.17, 24.83}";
type = Stem;
},
{
place = "{20, 638}";
type = Stem;
}
);
layerId = "F5467FAD-1970-4982-B3D3-939C01050498";
paths = (
{
closed = 1;
nodes = (
"396 820 LINE",
"276 933 LINE",
"253 894 LINE",
"379 815 LINE"
);
},
{
closed = 1;
nodes = (
"67 0 LINE",
"155.27 219.12 LINE",
"522.72 219.12 LINE",
"611 0 LINE",
"658 0 LINE",
"374 700 LINE",
"304 700 LINE",
"20 0 LINE"
);
},
{
closed = 1;
nodes = (
"166.15 246.12 LINE",
"339 675.17 LINE",
"511.85 246.12 LINE"
);
}
);
width = 678;
}
);
leftKerningGroup = A;
note = Agrave;
rightKerningGroup = A;
unicode = 00C0;
},
{
glyphname = Aring;
layers = (
{
hints = (
{
horizontal = 1;
place = "{219.12, 27}";
type = Stem;
},
{
horizontal = 1;
place = "{675.17, 24.83}";
type = Stem;
},
{
horizontal = 1;
place = "{785, 28}";
type = Stem;
},
{
horizontal = 1;
place = "{993, 28}";
type = Stem;
},
{
place = "{221, 28}";
type = Stem;
},
{
place = "{429, 28}";
type = Stem;
}
);
layerId = "F5467FAD-1970-4982-B3D3-939C01050498";
paths = (
{
closed = 1;
nodes = (
"403 785 OFFCURVE",
"457 839 OFFCURVE",
"457 903 CURVE SMOOTH",
"457 967 OFFCURVE",
"403 1021 OFFCURVE",
"339 1021 CURVE SMOOTH",
"275 1021 OFFCURVE",
"221 967 OFFCURVE",
"221 903 CURVE SMOOTH",
"221 839 OFFCURVE",
"275 785 OFFCURVE",
"339 785 CURVE SMOOTH"
);
},
{
closed = 1;
nodes = (
"289 813 OFFCURVE",
"249 853 OFFCURVE",
"249 903 CURVE SMOOTH",
"249 953 OFFCURVE",
"289 993 OFFCURVE",
"339 993 CURVE SMOOTH",
"389 993 OFFCURVE",
"429 953 OFFCURVE",
"429 903 CURVE SMOOTH",
"429 853 OFFCURVE",
"389 813 OFFCURVE",
"339 813 CURVE SMOOTH"
);
},
{
closed = 1;
nodes = (
"67 0 LINE",
"155.27 219.12 LINE",
"522.72 219.12 LINE",
"611 0 LINE",
"658 0 LINE",
"374 700 LINE",
"304 700 LINE",
"20 0 LINE"
);
},
{
closed = 1;
nodes = (
"166.15 246.12 LINE",
"339 675.17 LINE",
"511.85 246.12 LINE"
);
}
);
width = 678;
}
);
leftKerningGroup = A;
note = Aring;
rightKerningGroup = A;
unicode = 00C5;
},
{
glyphname = Atilde;
layers = (
{
hints = (
{
horizontal = 1;
place = "{219.12, 27}";
type = Stem;
},
{
horizontal = 1;
place = "{675.17, 24.83}";
type = Stem;
},
{
horizontal = 1;
place = "{822, 19}";
type = Stem;
},
{
horizontal = 1;
place = "{931, 19}";
type = Stem;
},
{
place = "{165.02, 30.81}";
type = Stem;
},
{
place = "{452.16, 30.81}";
type = Stem;
}
);
layerId = "F5467FAD-1970-4982-B3D3-939C01050498";
paths = (
{
closed = 1;
nodes = (
"410 950 LINE",
"435.58 921.22 OFFCURVE",
"452.16 884.67 OFFCURVE",
"452.16 862.06 CURVE SMOOTH",
"452.16 849.31 OFFCURVE",
"446.89 841 OFFCURVE",
"435 841 CURVE SMOOTH",
"412 841 OFFCURVE",
"385 866 OFFCURVE",
"326 907 CURVE SMOOTH",
"289 932 OFFCURVE",
"260 950 OFFCURVE",
"224 950 CURVE SMOOTH",
"188.32 950 OFFCURVE",
"165.02 922.78 OFFCURVE",
"165.02 890.2 CURVE SMOOTH",
"165.02 867.98 OFFCURVE",
"175.86 843.27 OFFCURVE",
"201 823 CURVE",
"238 822 LINE",
"212.42 850.78 OFFCURVE",
"195.83 887.33 OFFCURVE",
"195.83 909.94 CURVE SMOOTH",
"195.83 922.68 OFFCURVE",
"201.1 931 OFFCURVE",
"213 931 CURVE SMOOTH",
"236 931 OFFCURVE",
"263 906 OFFCURVE",
"322 865 CURVE SMOOTH",
"359 840 OFFCURVE",
"388 822 OFFCURVE",
"424 822 CURVE SMOOTH",
"459.67 822 OFFCURVE",
"482.97 849.22 OFFCURVE",
"482.97 881.8 CURVE SMOOTH",
"482.97 904.02 OFFCURVE",
"472.14 928.73 OFFCURVE",
"447 949 CURVE"
);
},
{
closed = 1;
nodes = (
"67 0 LINE",
"155.27 219.12 LINE",
"522.72 219.12 LINE",
"611 0 LINE",
"658 0 LINE",
"374 700 LINE",
"304 700 LINE",
"20 0 LINE"
);
},
{
closed = 1;
nodes = (
"166.15 246.12 LINE",
"339 675.17 LINE",
"511.85 246.12 LINE"
);
}
);
width = 678;
}
);
leftKerningGroup = A;
note = Atilde;
rightKerningGroup = A;
unicode = 00C3;
},
{
glyphname = AE;
layers = (
{
hints = (
{
horizontal = 1;
place = "{0, 30}";
type = Stem;
},
{
horizontal = 1;
place = "{258, 27}";
type = Stem;
},
{
horizontal = 1;
place = "{338, 32}";
type = Stem;
},
{
horizontal = 1;
place = "{669, 31}";
type = Stem;
},
{
place = "{496, 42}";
type = Stem;
}
);
layerId = "F5467FAD-1970-4982-B3D3-939C01050498";
paths = (
{
closed = 1;
nodes = (
"1023 0 LINE",
"1023 30 LINE",
"538 30 LINE",
"538 338 LINE",
"1001 338 LINE",
"1001 370 LINE",
"538 370 LINE",
"538 669 LINE",
"1012 669 LINE",
"1012 700 LINE",
"462 700 LINE",
"64 0 LINE",
"117 0 LINE",
"262.58 258 LINE",
"496 258 LINE",
"496 0 LINE"
);
},
{
closed = 1;
nodes = (
"496 671.64 LINE",
"496 285 LINE",
"277.82 285 LINE"
);
}
);
width = 1070;
}
);
note = AE;
rightKerningGroup = AE;
unicode = 00C6;
},
{
glyphname = B;
layers = (
{
hints = (
{
horizontal = 1;
place = "{0, 31}";
type = Stem;
},
{
horizontal = 1;
place = "{390.99, 21}";
type = Stem;
},
{
horizontal = 1;
place = "{668.99, 31}";
type = Stem;
},
{
place = "{55.99, 43}";
type = Stem;
},
{
place = "{381.99, 42}";
type = Stem;
},
{
place = "{507.99, 44}";
type = Stem;
}
);
layerId = "F5467FAD-1970-4982-B3D3-939C01050498";
paths = (
{
closed = 1;
nodes = (
"377.31 428.76 OFFCURVE",
"423.99 469.91 OFFCURVE",
"423.99 552.99 CURVE SMOOTH",
"423.99 664.99 OFFCURVE",
"338.99 699.99 OFFCURVE",
"229.99 699.99 CURVE SMOOTH",
"55.99 699.99 LINE",
"55.99 -0.01 LINE",
"292.99 -0.01 LINE SMOOTH",
"446.99 -0.01 OFFCURVE",
"551.99 65.99 OFFCURVE",
"551.99 207.99 CURVE SMOOTH",
"551.99 341.98 OFFCURVE",
"464.32 408.09 OFFCURVE",
"310.04 411.82 CURVE"
);
},
{
closed = 1;
nodes = (
"98.99 411.99 LINE",
"98.99 668.99 LINE",
"229.99 668.99 LINE SMOOTH",
"325.99 668.99 OFFCURVE",
"381.99 617.99 OFFCURVE",
"381.99 541.99 CURVE SMOOTH",
"381.99 466.99 OFFCURVE",
"327.99 411.99 OFFCURVE",
"225.99 411.99 CURVE SMOOTH"
);
},
{
closed = 1;
nodes = (
"98.99 30.99 LINE",
"98.99 390.99 LINE",
"287.99 390.99 LINE SMOOTH",
"411.99 390.99 OFFCURVE",
"507.99 334.99 OFFCURVE",
"507.99 207.99 CURVE SMOOTH",
"507.99 84.99 OFFCURVE",
"415.99 30.99 OFFCURVE",
"282.99 30.99 CURVE SMOOTH"
);
}
);
width = 599;
}
);
leftKerningGroup = B;
note = B;
rightKerningGroup = B;
unicode = 0042;
},
{
glyphname = C;
layers = (
{
hints = (
{
horizontal = 1;
place = "{-5, 31}";
type = Stem;
},
{
horizontal = 1;
place = "{674, 31}";
type = Stem;
},
{
place = "{34, 54}";
type = Stem;
}
);
layerId = "F5467FAD-1970-4982-B3D3-939C01050498";
paths = (
{
closed = 1;
nodes = (
"172 705 OFFCURVE",
"34 546 OFFCURVE",
"34 348 CURVE SMOOTH",
"34 152 OFFCURVE",
"173 -5 OFFCURVE",
"383 -5 CURVE SMOOTH",
"497 -5 OFFCURVE",
"587 36 OFFCURVE",
"648 107 CURVE",
"606 127 LINE",
"552 64 OFFCURVE",
"468 26 OFFCURVE",
"383 26 CURVE SMOOTH",
"210 26 OFFCURVE",
"88 164 OFFCURVE",
"88 348 CURVE SMOOTH",
"88 533 OFFCURVE",
"211 674 OFFCURVE",
"383 674 CURVE SMOOTH",
"470 674 OFFCURVE",
"556 634 OFFCURVE",
"610 567 CURVE",
"651 588 LINE",
"590 662 OFFCURVE",
"498 705 OFFCURVE",
"383 705 CURVE SMOOTH"
);
}
);
width = 693;
}
);
leftKerningGroup = C;
note = C;
rightKerningGroup = C;
unicode = 0043;
},
{
glyphname = Ccedilla;
layers = (
{
hints = (
{
horizontal = 1;
place = "{-218, 24}";
type = Stem;
},
{
horizontal = 1;
place = "{-83, 17}";
type = Stem;
},
{
horizontal = 1;
place = "{-5, 31}";
type = Stem;
},
{
horizontal = 1;
place = "{674, 31}";
type = Stem;
},
{
place = "{34, 54}";
type = Stem;
},
{
place = "{410.1, 29.64}";
type = Stem;
},
{
horizontal = 1;
place = "{-100, 22.43}";
type = Stem;
}
);
layerId = "F5467FAD-1970-4982-B3D3-939C01050498";
paths = (
{
closed = 1;
nodes = (
"172 705 OFFCURVE",
"34 546 OFFCURVE",
"34 348 CURVE SMOOTH",
"34 152 OFFCURVE",
"173 -5 OFFCURVE",
"383 -5 CURVE SMOOTH",
"497 -5 OFFCURVE",
"587 36 OFFCURVE",
"648 107 CURVE",
"606 127 LINE",
"552 64 OFFCURVE",
"468 26 OFFCURVE",
"383 26 CURVE SMOOTH",
"210 26 OFFCURVE",
"88 164 OFFCURVE",
"88 348 CURVE SMOOTH",
"88 533 OFFCURVE",
"211 674 OFFCURVE",
"383 674 CURVE SMOOTH",
"470 674 OFFCURVE",
"556 634 OFFCURVE",
"610 567 CURVE",
"651 588 LINE",
"590 662 OFFCURVE",
"498 705 OFFCURVE",
"383 705 CURVE SMOOTH"
);
},
{
closed = 1;
nodes = (
"358.18 -66 OFFCURVE",
"343.88 -70.84 OFFCURVE",
"331.04 -77.57 CURVE",
"350.99 -33 LINE",
"322.99 -33 LINE",
"292.99 -100 LINE",
"320.99 -100 LINE",
"321.54 -98.77 LINE",
"332.56 -90.29 OFFCURVE",
"348.91 -83 OFFCURVE",
"367.99 -83 CURVE SMOOTH",
"392.49 -83 OFFCURVE",
"410.1 -101.38 OFFCURVE",
"410.1 -125.4 CURVE SMOOTH",
"410.1 -168.94 OFFCURVE",
"361.23 -194 OFFCURVE",
"322.99 -194 CURVE SMOOTH",
"306.99 -194 OFFCURVE",
"282.99 -189 OFFCURVE",
"265.99 -183 CURVE",
"265.99 -211 LINE",
"277.99 -214 OFFCURVE",
"298.99 -218 OFFCURVE",
"316.99 -218 CURVE SMOOTH",
"367.99 -218 OFFCURVE",
"425.99 -195 OFFCURVE",
"437.99 -139 CURVE SMOOTH",
"439.15 -133.81 OFFCURVE",
"439.74 -128.59 OFFCURVE",
"439.74 -123.47 CURVE SMOOTH",
"439.74 -93.1 OFFCURVE",
"418.91 -66 OFFCURVE",
"371 -66 CURVE SMOOTH"
);
}
);
width = 693;
}
);
leftKerningGroup = C;
note = Ccedilla;
rightKerningGroup = C;
unicode = 00C7;
},
{
glyphname = D;
layers = (
{
hints = (
{
horizontal = 1;
place = "{0, 41}";
type = Stem;
},
{
horizontal = 1;
place = "{659, 41}";
type = Stem;
},
{
place = "{56, 42}";
type = Stem;
},
{
place = "{553, 48}";
type = Stem;
}
);
layerId = "F5467FAD-1970-4982-B3D3-939C01050498";
paths = (
{
closed = 1;
nodes = (
"56 700 LINE",
"56 0 LINE",
"235 0 LINE SMOOTH",
"444 0 OFFCURVE",
"601 104 OFFCURVE",
"601 351 CURVE SMOOTH",
"601 602 OFFCURVE",
"423 700 OFFCURVE",
"217 700 CURVE SMOOTH"
);
},
{
closed = 1;
nodes = (
"98 41 LINE",
"98 658.06 LINE",
"217 659 LINE SMOOTH",
"401 659 OFFCURVE",
"553 585 OFFCURVE",
"553 351 CURVE SMOOTH",
"553 125 OFFCURVE",
"425 41 OFFCURVE",
"235 41 CURVE SMOOTH"
);
}
);
width = 636;
}
);
leftKerningGroup = B;
note = D;
rightKerningGroup = D;
unicode = 0044;
},
{
glyphname = Eth;
layers = (
{
hints = (
{
horizontal = 1;
place = "{0, 41}";
type = Stem;
},
{
horizontal = 1;
place = "{291, 34}";
type = Stem;
},
{
horizontal = 1;
place = "{659, 41}";
type = Stem;
},
{
place = "{166, 42}";
type = Stem;
},
{
place = "{663, 48}";
type = Stem;
}
);
layerId = "F5467FAD-1970-4982-B3D3-939C01050498";
paths = (
{
closed = 1;
nodes = (
"166 700 LINE",
"166 325 LINE",
"48 325 LINE",
"48 291 LINE",
"166 291 LINE",
"166 0 LINE",
"345 0 LINE SMOOTH",
"554 0 OFFCURVE",
"711 104 OFFCURVE",
"711 351 CURVE SMOOTH",
"711 602 OFFCURVE",
"533 700 OFFCURVE",
"327 700 CURVE SMOOTH"
);
},
{
closed = 1;
nodes = (
"208 41 LINE",
"208 291 LINE",
"437 291 LINE",
"437 325 LINE",
"208 325 LINE",
"208 658.06 LINE",
"327 659 LINE SMOOTH",
"511 659 OFFCURVE",
"663 585 OFFCURVE",
"663 351 CURVE SMOOTH",
"663 125 OFFCURVE",
"535 41 OFFCURVE",
"345 41 CURVE SMOOTH"
);
}
);
width = 777;
}
);
leftKerningGroup = Eth;
note = Eth;
rightKerningGroup = D;
unicode = 00D0;
},
{
glyphname = E;
layers = (
{
hints = (
{
horizontal = 1;
place = "{0, 30}";
type = Stem;
},
{
horizontal = 1;
place = "{338, 32}";
type = Stem;
},
{
horizontal = 1;
place = "{669, 31}";
type = Stem;
},
{
place = "{59, 42}";
type = Stem;
}
);
layerId = "F5467FAD-1970-4982-B3D3-939C01050498";
paths = (
{
closed = 1;
nodes = (
"59 0 LINE",
"586 0 LINE",
"586 30 LINE",
"101 30 LINE",
"101 338 LINE",
"564 338 LINE",
"564 370 LINE",
"101 370 LINE",
"101 669 LINE",
"575 669 LINE",
"575 700 LINE",
"59 700 LINE"
);
}
);
width = 633;
}
);
leftKerningGroup = B;
note = E;
rightKerningGroup = AE;
unicode = 0045;
},
{
glyphname = Eacute;
layers = (
{
hints = (
{
horizontal = 1;
place = "{0, 30}";
type = Stem;
},
{
horizontal = 1;
place = "{338, 32}";
type = Stem;
},
{
horizontal = 1;
place = "{669, 31}";
type = Stem;
},
{
place = "{59, 42}";
type = Stem;
}
);
layerId = "F5467FAD-1970-4982-B3D3-939C01050498";
paths = (
{
closed = 1;
nodes = (
"265 820 LINE",
"282 815 LINE",
"408 894 LINE",
"385 933 LINE"
);
},
{
closed = 1;
nodes = (
"59 0 LINE",
"586 0 LINE",
"586 30 LINE",
"101 30 LINE",
"101 338 LINE",
"564 338 LINE",
"564 370 LINE",
"101 370 LINE",
"101 669 LINE",
"575 669 LINE",
"575 700 LINE",
"59 700 LINE"
);
}
);
width = 633;
}
);
note = Eacute;
rightKerningGroup = AE;
unicode = 00C9;
},
{
glyphname = Ecircumflex;
layers = (
{
hints = (
{
horizontal = 1;
place = "{0, 30}";
type = Stem;
},
{
horizontal = 1;
place = "{338, 32}";
type = Stem;
},
{
horizontal = 1;
place = "{669, 31}";
type = Stem;
},
{
place = "{59, 42}";
type = Stem;
}
);
layerId = "F5467FAD-1970-4982-B3D3-939C01050498";
paths = (
{
closed = 1;
nodes = (
"214 815 LINE",
"327 920.52 LINE",
"440 815 LINE",
"482 829 LINE",
"328 966 LINE",
"327 965 LINE",
"326 966 LINE",
"172 829 LINE"
);
},
{
closed = 1;
nodes = (
"59 0 LINE",
"586 0 LINE",
"586 30 LINE",
"101 30 LINE",
"101 338 LINE",
"564 338 LINE",
"564 370 LINE",
"101 370 LINE",
"101 669 LINE",
"575 669 LINE",
"575 700 LINE",
"59 700 LINE"
);
}
);
width = 633;
}
);
note = Ecircumflex;
rightKerningGroup = AE;
unicode = 00CA;
},
{
glyphname = Edieresis;
layers = (
{
hints = (
{
horizontal = 1;
place = "{0, 30}";
type = Stem;
},
{
horizontal = 1;
place = "{338, 32}";
type = Stem;
},
{
horizontal = 1;
place = "{669, 31}";
type = Stem;
},
{
horizontal = 1;
place = "{831, 42}";
type = Stem;
},
{
place = "{59, 42}";
type = Stem;
},
{
place = "{181, 42}";
type = Stem;
},
{
place = "{429, 42}";
type = Stem;
}
);
layerId = "F5467FAD-1970-4982-B3D3-939C01050498";
paths = (
{
closed = 1;
nodes = (
"223 873 LINE",
"181 873 LINE",
"181 831 LINE",
"223 831 LINE"
);
},
{
closed = 1;
nodes = (
"471 873 LINE",
"429 873 LINE",
"429 831 LINE",
"471 831 LINE"
);
},
{
closed = 1;
nodes = (
"59 0 LINE",
"586 0 LINE",
"586 30 LINE",
"101 30 LINE",
"101 338 LINE",
"564 338 LINE",
"564 370 LINE",
"101 370 LINE",
"101 669 LINE",
"575 669 LINE",
"575 700 LINE",
"59 700 LINE"
);
}
);
width = 633;
}
);
note = Edieresis;
rightKerningGroup = AE;
unicode = 00CB;
},
{
glyphname = Egrave;
layers = (
{
hints = (
{
horizontal = 1;
place = "{0, 30}";
type = Stem;
},
{
horizontal = 1;
place = "{338, 32}";
type = Stem;
},
{
horizontal = 1;
place = "{669, 31}";
type = Stem;
},
{
place = "{59, 42}";
type = Stem;
}
);
layerId = "F5467FAD-1970-4982-B3D3-939C01050498";
paths = (
{
closed = 1;
nodes = (
"383 820 LINE",
"263 933 LINE",
"240 894 LINE",
"366 815 LINE"
);
},
{
closed = 1;
nodes = (
"59 0 LINE",
"586 0 LINE",
"586 30 LINE",
"101 30 LINE",
"101 338 LINE",
"564 338 LINE",
"564 370 LINE",
"101 370 LINE",
"101 669 LINE",
"575 669 LINE",
"575 700 LINE",
"59 700 LINE"
);
}
);
width = 633;
}
);
note = Egrave;
rightKerningGroup = AE;
unicode = 00C8;
},
{
glyphname = F;
layers = (
{
hints = (
{
horizontal = 1;
place = "{338, 32}";
type = Stem;
},
{
horizontal = 1;
place = "{669, 31}";
type = Stem;
},
{
place = "{59, 42}";
type = Stem;
}
);
layerId = "F5467FAD-1970-4982-B3D3-939C01050498";
paths = (
{
closed = 1;
nodes = (
"564 370 LINE",
"101 370 LINE",
"101 669 LINE",
"575 669 LINE",
"575 700 LINE",
"59 700 LINE",
"59 0 LINE",
"101 0 LINE",
"101 338 LINE",
"564 338 LINE"
);
}
);
width = 610;
}
);
leftKerningGroup = B;
note = F;
rightKerningGroup = F;
unicode = 0046;
},
{
glyphname = G;
layers = (
{
hints = (
{
horizontal = 1;
place = "{-5.03, 31.03}";
type = Stem;
},
{
horizontal = 1;
place = "{339, 31}";
type = Stem;
},
{
horizontal = 1;
place = "{674, 31}";
type = Stem;
},
{
place = "{32, 54}";
type = Stem;
},
{
place = "{661, 31}";
type = Stem;
}
);
layerId = "F5467FAD-1970-4982-B3D3-939C01050498";
paths = (
{
closed = 1;
nodes = (
"661 0 LINE",
"692 0 LINE",
"692 370 LINE",
"407 370 LINE",
"407 339 LINE",
"650 339 LINE",
"650 296 LINE SMOOTH",
"650 190 OFFCURVE",
"578 26 OFFCURVE",
"383 26 CURVE SMOOTH",
"212 26 OFFCURVE",
"86 166 OFFCURVE",
"86 348 CURVE SMOOTH",
"86 534 OFFCURVE",
"213 674 OFFCURVE",
"384 674 CURVE SMOOTH",
"472 674 OFFCURVE",
"554 634 OFFCURVE",
"608 567 CURVE",
"649 588 LINE",
"588 662 OFFCURVE",
"499 705 OFFCURVE",
"384 705 CURVE SMOOTH",
"173 705 OFFCURVE",
"32 546 OFFCURVE",
"32 348 CURVE SMOOTH",
"32 148.51 OFFCURVE",
"175.12 -5.03 OFFCURVE",
"383.33 -5.03 CURVE SMOOTH",
"549.52 -5.03 OFFCURVE",
"641.14 97.66 OFFCURVE",
"661 247.9 CURVE"
);
}
);
width = 737;
}
);
leftKerningGroup = C;
note = G;
rightKerningGroup = G;
unicode = 0047;
},
{
glyphname = H;
layers = (
{
hints = (
{
horizontal = 1;
place = "{348, 42}";
type = Stem;
},
{
place = "{56, 42}";
type = Stem;
},
{
place = "{603, 42}";
type = Stem;
}
);
layerId = "F5467FAD-1970-4982-B3D3-939C01050498";
paths = (
{
closed = 1;
nodes = (
"603 0 LINE",
"645 0 LINE",
"645 700 LINE",
"603 700 LINE",
"603 390 LINE",
"98 390 LINE",
"98 700 LINE",
"56 700 LINE",
"56 0 LINE",
"98 0 LINE",
"98 348 LINE",
"603 348 LINE"
);
}
);
width = 701;
}
);
leftKerningGroup = B;
note = H;
rightKerningGroup = H;
unicode = 0048;
},
{
glyphname = I;
layers = (
{
hints = (
{
horizontal = 1;
place = "{0, 700}";
type = Stem;
},
{
place = "{83, 42}";
type = Stem;
}
);
layerId = "F5467FAD-1970-4982-B3D3-939C01050498";
paths = (
{
closed = 1;
nodes = (
"125 700 LINE",
"83 700 LINE",
"83 0 LINE",
"125 0 LINE"
);
}
);
width = 208;
}
);
leftKerningGroup = I;
note = I;
rightKerningGroup = I;
unicode = 0049;
},
{
glyphname = Iacute;
layers = (
{
hints = (
{
horizontal = 1;
place = "{0, 933}";
type = Stem;
},
{
place = "{83, 42}";
type = Stem;
}
);
layerId = "F5467FAD-1970-4982-B3D3-939C01050498";
paths = (
{
closed = 1;
nodes = (
"44 820 LINE",
"61 815 LINE",
"187 894 LINE",
"164 933 LINE"
);
},
{
closed = 1;
nodes = (
"125 700 LINE",
"83 700 LINE",
"83 0 LINE",
"125 0 LINE"
);
}
);
width = 208;
}
);
leftKerningGroup = I;
note = Iacute;
rightKerningGroup = I;
unicode = 00CD;
},
{
glyphname = Icircumflex;
layers = (
{
hints = (
{
horizontal = 1;
place = "{0, 966}";
type = Stem;
},
{
place = "{83, 42}";
type = Stem;
}
);
layerId = "F5467FAD-1970-4982-B3D3-939C01050498";
paths = (
{
closed = 1;
nodes = (
"-7 815 LINE",
"106 920.52 LINE",
"219 815 LINE",
"261 829 LINE",
"107 966 LINE",
"106 965 LINE",
"105 966 LINE",
"-49 829 LINE"
);
},
{
closed = 1;
nodes = (
"125 700 LINE",
"83 700 LINE",
"83 0 LINE",
"125 0 LINE"
);
}
);
width = 208;
}
);
leftKerningGroup = I;
note = Icircumflex;
rightKerningGroup = I;
unicode = 00CE;
},
{
glyphname = Idieresis;
layers = (
{
hints = (
{
horizontal = 1;
place = "{831, 42}";
type = Stem;
},
{
place = "{-40, 42}";
type = Stem;
},
{
place = "{83, 42}";
type = Stem;
},
{
place = "{208, 42}";
type = Stem;
}
);
layerId = "F5467FAD-1970-4982-B3D3-939C01050498";
paths = (
{
closed = 1;
nodes = (
"2 873 LINE",
"-40 873 LINE",
"-40 831 LINE",
"2 831 LINE"
);
},
{
closed = 1;
nodes = (
"250 873 LINE",
"208 873 LINE",
"208 831 LINE",
"250 831 LINE"
);
},
{
closed = 1;
nodes = (
"125 700 LINE",
"83 700 LINE",
"83 0 LINE",
"125 0 LINE"
);
}
);
width = 208;
}
);
leftKerningGroup = I;
note = Idieresis;
rightKerningGroup = I;
unicode = 00CF;
},
{
glyphname = Igrave;
layers = (
{
hints = (
{
horizontal = 1;
place = "{0, 933}";
type = Stem;
},
{
place = "{83, 42}";
type = Stem;
}
);
layerId = "F5467FAD-1970-4982-B3D3-939C01050498";
paths = (
{
closed = 1;
nodes = (
"162 820 LINE",
"42 933 LINE",
"19 894 LINE",
"145 815 LINE"
);
},
{
closed = 1;
nodes = (
"125 700 LINE",
"83 700 LINE",
"83 0 LINE",
"125 0 LINE"
);
}
);
width = 208;
}
);
leftKerningGroup = I;
note = Igrave;
rightKerningGroup = I;
unicode = 00CC;
},
{
glyphname = J;
layers = (
{
hints = (
{
horizontal = 1;
place = "{-12, 27}";
type = Stem;
},
{
place = "{444, 44}";
type = Stem;
}
);
layerId = "F5467FAD-1970-4982-B3D3-939C01050498";
paths = (
{
closed = 1;
nodes = (
"487 700 LINE",
"444 700 LINE",
"444 195 LINE SMOOTH",
"444 75 OFFCURVE",
"348 15 OFFCURVE",
"250 15 CURVE SMOOTH",
"157 15 OFFCURVE",
"110 56 OFFCURVE",
"85 99 CURVE",
"50 76 LINE",
"84 24 OFFCURVE",
"146 -12 OFFCURVE",
"250 -12 CURVE SMOOTH",
"376 -12 OFFCURVE",
"488 59 OFFCURVE",
"488 195 CURVE"
);
}
);
width = 551;
}
);
leftKerningGroup = J;
note = J;
rightKerningGroup = J;
unicode = 004A;
},
{
glyphname = K;
layers = (
{
hints = (
{
horizontal = 1;
place = "{0, 700}";
type = Stem;
},
{
place = "{56, 43}";
type = Stem;
}
);
layerId = "F5467FAD-1970-4982-B3D3-939C01050498";
paths = (
{
closed = 1;
nodes = (
"99 0 LINE",
"99 259.48 LINE",
"235.26 408.8 LINE",
"502 0 LINE",
"552 0 LINE",
"265 441.38 LINE",
"501 700 LINE",
"455 700 LINE",
"99 310.62 LINE",
"99 700 LINE",
"56 700 LINE",
"56 0 LINE"
);
}
);
width = 587;
}
);
leftKerningGroup = B;
note = K;
rightKerningGroup = K;
unicode = 004B;
},
{
glyphname = L;
layers = (
{
hints = (
{
horizontal = 1;
place = "{0, 30}";
type = Stem;
},
{
place = "{56, 42}";
type = Stem;
}
);
layerId = "F5467FAD-1970-4982-B3D3-939C01050498";
paths = (
{
closed = 1;
nodes = (
"56 0 LINE",
"535 0 LINE",
"535 30 LINE",
"98 30 LINE",
"98 700 LINE",
"56 700 LINE"
);
}
);
width = 577;
}
);
leftKerningGroup = B;
note = L;
rightKerningGroup = L;
unicode = 004C;
},
{
glyphname = Lslash;
layers = (
{
hints = (
{
horizontal = 1;
place = "{0, 30}";
type = Stem;
},
{
place = "{171, 42}";
type = Stem;
}
);
layerId = "F5467FAD-1970-4982-B3D3-939C01050498";
paths = (
{
closed = 1;
nodes = (
"650 0 LINE",
"650 30 LINE",
"213 30 LINE",
"213 391.5 LINE",
"344 429 LINE",
"344 465 LINE",
"213 427.5 LINE",
"213 700 LINE",
"171 700 LINE",
"171 415.48 LINE",
"54 382 LINE",
"54 346 LINE",
"171 379.48 LINE",
"171 0 LINE"
);
}
);
width = 697;
}
);
note = Lslash;
unicode = 0141;
},
{
glyphname = M;
layers = (
{
hints = (
{
horizontal = 1;
place = "{0, 41.72}";
type = Stem;
},
{
place = "{56, 42}";
type = Stem;
},
{
place = "{695, 42}";
type = Stem;
}
);
layerId = "F5467FAD-1970-4982-B3D3-939C01050498";
paths = (
{
closed = 1;
nodes = (
"695 0 LINE",
"737 0 LINE",
"737 700 LINE",
"680 700 LINE",
"396.94 41.72 LINE",
"112 700 LINE",
"56 700 LINE",
"56 0 LINE",
"98 0 LINE",
"98 616.91 LINE",
"371 0 LINE",
"423 0 LINE",
"695 616.65 LINE"
);
}
);
width = 793;
}
);
leftKerningGroup = B;
note = M;
rightKerningGroup = H;
unicode = 004D;
},
{
glyphname = N;
layers = (
{
hints = (
{
horizontal = 1;
place = "{0, 700}";
type = Stem;
},
{
place = "{56, 43}";
type = Stem;
},
{
place = "{500, 43}";
type = Stem;
}
);
layerId = "F5467FAD-1970-4982-B3D3-939C01050498";
paths = (
{
closed = 1;
nodes = (
"498 0 LINE",
"543 0 LINE",
"543 700 LINE",
"500 700 LINE",
"500 69.84 LINE",
"100 700 LINE",
"99 699.68 LINE",
"99 700 LINE",
"56 700 LINE",
"56 0 LINE",
"99 0 LINE",
"99 624.4 LINE"
);
}
);
width = 599;
}
);
leftKerningGroup = B;
note = N;
rightKerningGroup = H;
unicode = 004E;
},
{
glyphname = Ntilde;
layers = (
{
hints = (
{
horizontal = 1;
place = "{822, 19}";
type = Stem;
},
{
horizontal = 1;
place = "{931, 19}";
type = Stem;
},
{
place = "{56, 43}";
type = Stem;
},
{
place = "{136.02, 30.81}";
type = Stem;
},
{
place = "{423.16, 30.81}";
type = Stem;
},
{
place = "{500, 43}";
type = Stem;
}
);
layerId = "F5467FAD-1970-4982-B3D3-939C01050498";
paths = (
{
closed = 1;
nodes = (
"381 950 LINE",
"406.58 921.22 OFFCURVE",
"423.16 884.67 OFFCURVE",
"423.16 862.06 CURVE SMOOTH",
"423.16 849.31 OFFCURVE",
"417.89 841 OFFCURVE",
"406 841 CURVE SMOOTH",
"383 841 OFFCURVE",
"356 866 OFFCURVE",
"297 907 CURVE SMOOTH",
"260 932 OFFCURVE",
"231 950 OFFCURVE",
"195 950 CURVE SMOOTH",
"159.32 950 OFFCURVE",
"136.02 922.78 OFFCURVE",
"136.02 890.2 CURVE SMOOTH",
"136.02 867.98 OFFCURVE",
"146.86 843.27 OFFCURVE",
"172 823 CURVE",
"209 822 LINE",
"183.42 850.78 OFFCURVE",
"166.83 887.33 OFFCURVE",
"166.83 909.94 CURVE SMOOTH",
"166.83 922.68 OFFCURVE",
"172.1 931 OFFCURVE",
"184 931 CURVE SMOOTH",
"207 931 OFFCURVE",
"234 906 OFFCURVE",
"293 865 CURVE SMOOTH",
"330 840 OFFCURVE",
"359 822 OFFCURVE",
"395 822 CURVE SMOOTH",
"430.67 822 OFFCURVE",
"453.97 849.22 OFFCURVE",
"453.97 881.8 CURVE SMOOTH",
"453.97 904.02 OFFCURVE",
"443.14 928.73 OFFCURVE",
"418 949 CURVE"
);
},
{
closed = 1;
nodes = (
"498 0 LINE",
"543 0 LINE",
"543 700 LINE",
"500 700 LINE",
"500 69.84 LINE",
"100 700 LINE",
"99 699.68 LINE",
"99 700 LINE",
"56 700 LINE",
"56 0 LINE",
"99 0 LINE",
"99 624.4 LINE"
);
}
);
width = 599;
}
);
leftKerningGroup = B;
note = Ntilde;
unicode = 00D1;
},
{
glyphname = O;
layers = (
{
hints = (
{
horizontal = 1;
place = "{-5, 31}";
type = Stem;
},
{
horizontal = 1;
place = "{674, 31}";
type = Stem;
},
{
place = "{30, 43}";
type = Stem;
},
{
place = "{685, 43}";
type = Stem;
}
);
layerId = "F5467FAD-1970-4982-B3D3-939C01050498";
paths = (
{
closed = 1;
nodes = (
"590 -5 OFFCURVE",
"728 151 OFFCURVE",
"728 348 CURVE SMOOTH",
"728 546 OFFCURVE",
"590 705 OFFCURVE",
"379 705 CURVE SMOOTH",
"168 705 OFFCURVE",
"30 546 OFFCURVE",
"30 348 CURVE SMOOTH",
"30 152 OFFCURVE",
"169 -5 OFFCURVE",
"379 -5 CURVE SMOOTH"
);
},
{
closed = 1;
nodes = (
"195 26 OFFCURVE",
"73 164 OFFCURVE",
"73 348 CURVE SMOOTH",
"73 533 OFFCURVE",
"196 674 OFFCURVE",
"379 674 CURVE SMOOTH",
"563 674 OFFCURVE",
"685 533 OFFCURVE",
"685 348 CURVE SMOOTH",
"685 164 OFFCURVE",
"563 26 OFFCURVE",
"379 26 CURVE SMOOTH"
);
}
);
width = 758;
}
);
leftKerningGroup = C;
note = O;
rightKerningGroup = O;
unicode = 004F;
},
{
glyphname = Oacute;
layers = (
{
hints = (
{
horizontal = 1;
place = "{-5, 31}";
type = Stem;
},
{
horizontal = 1;
place = "{674, 31}";
type = Stem;
},
{
place = "{30, 43}";
type = Stem;
},
{
place = "{685, 43}";
type = Stem;
}
);
layerId = "F5467FAD-1970-4982-B3D3-939C01050498";
paths = (
{
closed = 1;
nodes = (
"318 820 LINE",
"335 815 LINE",
"461 894 LINE",
"438 933 LINE"
);
},
{
closed = 1;
nodes = (
"590 -5 OFFCURVE",
"728 151 OFFCURVE",
"728 348 CURVE SMOOTH",
"728 546 OFFCURVE",
"590 705 OFFCURVE",
"379 705 CURVE SMOOTH",
"168 705 OFFCURVE",
"30 546 OFFCURVE",
"30 348 CURVE SMOOTH",
"30 152 OFFCURVE",
"169 -5 OFFCURVE",
"379 -5 CURVE SMOOTH"
);
},
{
closed = 1;
nodes = (
"195 26 OFFCURVE",
"73 164 OFFCURVE",
"73 348 CURVE SMOOTH",
"73 533 OFFCURVE",
"196 674 OFFCURVE",
"379 674 CURVE SMOOTH",
"563 674 OFFCURVE",
"685 533 OFFCURVE",
"685 348 CURVE SMOOTH",
"685 164 OFFCURVE",
"563 26 OFFCURVE",
"379 26 CURVE SMOOTH"
);
}
);
width = 758;
}
);
leftKerningGroup = C;
note = Oacute;
rightKerningGroup = O;
unicode = 00D3;
},
{
glyphname = Ocircumflex;
layers = (
{
hints = (
{
horizontal = 1;
place = "{-5, 31}";
type = Stem;
},
{
horizontal = 1;
place = "{674, 31}";
type = Stem;
},
{
place = "{30, 43}";
type = Stem;
},
{
place = "{685, 43}";
type = Stem;
}
);
layerId = "F5467FAD-1970-4982-B3D3-939C01050498";
paths = (
{
closed = 1;
nodes = (
"267 815 LINE",
"380 920.52 LINE",
"493 815 LINE",
"535 829 LINE",
"381 966 LINE",
"380 965 LINE",
"379 966 LINE",
"225 829 LINE"
);
},
{
closed = 1;
nodes = (
"590 -5 OFFCURVE",
"728 151 OFFCURVE",
"728 348 CURVE SMOOTH",
"728 546 OFFCURVE",
"590 705 OFFCURVE",
"379 705 CURVE SMOOTH",
"168 705 OFFCURVE",
"30 546 OFFCURVE",
"30 348 CURVE SMOOTH",
"30 152 OFFCURVE",
"169 -5 OFFCURVE",
"379 -5 CURVE SMOOTH"
);
},
{
closed = 1;
nodes = (
"195 26 OFFCURVE",
"73 164 OFFCURVE",
"73 348 CURVE SMOOTH",
"73 533 OFFCURVE",
"196 674 OFFCURVE",
"379 674 CURVE SMOOTH",
"563 674 OFFCURVE",
"685 533 OFFCURVE",
"685 348 CURVE SMOOTH",
"685 164 OFFCURVE",
"563 26 OFFCURVE",
"379 26 CURVE SMOOTH"
);
}
);
width = 758;
}
);
leftKerningGroup = C;
note = Ocircumflex;
rightKerningGroup = O;
unicode = 00D4;
},
{
glyphname = Odieresis;
layers = (
{
hints = (
{
horizontal = 1;
place = "{-5, 31}";
type = Stem;
},
{
horizontal = 1;
place = "{674, 31}";
type = Stem;
},
{
horizontal = 1;
place = "{831, 42}";
type = Stem;
},
{
place = "{30, 43}";
type = Stem;
},
{
place = "{234, 42}";
type = Stem;
},
{
place = "{482, 42}";
type = Stem;
},
{
place = "{685, 43}";
type = Stem;
}
);
layerId = "F5467FAD-1970-4982-B3D3-939C01050498";
paths = (
{
closed = 1;
nodes = (
"276 873 LINE",
"234 873 LINE",
"234 831 LINE",
"276 831 LINE"
);
},
{
closed = 1;
nodes = (
"524 873 LINE",
"482 873 LINE",
"482 831 LINE",
"524 831 LINE"
);
},
{
closed = 1;
nodes = (
"590 -5 OFFCURVE",
"728 151 OFFCURVE",
"728 348 CURVE SMOOTH",
"728 546 OFFCURVE",
"590 705 OFFCURVE",
"379 705 CURVE SMOOTH",
"168 705 OFFCURVE",
"30 546 OFFCURVE",
"30 348 CURVE SMOOTH",
"30 152 OFFCURVE",
"169 -5 OFFCURVE",
"379 -5 CURVE SMOOTH"
);
},
{
closed = 1;
nodes = (
"195 26 OFFCURVE",
"73 164 OFFCURVE",
"73 348 CURVE SMOOTH",
"73 533 OFFCURVE",
"196 674 OFFCURVE",
"379 674 CURVE SMOOTH",
"563 674 OFFCURVE",
"685 533 OFFCURVE",
"685 348 CURVE SMOOTH",
"685 164 OFFCURVE",
"563 26 OFFCURVE",
"379 26 CURVE SMOOTH"
);
}
);
width = 758;
}
);
leftKerningGroup = C;
note = Odieresis;
rightKerningGroup = O;
unicode = 00D6;
},
{
glyphname = Ograve;
layers = (
{
hints = (
{
horizontal = 1;
place = "{-5, 31}";
type = Stem;
},
{
horizontal = 1;
place = "{674, 31}";
type = Stem;
},
{
place = "{30, 43}";
type = Stem;
},
{
place = "{685, 43}";
type = Stem;
}
);
layerId = "F5467FAD-1970-4982-B3D3-939C01050498";
paths = (
{
closed = 1;
nodes = (
"436 820 LINE",
"316 933 LINE",
"293 894 LINE",
"419 815 LINE"
);
},
{
closed = 1;
nodes = (
"590 -5 OFFCURVE",
"728 151 OFFCURVE",
"728 348 CURVE SMOOTH",
"728 546 OFFCURVE",
"590 705 OFFCURVE",
"379 705 CURVE SMOOTH",
"168 705 OFFCURVE",
"30 546 OFFCURVE",
"30 348 CURVE SMOOTH",
"30 152 OFFCURVE",
"169 -5 OFFCURVE",
"379 -5 CURVE SMOOTH"
);
},
{
closed = 1;
nodes = (
"195 26 OFFCURVE",
"73 164 OFFCURVE",
"73 348 CURVE SMOOTH",
"73 533 OFFCURVE",
"196 674 OFFCURVE",
"379 674 CURVE SMOOTH",
"563 674 OFFCURVE",
"685 533 OFFCURVE",
"685 348 CURVE SMOOTH",
"685 164 OFFCURVE",
"563 26 OFFCURVE",
"379 26 CURVE SMOOTH"
);
}
);
width = 758;
}
);
leftKerningGroup = C;
note = Ograve;
rightKerningGroup = O;
unicode = 00D2;
},
{
glyphname = Oslash;
layers = (
{
hints = (
{
horizontal = 1;
place = "{-5, 31}";
type = Stem;
},
{
horizontal = 1;
place = "{674, 31}";
type = Stem;
},
{
place = "{30, 42.99}";
type = Stem;
},
{
place = "{684.99, 43}";
type = Stem;
}
);
layerId = "F5467FAD-1970-4982-B3D3-939C01050498";
paths = (
{
closed = 1;
nodes = (
"536 785 LINE",
"501 785 LINE",
"473.91 693.4 LINE",
"444.3 700.97 OFFCURVE",
"412.57 705 OFFCURVE",
"379 705 CURVE SMOOTH",
"168 705 OFFCURVE",
"30 546 OFFCURVE",
"30 348 CURVE SMOOTH",
"30 187.67 OFFCURVE",
"123.01 53.44 OFFCURVE",
"271.8 9.89 CURVE",
"247 -74 LINE",
"282 -74 LINE",
"304.46 1.98 LINE",
"328.13 -2.6 OFFCURVE",
"353.02 -5 OFFCURVE",
"378.99 -5 CURVE SMOOTH",
"589.99 -5 OFFCURVE",
"727.99 151 OFFCURVE",
"727.99 348 CURVE SMOOTH",
"727.99 502.8 OFFCURVE",
"643.64 633.77 OFFCURVE",
"505.99 683.54 CURVE"
);
},
{
closed = 1;
nodes = (
"72.99 533 OFFCURVE",
"195.99 674 OFFCURVE",
"378.99 674 CURVE SMOOTH",
"409.41 674 OFFCURVE",
"438.13 670.15 OFFCURVE",
"464.88 662.88 CURVE",
"280.83 40.44 LINE",
"152.87 80.35 OFFCURVE",
"72.99 199.12 OFFCURVE",
"72.99 348 CURVE SMOOTH"
);
},
{
closed = 1;
nodes = (
"356.13 26 OFFCURVE",
"334.23 28.13 OFFCURVE",
"313.4 32.22 CURVE",
"496.74 652.27 LINE",
"613.22 605.91 OFFCURVE",
"684.99 489.9 OFFCURVE",
"684.99 348 CURVE SMOOTH",
"684.99 164 OFFCURVE",
"562.99 26 OFFCURVE",
"378.99 26 CURVE SMOOTH"
);
}
);
width = 758;
}
);
leftKerningGroup = C;
note = Oslash;
rightKerningGroup = O;
unicode = 00D8;
},
{
glyphname = Otilde;
layers = (
{
hints = (
{
horizontal = 1;
place = "{-5, 31}";
type = Stem;
},
{
horizontal = 1;
place = "{674, 31}";
type = Stem;
},
{
horizontal = 1;
place = "{822, 19}";
type = Stem;
},
{
horizontal = 1;
place = "{931, 19}";
type = Stem;
},
{
place = "{30, 43}";
type = Stem;
},
{
place = "{205.02, 30.81}";
type = Stem;
},
{
place = "{492.16, 30.81}";
type = Stem;
},
{
place = "{685, 43}";
type = Stem;
}
);
layerId = "F5467FAD-1970-4982-B3D3-939C01050498";
paths = (
{
closed = 1;
nodes = (
"450 950 LINE",
"475.58 921.22 OFFCURVE",
"492.16 884.67 OFFCURVE",
"492.16 862.06 CURVE SMOOTH",
"492.16 849.31 OFFCURVE",
"486.89 841 OFFCURVE",
"475 841 CURVE SMOOTH",
"452 841 OFFCURVE",
"425 866 OFFCURVE",
"366 907 CURVE SMOOTH",
"329 932 OFFCURVE",
"300 950 OFFCURVE",
"264 950 CURVE SMOOTH",
"228.32 950 OFFCURVE",
"205.02 922.78 OFFCURVE",
"205.02 890.2 CURVE SMOOTH",
"205.02 867.98 OFFCURVE",
"215.86 843.27 OFFCURVE",
"241 823 CURVE",
"278 822 LINE",
"252.42 850.78 OFFCURVE",
"235.83 887.33 OFFCURVE",
"235.83 909.94 CURVE SMOOTH",
"235.83 922.68 OFFCURVE",
"241.1 931 OFFCURVE",
"253 931 CURVE SMOOTH",
"276 931 OFFCURVE",
"303 906 OFFCURVE",
"362 865 CURVE SMOOTH",
"399 840 OFFCURVE",
"428 822 OFFCURVE",
"464 822 CURVE SMOOTH",
"499.67 822 OFFCURVE",
"522.97 849.22 OFFCURVE",
"522.97 881.8 CURVE SMOOTH",
"522.97 904.02 OFFCURVE",
"512.14 928.73 OFFCURVE",
"487 949 CURVE"
);
},
{
closed = 1;
nodes = (
"590 -5 OFFCURVE",
"728 151 OFFCURVE",
"728 348 CURVE SMOOTH",
"728 546 OFFCURVE",
"590 705 OFFCURVE",
"379 705 CURVE SMOOTH",
"168 705 OFFCURVE",
"30 546 OFFCURVE",
"30 348 CURVE SMOOTH",
"30 152 OFFCURVE",
"169 -5 OFFCURVE",
"379 -5 CURVE SMOOTH"
);
},
{
closed = 1;
nodes = (
"195 26 OFFCURVE",
"73 164 OFFCURVE",
"73 348 CURVE SMOOTH",
"73 533 OFFCURVE",
"196 674 OFFCURVE",
"379 674 CURVE SMOOTH",
"563 674 OFFCURVE",
"685 533 OFFCURVE",
"685 348 CURVE SMOOTH",
"685 164 OFFCURVE",
"563 26 OFFCURVE",
"379 26 CURVE SMOOTH"
);
}
);
width = 758;
}
);
leftKerningGroup = C;
note = Otilde;
rightKerningGroup = O;
unicode = 00D5;
},
{
glyphname = OE;
layers = (
{
hints = (
{
horizontal = 1;
place = "{0, 30}";
type = Stem;
},
{
horizontal = 1;
place = "{338, 32}";
type = Stem;
},
{
horizontal = 1;
place = "{669, 31}";
type = Stem;
},
{
place = "{7.99, 42}";
type = Stem;
},
{
place = "{583, 19}";
type = Stem;
},
{
place = "{583, 42}";
type = Stem;
},
{
horizontal = 1;
place = "{-5, 31}";
type = Stem;
},
{
horizontal = 1;
place = "{674, 31}";
type = Stem;
}
);
layerId = "F5467FAD-1970-4982-B3D3-939C01050498";
paths = (
{
closed = 1;
nodes = (
"1110 0 LINE",
"1110 30 LINE",
"625 30 LINE",
"625 338 LINE",
"1088 338 LINE",
"1088 370 LINE",
"625 370 LINE",
"625 669 LINE",
"1099 669 LINE",
"1099 700 LINE",
"583 700 LINE",
"583 625.54 LINE",
"524.76 675.13 OFFCURVE",
"447.64 705 OFFCURVE",
"355.99 705 CURVE SMOOTH",
"144.99 705 OFFCURVE",
"7.99 546 OFFCURVE",
"7.99 348 CURVE SMOOTH",
"7.99 152 OFFCURVE",
"145.99 -5 OFFCURVE",
"355.99 -5 CURVE SMOOTH",
"447.64 -5 OFFCURVE",
"524.76 24.06 OFFCURVE",
"583 73.49 CURVE",
"583 0 LINE"
);
},
{
closed = 1;
nodes = (
"172 26 OFFCURVE",
"50 164 OFFCURVE",
"50 348 CURVE SMOOTH",
"50 533 OFFCURVE",
"173 674 OFFCURVE",
"356 674 CURVE SMOOTH",
"469.1 674 OFFCURVE",
"542.91 642.63 OFFCURVE",
"583 562.02 CURVE",
"583 139.67 LINE",
"542.91 59.63 OFFCURVE",
"469.1 26 OFFCURVE",
"356 26 CURVE SMOOTH"
);
},
{
closed = 1;
nodes = (
"602 511.47 LINE",
"614.16 467.65 OFFCURVE",
"620 413.67 OFFCURVE",
"620 348 CURVE SMOOTH",
"620 285.04 OFFCURVE",
"614.16 232.59 OFFCURVE",
"602 189.57 CURVE"
);
}
);
width = 1157;
}
);
leftKerningGroup = C;
note = OE;
rightKerningGroup = AE;
unicode = 0152;
},
{
glyphname = P;
layers = (
{
hints = (
{
horizontal = 1;
place = "{340, 28}";
type = Stem;
},
{
horizontal = 1;
place = "{669, 31}";
type = Stem;
},
{
place = "{56, 42}";
type = Stem;
},
{
place = "{403, 42}";
type = Stem;
}
);
layerId = "F5467FAD-1970-4982-B3D3-939C01050498";
paths = (
{
closed = 1;
nodes = (
"56 700 LINE",
"56 0 LINE",
"98 0 LINE",
"98 340 LINE",
"237 340 LINE SMOOTH",
"347 340 OFFCURVE",
"445 383 OFFCURVE",
"445 520 CURVE SMOOTH",
"445 655 OFFCURVE",
"341 700 OFFCURVE",
"243 700 CURVE SMOOTH"
);
},
{
closed = 1;
nodes = (
"98 368 LINE",
"98 669 LINE",
"240 669 LINE SMOOTH",
"333 669 OFFCURVE",
"403 621 OFFCURVE",
"403 520 CURVE SMOOTH",
"403 420 OFFCURVE",
"336 368 OFFCURVE",
"237 368 CURVE SMOOTH"
);
}
);
width = 491;
}
);
leftKerningGroup = B;
note = P;
rightKerningGroup = P;
unicode = 0050;
},
{
glyphname = Thorn;
layers = (
{
hints = (
{
horizontal = 1;
place = "{221, 32}";
type = Stem;
},
{
horizontal = 1;
place = "{554, 31}";
type = Stem;
},
{
place = "{93, 43}";
type = Stem;
},
{
place = "{455, 43}";
type = Stem;
}
);
layerId = "F5467FAD-1970-4982-B3D3-939C01050498";
paths = (
{
closed = 1;
nodes = (
"136 585 LINE",
"136 700 LINE",
"93 700 LINE",
"93 0 LINE",
"136 0 LINE",
"136 221 LINE",
"289 221 LINE SMOOTH",
"398 221 OFFCURVE",
"498 268 OFFCURVE",
"498 405 CURVE SMOOTH",
"498 540 OFFCURVE",
"393 585 OFFCURVE",
"295 585 CURVE SMOOTH"
);
},
{
closed = 1;
nodes = (
"136 253 LINE",
"136 554 LINE",
"292 554 LINE SMOOTH",
"385 554 OFFCURVE",
"455 507 OFFCURVE",
"455 405 CURVE SMOOTH",
"455 306 OFFCURVE",
"388 253 OFFCURVE",
"289 253 CURVE SMOOTH"
);
}
);
width = 531;
}
);
note = Thorn;
unicode = 00DE;
},
{
glyphname = Q;
layers = (
{
hints = (
{
horizontal = 1;
place = "{-5, 31}";
type = Stem;
},
{
horizontal = 1;
place = "{674, 31}";
type = Stem;
},
{
place = "{31, 42}";
type = Stem;
},
{
place = "{664, 42}";
type = Stem;
}
);
layerId = "F5467FAD-1970-4982-B3D3-939C01050498";
paths = (
{
closed = 1;
nodes = (
"665 0 LINE",
"714 0 LINE",
"610.32 95.31 LINE",
"670.91 159.1 OFFCURVE",
"706 248.3 OFFCURVE",
"706 348 CURVE SMOOTH",
"706 546 OFFCURVE",
"568 705 OFFCURVE",
"369 705 CURVE SMOOTH",
"169 705 OFFCURVE",
"31 546 OFFCURVE",
"31 348 CURVE SMOOTH",
"31 152 OFFCURVE",
"170 -5 OFFCURVE",
"369 -5 CURVE SMOOTH",
"455.31 -5 OFFCURVE",
"529.89 24.05 OFFCURVE",
"586.79 72.92 CURVE"
);
},
{
closed = 1;
nodes = (
"196 26 OFFCURVE",
"73 164 OFFCURVE",
"73 348 CURVE SMOOTH",
"73 533 OFFCURVE",
"197 674 OFFCURVE",
"369 674 CURVE SMOOTH",
"542 674 OFFCURVE",
"664 533 OFFCURVE",
"664 348 CURVE SMOOTH",
"664 257.24 OFFCURVE",
"634.08 177.67 OFFCURVE",
"583.1 120.33 CURVE",
"429 262 LINE",
"384 262 LINE",
"560.4 97.52 LINE",
"510.11 52.41 OFFCURVE",
"444.24 26 OFFCURVE",
"369 26 CURVE SMOOTH"
);
}
);
width = 772;
}
);
leftKerningGroup = C;
note = Q;
rightKerningGroup = Q;
unicode = 0051;
},
{
glyphname = R;
layers = (
{
hints = (
{
horizontal = 1;
place = "{390, 22}";
type = Stem;
},
{
horizontal = 1;
place = "{669, 31}";
type = Stem;
},
{
place = "{56, 42.99}";
type = Stem;
},
{
place = "{392.99, 42}";
type = Stem;
}
);
layerId = "F5467FAD-1970-4982-B3D3-939C01050498";
paths = (
{
closed = 1;
nodes = (
"510 0 LINE",
"560 0 LINE",
"300.64 395.34 LINE",
"378.69 409.17 OFFCURVE",
"435 452.31 OFFCURVE",
"435 553 CURVE SMOOTH",
"435 665 OFFCURVE",
"350 700 OFFCURVE",
"241 700 CURVE SMOOTH",
"56 700 LINE",
"56 0 LINE",
"99 0 LINE",
"99 389.07 LINE",
"233 390 LINE SMOOTH",
"239.52 390 OFFCURVE",
"245.98 390.12 OFFCURVE",
"252.35 390.37 CURVE"
);
},
{
closed = 1;
nodes = (
"98.99 412 LINE",
"98.99 669 LINE",
"144.87 669 OFFCURVE",
"209.37 669 OFFCURVE",
"240.99 669 CURVE SMOOTH",
"336.99 669 OFFCURVE",
"392.99 620 OFFCURVE",
"392.99 542 CURVE SMOOTH",
"392.99 465 OFFCURVE",
"338.99 412 OFFCURVE",
"236.99 412 CURVE SMOOTH"
);
}
);
width = 570;
}
);
leftKerningGroup = B;
note = R;
rightKerningGroup = R;
unicode = 0052;
},
{
glyphname = S;
layers = (
{
hints = (
{
horizontal = 1;
place = "{-7, 27}";
type = Stem;
},
{
horizontal = 1;
place = "{683, 25}";
type = Stem;
},
{
place = "{87, 44}";
type = Stem;
},
{
place = "{503, 46}";
type = Stem;
}
);
layerId = "F5467FAD-1970-4982-B3D3-939C01050498";
paths = (
{
closed = 1;
nodes = (
"155 708 OFFCURVE",
"87 636 OFFCURVE",
"87 544 CURVE SMOOTH",
"87 451 OFFCURVE",
"154 403 OFFCURVE",
"293 358 CURVE SMOOTH",
"394 325 OFFCURVE",
"503 299 OFFCURVE",
"503 190 CURVE SMOOTH",
"503 95 OFFCURVE",
"441 20 OFFCURVE",
"304 20 CURVE SMOOTH",
"169 20 OFFCURVE",
"100 83 OFFCURVE",
"69 172 CURVE",
"30 152 LINE",
"73 57 OFFCURVE",
"155 -7 OFFCURVE",
"304 -7 CURVE SMOOTH",
"476 -7 OFFCURVE",
"549 83 OFFCURVE",
"549 190 CURVE SMOOTH",
"549 321 OFFCURVE",
"399 350 OFFCURVE",
"303 382 CURVE SMOOTH",
"159 430 OFFCURVE",
"131 472 OFFCURVE",
"131 544 CURVE SMOOTH",
"131 623 OFFCURVE",
"182 683 OFFCURVE",
"299 683 CURVE SMOOTH",
"378 683 OFFCURVE",
"437 651 OFFCURVE",
"457 593 CURVE",
"499 604 LINE",
"471 673 OFFCURVE",
"393 708 OFFCURVE",
"299 708 CURVE SMOOTH"
);
}
);
width = 579;
}
);
leftKerningGroup = S;
note = S;
rightKerningGroup = S;
unicode = 0053;
},
{
glyphname = Scaron;
layers = (
{
hints = (
{
horizontal = 1;
place = "{-7, 27}";
type = Stem;
},
{
horizontal = 1;
place = "{683, 25}";
type = Stem;
},
{
place = "{87, 44}";
type = Stem;
},
{
place = "{503, 46}";
type = Stem;
}
);
layerId = "F5467FAD-1970-4982-B3D3-939C01050498";
paths = (
{
closed = 1;
nodes = (
"288 797 LINE",
"289 798 LINE",
"290 797 LINE",
"444 934 LINE",
"402 948 LINE",
"289 842.48 LINE",
"176 948 LINE",
"134 934 LINE"
);
},
{
closed = 1;
nodes = (
"155 708 OFFCURVE",
"87 636 OFFCURVE",
"87 544 CURVE SMOOTH",
"87 451 OFFCURVE",
"154 403 OFFCURVE",
"293 358 CURVE SMOOTH",
"394 325 OFFCURVE",
"503 299 OFFCURVE",
"503 190 CURVE SMOOTH",
"503 95 OFFCURVE",
"441 20 OFFCURVE",
"304 20 CURVE SMOOTH",
"169 20 OFFCURVE",
"100 83 OFFCURVE",
"69 172 CURVE",
"30 152 LINE",
"73 57 OFFCURVE",
"155 -7 OFFCURVE",
"304 -7 CURVE SMOOTH",
"476 -7 OFFCURVE",
"549 83 OFFCURVE",
"549 190 CURVE SMOOTH",
"549 321 OFFCURVE",
"399 350 OFFCURVE",
"303 382 CURVE SMOOTH",
"159 430 OFFCURVE",
"131 472 OFFCURVE",
"131 544 CURVE SMOOTH",
"131 623 OFFCURVE",
"182 683 OFFCURVE",
"299 683 CURVE SMOOTH",
"378 683 OFFCURVE",
"437 651 OFFCURVE",
"457 593 CURVE",
"499 604 LINE",
"471 673 OFFCURVE",
"393 708 OFFCURVE",
"299 708 CURVE SMOOTH"
);
}
);
width = 579;
}
);
leftKerningGroup = S;
note = Scaron;
rightKerningGroup = S;
unicode = 0160;
},
{
glyphname = T;
layers = (
{
hints = (
{
horizontal = 1;
place = "{670, 30}";
type = Stem;
},
{
place = "{313, 42}";
type = Stem;
}
);
layerId = "F5467FAD-1970-4982-B3D3-939C01050498";
paths = (
{
closed = 1;
nodes = (
"355 0 LINE",
"355 670 LINE",
"647 670 LINE",
"647 700 LINE",
"20 700 LINE",
"20 670 LINE",
"313 670 LINE",
"313 0 LINE"
);
}
);
width = 667;
}
);
leftKerningGroup = T;
note = T;
rightKerningGroup = T;
unicode = 0054;
},
{
glyphname = U;
layers = (
{
hints = (
{
horizontal = 1;
place = "{-12, 27}";
type = Stem;
},
{
place = "{60, 43}";
type = Stem;
},
{
place = "{519, 43}";
type = Stem;
}
);
layerId = "F5467FAD-1970-4982-B3D3-939C01050498";
paths = (
{
closed = 1;
nodes = (
"561 700 LINE",
"519 700 LINE",
"519 212 LINE SMOOTH",
"519 75 OFFCURVE",
"428 15 OFFCURVE",
"311 15 CURVE SMOOTH",
"194 15 OFFCURVE",
"103 75 OFFCURVE",
"103 212 CURVE SMOOTH",
"103 700 LINE",
"61 700 LINE",
"60 212 LINE SMOOTH",
"60 58 OFFCURVE",
"162 -12 OFFCURVE",
"311 -12 CURVE SMOOTH",
"460 -12 OFFCURVE",
"562 58 OFFCURVE",
"562 212 CURVE"
);
}
);
width = 622;
}
);
leftKerningGroup = U;
note = U;
rightKerningGroup = U;
unicode = 0055;
},
{
glyphname = Uacute;
layers = (
{
hints = (
{
horizontal = 1;
place = "{-12, 27}";
type = Stem;
},
{
place = "{60, 43}";
type = Stem;
},
{
place = "{519, 43}";
type = Stem;
}
);
layerId = "F5467FAD-1970-4982-B3D3-939C01050498";
paths = (
{
closed = 1;
nodes = (
"250 820 LINE",
"267 815 LINE",
"393 894 LINE",
"370 933 LINE"
);
},
{
closed = 1;
nodes = (
"561 700 LINE",
"519 700 LINE",
"519 212 LINE SMOOTH",
"519 75 OFFCURVE",
"428 15 OFFCURVE",
"311 15 CURVE SMOOTH",
"194 15 OFFCURVE",
"103 75 OFFCURVE",
"103 212 CURVE SMOOTH",
"103 700 LINE",
"61 700 LINE",
"60 212 LINE SMOOTH",
"60 58 OFFCURVE",
"162 -12 OFFCURVE",
"311 -12 CURVE SMOOTH",
"460 -12 OFFCURVE",
"562 58 OFFCURVE",
"562 212 CURVE"
);
}
);
width = 622;
}
);
leftKerningGroup = U;
note = Uacute;
rightKerningGroup = U;
unicode = 00DA;
},
{
glyphname = Ucircumflex;
layers = (
{
hints = (
{
horizontal = 1;
place = "{-12, 27}";
type = Stem;
},
{
place = "{60, 43}";
type = Stem;
},
{
place = "{519, 43}";
type = Stem;
}
);
layerId = "F5467FAD-1970-4982-B3D3-939C01050498";
paths = (
{
closed = 1;
nodes = (
"199 815 LINE",
"312 920.52 LINE",
"425 815 LINE",
"467 829 LINE",
"313 966 LINE",
"312 965 LINE",
"311 966 LINE",
"157 829 LINE"
);
},
{
closed = 1;
nodes = (
"561 700 LINE",
"519 700 LINE",
"519 212 LINE SMOOTH",
"519 75 OFFCURVE",
"428 15 OFFCURVE",
"311 15 CURVE SMOOTH",
"194 15 OFFCURVE",
"103 75 OFFCURVE",
"103 212 CURVE SMOOTH",
"103 700 LINE",
"61 700 LINE",
"60 212 LINE SMOOTH",
"60 58 OFFCURVE",
"162 -12 OFFCURVE",
"311 -12 CURVE SMOOTH",
"460 -12 OFFCURVE",
"562 58 OFFCURVE",
"562 212 CURVE"
);
}
);
width = 622;
}
);
leftKerningGroup = U;
note = Ucircumflex;
rightKerningGroup = U;
unicode = 00DB;
},
{
glyphname = Udieresis;
layers = (
{
hints = (
{
horizontal = 1;
place = "{-12, 27}";
type = Stem;
},
{
horizontal = 1;
place = "{831, 42}";
type = Stem;
},
{
place = "{60, 43}";
type = Stem;
},
{
place = "{166, 42}";
type = Stem;
},
{
place = "{414, 42}";
type = Stem;
},
{
place = "{519, 43}";
type = Stem;
}
);
layerId = "F5467FAD-1970-4982-B3D3-939C01050498";
paths = (
{
closed = 1;
nodes = (
"208 873 LINE",
"166 873 LINE",
"166 831 LINE",
"208 831 LINE"
);
},
{
closed = 1;
nodes = (
"456 873 LINE",
"414 873 LINE",
"414 831 LINE",
"456 831 LINE"
);
},
{
closed = 1;
nodes = (
"561 700 LINE",
"519 700 LINE",
"519 212 LINE SMOOTH",
"519 75 OFFCURVE",
"428 15 OFFCURVE",
"311 15 CURVE SMOOTH",
"194 15 OFFCURVE",
"103 75 OFFCURVE",
"103 212 CURVE SMOOTH",
"103 700 LINE",
"61 700 LINE",
"60 212 LINE SMOOTH",
"60 58 OFFCURVE",
"162 -12 OFFCURVE",
"311 -12 CURVE SMOOTH",
"460 -12 OFFCURVE",
"562 58 OFFCURVE",
"562 212 CURVE"
);
}
);
width = 622;
}
);
leftKerningGroup = U;
note = Udieresis;
rightKerningGroup = U;
unicode = 00DC;
},
{
glyphname = Ugrave;
layers = (
{
hints = (
{
horizontal = 1;
place = "{-12, 27}";
type = Stem;
},
{
place = "{60, 43}";
type = Stem;
},
{
place = "{519, 43}";
type = Stem;
}
);
layerId = "F5467FAD-1970-4982-B3D3-939C01050498";
paths = (
{
closed = 1;
nodes = (
"368 820 LINE",
"248 933 LINE",
"225 894 LINE",
"351 815 LINE"
);
},
{
closed = 1;
nodes = (
"561 700 LINE",
"519 700 LINE",
"519 212 LINE SMOOTH",
"519 75 OFFCURVE",
"428 15 OFFCURVE",
"311 15 CURVE SMOOTH",
"194 15 OFFCURVE",
"103 75 OFFCURVE",
"103 212 CURVE SMOOTH",
"103 700 LINE",
"61 700 LINE",
"60 212 LINE SMOOTH",
"60 58 OFFCURVE",
"162 -12 OFFCURVE",
"311 -12 CURVE SMOOTH",
"460 -12 OFFCURVE",
"562 58 OFFCURVE",
"562 212 CURVE"
);
}
);
width = 622;
}
);
leftKerningGroup = U;
note = Ugrave;
rightKerningGroup = U;
unicode = 00D9;
},
{
glyphname = V;
layers = (
{
hints = (
{
horizontal = 1;
place = "{0, 20.46}";
type = Stem;
},
{
place = "{44, 541}";
type = Stem;
}
);
layerId = "F5467FAD-1970-4982-B3D3-939C01050498";
paths = (
{
closed = 1;
nodes = (
"283 0 LINE",
"345 0 LINE",
"585 700 LINE",
"547 700 LINE",
"314.01 20.46 LINE",
"82 700 LINE",
"44 700 LINE"
);
}
);
width = 629;
}
);
leftKerningGroup = V;
note = V;
rightKerningGroup = V;
unicode = 0056;
},
{
glyphname = W;
layers = (
{
hints = (
{
horizontal = 1;
place = "{0, 43.11}";
type = Stem;
},
{
horizontal = 1;
place = "{649.45, 39.55}";
type = Stem;
},
{
place = "{39, 724}";
type = Stem;
}
);
layerId = "F5467FAD-1970-4982-B3D3-939C01050498";
paths = (
{
closed = 1;
nodes = (
"555 0 LINE",
"603 0 LINE",
"763 700 LINE",
"723 700 LINE",
"582.24 43.11 LINE",
"421 689 LINE",
"377 689 LINE",
"214.96 43.64 LINE",
"79 700 LINE",
"39 700 LINE",
"195 0 LINE",
"243 0 LINE",
"398.53 649.45 LINE"
);
}
);
width = 802;
}
);
leftKerningGroup = W;
note = W;
rightKerningGroup = W;
unicode = 0057;
},
{
glyphname = X;
layers = (
{
hints = (
{
horizontal = 1;
place = "{0, 700}";
type = Stem;
},
{
place = "{57, 639}";
type = Stem;
}
);
layerId = "F5467FAD-1970-4982-B3D3-939C01050498";
paths = (
{
closed = 1;
nodes = (
"111 0 LINE",
"381.12 341.36 LINE",
"643 0 LINE",
"696 0 LINE",
"411.12 369.97 LINE",
"671 700 LINE",
"617 700 LINE",
"384.15 404.99 LINE",
"157 700 LINE",
"106 700 LINE",
"354.02 376.69 LINE",
"57 0 LINE"
);
}
);
width = 753;
}
);
leftKerningGroup = X;
note = X;
rightKerningGroup = X;
unicode = 0058;
},
{
glyphname = Y;
layers = (
{
hints = (
{
horizontal = 1;
place = "{0, 700}";
type = Stem;
},
{
place = "{265, 42}";
type = Stem;
}
);
layerId = "F5467FAD-1970-4982-B3D3-939C01050498";
paths = (
{
closed = 1;
nodes = (
"265 0 LINE",
"307 0 LINE",
"307 309.73 LINE",
"563 700 LINE",
"517 700 LINE",
"290.48 337.42 LINE",
"281.39 337.42 LINE",
"56 700 LINE",
"10 700 LINE",
"265 309.82 LINE"
);
}
);
width = 573;
}
);
leftKerningGroup = Y;
note = Y;
rightKerningGroup = Y;
unicode = 0059;
},
{
glyphname = Yacute;
layers = (
{
hints = (
{
horizontal = 1;
place = "{0, 933}";
type = Stem;
},
{
place = "{265, 42}";
type = Stem;
}
);
layerId = "F5467FAD-1970-4982-B3D3-939C01050498";
paths = (
{
closed = 1;
nodes = (
"226 820 LINE",
"243 815 LINE",
"369 894 LINE",
"346 933 LINE"
);
},
{
closed = 1;
nodes = (
"265 0 LINE",
"307 0 LINE",
"307 309.73 LINE",
"563 700 LINE",
"517 700 LINE",
"290.48 337.42 LINE",
"281.39 337.42 LINE",
"56 700 LINE",
"10 700 LINE",
"265 309.82 LINE"
);
}
);
width = 573;
}
);
leftKerningGroup = Y;
note = Yacute;
rightKerningGroup = Y;
unicode = 00DD;
},
{
glyphname = Ydieresis;
layers = (
{
hints = (
{
horizontal = 1;
place = "{831, 42}";
type = Stem;
},
{
place = "{142, 42}";
type = Stem;
},
{
place = "{265, 42}";
type = Stem;
},
{
place = "{390, 42}";
type = Stem;
}
);
layerId = "F5467FAD-1970-4982-B3D3-939C01050498";
paths = (
{
closed = 1;
nodes = (
"184 873 LINE",
"142 873 LINE",
"142 831 LINE",
"184 831 LINE"
);
},
{
closed = 1;
nodes = (
"432 873 LINE",
"390 873 LINE",
"390 831 LINE",
"432 831 LINE"
);
},
{
closed = 1;
nodes = (
"265 0 LINE",
"307 0 LINE",
"307 309.73 LINE",
"563 700 LINE",
"517 700 LINE",
"290.48 337.42 LINE",
"281.39 337.42 LINE",
"56 700 LINE",
"10 700 LINE",
"265 309.82 LINE"
);
}
);
width = 573;
}
);
leftKerningGroup = Y;
note = Ydieresis;
rightKerningGroup = Y;
unicode = 0178;
},
{
glyphname = Z;
layers = (
{
hints = (
{
horizontal = 1;
place = "{0, 30}";
type = Stem;
},
{
horizontal = 1;
place = "{670, 30}";
type = Stem;
},
{
place = "{9, 547}";
type = Stem;
}
);
layerId = "F5467FAD-1970-4982-B3D3-939C01050498";
paths = (
{
closed = 1;
nodes = (
"531 30 LINE",
"54.45 30 LINE",
"556 670 LINE",
"556 700 LINE",
"45 700 LINE",
"45 670 LINE",
"511.44 670 LINE",
"9 30 LINE",
"9 0 LINE",
"531 0 LINE"
);
}
);
width = 555;
}
);
leftKerningGroup = Z;
note = Z;
rightKerningGroup = Z;
unicode = 005A;
},
{
glyphname = Zcaron;
layers = (
{
hints = (
{
horizontal = 1;
place = "{0, 30}";
type = Stem;
},
{
horizontal = 1;
place = "{670, 30}";
type = Stem;
},
{
place = "{9, 547}";
type = Stem;
}
);
layerId = "F5467FAD-1970-4982-B3D3-939C01050498";
paths = (
{
closed = 1;
nodes = (
"278 797 LINE",
"279 798 LINE",
"280 797 LINE",
"434 934 LINE",
"392 948 LINE",
"279 842.48 LINE",
"166 948 LINE",
"124 934 LINE"
);
},
{
closed = 1;
nodes = (
"531 30 LINE",
"54.45 30 LINE",
"556 670 LINE",
"556 700 LINE",
"45 700 LINE",
"45 670 LINE",
"511.44 670 LINE",
"9 30 LINE",
"9 0 LINE",
"531 0 LINE"
);
}
);
width = 555;
}
);
leftKerningGroup = Z;
note = Zcaron;
rightKerningGroup = Z;
unicode = 017D;
},
{
glyphname = a;
layers = (
{
hints = (
{
horizontal = 1;
place = "{-14, 15.99}";
type = Stem;
},
{
horizontal = 1;
place = "{493, 18}";
type = Stem;
},
{
place = "{30, 50}";
type = Stem;
},
{
place = "{423, 43.99}";
type = Stem;
}
);
layerId = "F5467FAD-1970-4982-B3D3-939C01050498";
paths = (
{
closed = 1;
nodes = (
"162 511 OFFCURVE",
"78 456 OFFCURVE",
"67 393 CURVE",
"131 392 LINE",
"143 437 OFFCURVE",
"180 493 OFFCURVE",
"265 493 CURVE SMOOTH",
"363.58 493 OFFCURVE",
"407.58 445.15 OFFCURVE",
"415.51 379.51 CURVE SMOOTH",
"415.98 375.64 OFFCURVE",
"416.21 371.89 OFFCURVE",
"416.21 368.26 CURVE SMOOTH",
"416.21 300.86 OFFCURVE",
"336.99 276.26 OFFCURVE",
"245 265 CURVE SMOOTH",
"86 246 OFFCURVE",
"30 198 OFFCURVE",
"30 123 CURVE SMOOTH",
"30 42 OFFCURVE",
"105 -14 OFFCURVE",
"224 -14 CURVE SMOOTH",
"322.77 -14 OFFCURVE",
"395.53 48.9 OFFCURVE",
"422.99 128.14 CURVE",
"422.99 0 LINE",
"466.99 0 LINE",
"466.99 310 LINE SMOOTH",
"466.99 399 OFFCURVE",
"448.99 511 OFFCURVE",
"265 511 CURVE SMOOTH"
);
},
{
closed = 1;
nodes = (
"109 2 OFFCURVE",
"80 78 OFFCURVE",
"80 129 CURVE SMOOTH",
"80 194 OFFCURVE",
"127 233 OFFCURVE",
"242 248 CURVE SMOOTH",
"324.83 258.62 OFFCURVE",
"391.12 280.76 OFFCURVE",
"422.77 319.76 CURVE",
"423 198.99 LINE SMOOTH",
"423 106.99 OFFCURVE",
"351 1.99 OFFCURVE",
"224 1.99 CURVE SMOOTH"
);
}
);
width = 517;
}
);
leftKerningGroup = a;
note = a;
rightKerningGroup = a;
unicode = 0061;
},
{
glyphname = aacute;
layers = (
{
hints = (
{
horizontal = 1;
place = "{-14, 15.99}";
type = Stem;
},
{
horizontal = 1;
place = "{493, 18}";
type = Stem;
},
{
place = "{30, 49.99}";
type = Stem;
},
{
place = "{422.99, 44}";
type = Stem;
}
);
layerId = "F5467FAD-1970-4982-B3D3-939C01050498";
paths = (
{
closed = 1;
nodes = (
"196 603 LINE",
"213 598 LINE",
"339 677 LINE",
"316 716 LINE"
);
},
{
closed = 1;
nodes = (
"162 511 OFFCURVE",
"78 456 OFFCURVE",
"67 393 CURVE",
"131 392 LINE",
"143 437 OFFCURVE",
"180 493 OFFCURVE",
"265 493 CURVE SMOOTH",
"363.58 493 OFFCURVE",
"407.58 445.15 OFFCURVE",
"415.51 379.51 CURVE SMOOTH",
"415.98 375.64 OFFCURVE",
"416.21 371.89 OFFCURVE",
"416.21 368.26 CURVE SMOOTH",
"416.21 300.86 OFFCURVE",
"336.99 276.26 OFFCURVE",
"245 265 CURVE SMOOTH",
"86 246 OFFCURVE",
"30 198 OFFCURVE",
"30 123 CURVE SMOOTH",
"30 42 OFFCURVE",
"105 -14 OFFCURVE",
"224 -14 CURVE SMOOTH",
"322.77 -14 OFFCURVE",
"395.53 48.9 OFFCURVE",
"422.99 128.14 CURVE",
"422.99 0 LINE",
"466.99 0 LINE",
"466.99 310 LINE SMOOTH",
"466.99 399 OFFCURVE",
"448.99 511 OFFCURVE",
"265 511 CURVE SMOOTH"
);
},
{
closed = 1;
nodes = (
"108.99 2 OFFCURVE",
"79.99 78 OFFCURVE",
"79.99 129 CURVE SMOOTH",
"79.99 194 OFFCURVE",
"126.99 233 OFFCURVE",
"241.99 248 CURVE SMOOTH",
"324.82 258.62 OFFCURVE",
"391.11 280.76 OFFCURVE",
"422.77 319.76 CURVE",
"422.99 198.99 LINE SMOOTH",
"422.99 106.99 OFFCURVE",
"350.99 1.99 OFFCURVE",
"223.99 1.99 CURVE SMOOTH"
);
}
);
width = 517;
}
);
leftKerningGroup = a;
note = aacute;
rightKerningGroup = aacute;
unicode = 00E1;
},
{
glyphname = acircumflex;
layers = (
{
hints = (
{
horizontal = 1;
place = "{-14, 15.99}";
type = Stem;
},
{
horizontal = 1;
place = "{493, 18}";
type = Stem;
},
{
place = "{30, 49.99}";
type = Stem;
},
{
place = "{422.99, 44}";
type = Stem;
}
);
layerId = "F5467FAD-1970-4982-B3D3-939C01050498";
paths = (
{
closed = 1;
nodes = (
"146 596 LINE",
"259 701.52 LINE",
"372 596 LINE",
"414 610 LINE",
"260 747 LINE",
"259 746 LINE",
"258 747 LINE",
"104 610 LINE"
);
},
{
closed = 1;
nodes = (
"162 511 OFFCURVE",
"78 456 OFFCURVE",
"67 393 CURVE",
"131 392 LINE",
"143 437 OFFCURVE",
"180 493 OFFCURVE",
"265 493 CURVE SMOOTH",
"363.58 493 OFFCURVE",
"407.58 445.15 OFFCURVE",
"415.51 379.51 CURVE SMOOTH",
"415.98 375.64 OFFCURVE",
"416.21 371.89 OFFCURVE",
"416.21 368.26 CURVE SMOOTH",
"416.21 300.86 OFFCURVE",
"336.99 276.26 OFFCURVE",
"245 265 CURVE SMOOTH",
"86 246 OFFCURVE",
"30 198 OFFCURVE",
"30 123 CURVE SMOOTH",
"30 42 OFFCURVE",
"105 -14 OFFCURVE",
"224 -14 CURVE SMOOTH",
"322.77 -14 OFFCURVE",
"395.53 48.9 OFFCURVE",
"422.99 128.14 CURVE",
"422.99 0 LINE",
"466.99 0 LINE",
"466.99 310 LINE SMOOTH",
"466.99 399 OFFCURVE",
"448.99 511 OFFCURVE",
"265 511 CURVE SMOOTH"
);
},
{
closed = 1;
nodes = (
"108.99 2 OFFCURVE",
"79.99 78 OFFCURVE",
"79.99 129 CURVE SMOOTH",
"79.99 194 OFFCURVE",
"126.99 233 OFFCURVE",
"241.99 248 CURVE SMOOTH",
"324.82 258.62 OFFCURVE",
"391.11 280.76 OFFCURVE",
"422.77 319.76 CURVE",
"422.99 198.99 LINE SMOOTH",
"422.99 106.99 OFFCURVE",
"350.99 1.99 OFFCURVE",
"223.99 1.99 CURVE SMOOTH"
);
}
);
width = 517;
}
);
leftKerningGroup = a;
note = acircumflex;
rightKerningGroup = aacute;
unicode = 00E2;
},
{
glyphname = adieresis;
layers = (
{
hints = (
{
horizontal = 1;
place = "{-14, 15.99}";
type = Stem;
},
{
horizontal = 1;
place = "{493, 18}";
type = Stem;
},
{
horizontal = 1;
place = "{616, 42}";
type = Stem;
},
{
place = "{30, 49.99}";
type = Stem;
},
{
place = "{113, 42}";
type = Stem;
},
{
place = "{422.99, 44}";
type = Stem;
},
{
place = "{361, 42}";
type = Stem;
}
);
layerId = "F5467FAD-1970-4982-B3D3-939C01050498";
paths = (
{
closed = 1;
nodes = (
"155 658 LINE",
"113 658 LINE",
"113 616 LINE",
"155 616 LINE"
);
},
{
closed = 1;
nodes = (
"403 658 LINE",
"361 658 LINE",
"361 616 LINE",
"403 616 LINE"
);
},
{
closed = 1;
nodes = (
"162 511 OFFCURVE",
"78 456 OFFCURVE",
"67 393 CURVE",
"131 392 LINE",
"143 437 OFFCURVE",
"180 493 OFFCURVE",
"265 493 CURVE SMOOTH",
"363.58 493 OFFCURVE",
"407.58 445.15 OFFCURVE",
"415.51 379.51 CURVE SMOOTH",
"415.98 375.64 OFFCURVE",
"416.21 371.89 OFFCURVE",
"416.21 368.26 CURVE SMOOTH",
"416.21 300.86 OFFCURVE",
"336.99 276.26 OFFCURVE",
"245 265 CURVE SMOOTH",
"86 246 OFFCURVE",
"30 198 OFFCURVE",
"30 123 CURVE SMOOTH",
"30 42 OFFCURVE",
"105 -14 OFFCURVE",
"224 -14 CURVE SMOOTH",
"322.77 -14 OFFCURVE",
"395.53 48.9 OFFCURVE",
"422.99 128.14 CURVE",
"422.99 0 LINE",
"466.99 0 LINE",
"466.99 310 LINE SMOOTH",
"466.99 399 OFFCURVE",
"448.99 511 OFFCURVE",
"265 511 CURVE SMOOTH"
);
},
{
closed = 1;
nodes = (
"108.99 2 OFFCURVE",
"79.99 78 OFFCURVE",
"79.99 129 CURVE SMOOTH",
"79.99 194 OFFCURVE",
"126.99 233 OFFCURVE",
"241.99 248 CURVE SMOOTH",
"324.82 258.62 OFFCURVE",
"391.11 280.76 OFFCURVE",
"422.77 319.76 CURVE",
"422.99 198.99 LINE SMOOTH",
"422.99 106.99 OFFCURVE",
"350.99 1.99 OFFCURVE",
"223.99 1.99 CURVE SMOOTH"
);
}
);
width = 517;
}
);
leftKerningGroup = a;
note = adieresis;
rightKerningGroup = aacute;
unicode = 00E4;
},
{
glyphname = agrave;
layers = (
{
hints = (
{
horizontal = 1;
place = "{-14, 15.99}";
type = Stem;
},
{
horizontal = 1;
place = "{493, 18}";
type = Stem;
},
{
place = "{30, 49.99}";
type = Stem;
},
{
place = "{422.99, 44}";
type = Stem;
}
);
layerId = "F5467FAD-1970-4982-B3D3-939C01050498";
paths = (
{
closed = 1;
nodes = (
"316 603 LINE",
"196 716 LINE",
"173 677 LINE",
"299 598 LINE"
);
},
{
closed = 1;
nodes = (
"162 511 OFFCURVE",
"78 456 OFFCURVE",
"67 393 CURVE",
"131 392 LINE",
"143 437 OFFCURVE",
"180 493 OFFCURVE",
"265 493 CURVE SMOOTH",
"363.58 493 OFFCURVE",
"407.58 445.15 OFFCURVE",
"415.51 379.51 CURVE SMOOTH",
"415.98 375.64 OFFCURVE",
"416.21 371.89 OFFCURVE",
"416.21 368.26 CURVE SMOOTH",
"416.21 300.86 OFFCURVE",
"336.99 276.26 OFFCURVE",
"245 265 CURVE SMOOTH",
"86 246 OFFCURVE",
"30 198 OFFCURVE",
"30 123 CURVE SMOOTH",
"30 42 OFFCURVE",
"105 -14 OFFCURVE",
"224 -14 CURVE SMOOTH",
"322.77 -14 OFFCURVE",
"395.53 48.9 OFFCURVE",
"422.99 128.14 CURVE",
"422.99 0 LINE",
"466.99 0 LINE",
"466.99 310 LINE SMOOTH",
"466.99 399 OFFCURVE",
"448.99 511 OFFCURVE",
"265 511 CURVE SMOOTH"
);
},
{
closed = 1;
nodes = (
"108.99 2 OFFCURVE",
"79.99 78 OFFCURVE",
"79.99 129 CURVE SMOOTH",
"79.99 194 OFFCURVE",
"126.99 233 OFFCURVE",
"241.99 248 CURVE SMOOTH",
"324.82 258.62 OFFCURVE",
"391.11 280.76 OFFCURVE",
"422.77 319.76 CURVE",
"422.99 198.99 LINE SMOOTH",
"422.99 106.99 OFFCURVE",
"350.99 1.99 OFFCURVE",
"223.99 1.99 CURVE SMOOTH"
);
}
);
width = 517;
}
);
leftKerningGroup = a;
note = agrave;
rightKerningGroup = aacute;
unicode = 00E0;
},
{
glyphname = aring;
layers = (
{
hints = (
{
horizontal = 1;
place = "{-14, 15.99}";
type = Stem;
},
{
horizontal = 1;
place = "{493, 18}";
type = Stem;
},
{
horizontal = 1;
place = "{565, 28}";
type = Stem;
},
{
horizontal = 1;
place = "{773, 28}";
type = Stem;
},
{
place = "{30, 49.99}";
type = Stem;
},
{
place = "{140, 28}";
type = Stem;
},
{
place = "{348, 28}";
type = Stem;
},
{
place = "{422.99, 44}";
type = Stem;
}
);
layerId = "F5467FAD-1970-4982-B3D3-939C01050498";
paths = (
{
closed = 1;
nodes = (
"322 565 OFFCURVE",
"376 619 OFFCURVE",
"376 683 CURVE SMOOTH",
"376 747 OFFCURVE",
"322 801 OFFCURVE",
"258 801 CURVE SMOOTH",
"194 801 OFFCURVE",
"140 747 OFFCURVE",
"140 683 CURVE SMOOTH",
"140 619 OFFCURVE",
"194 565 OFFCURVE",
"258 565 CURVE SMOOTH"
);
},
{
closed = 1;
nodes = (
"208 593 OFFCURVE",
"168 633 OFFCURVE",
"168 683 CURVE SMOOTH",
"168 733 OFFCURVE",
"208 773 OFFCURVE",
"258 773 CURVE SMOOTH",
"308 773 OFFCURVE",
"348 733 OFFCURVE",
"348 683 CURVE SMOOTH",
"348 633 OFFCURVE",
"308 593 OFFCURVE",
"258 593 CURVE SMOOTH"
);
},
{
closed = 1;
nodes = (
"162 511 OFFCURVE",
"78 456 OFFCURVE",
"67 393 CURVE",
"131 392 LINE",
"143 437 OFFCURVE",
"180 493 OFFCURVE",
"265 493 CURVE SMOOTH",
"363.58 493 OFFCURVE",
"407.58 445.15 OFFCURVE",
"415.51 379.51 CURVE SMOOTH",
"415.98 375.64 OFFCURVE",
"416.21 371.89 OFFCURVE",
"416.21 368.26 CURVE SMOOTH",
"416.21 300.86 OFFCURVE",
"336.99 276.26 OFFCURVE",
"245 265 CURVE SMOOTH",
"86 246 OFFCURVE",
"30 198 OFFCURVE",
"30 123 CURVE SMOOTH",
"30 42 OFFCURVE",
"105 -14 OFFCURVE",
"224 -14 CURVE SMOOTH",
"322.77 -14 OFFCURVE",
"395.53 48.9 OFFCURVE",
"422.99 128.14 CURVE",
"422.99 0 LINE",
"466.99 0 LINE",
"466.99 310 LINE SMOOTH",
"466.99 399 OFFCURVE",
"448.99 511 OFFCURVE",
"265 511 CURVE SMOOTH"
);
},
{
closed = 1;
nodes = (
"108.99 2 OFFCURVE",
"79.99 78 OFFCURVE",
"79.99 129 CURVE SMOOTH",
"79.99 194 OFFCURVE",
"126.99 233 OFFCURVE",
"241.99 248 CURVE SMOOTH",
"324.82 258.62 OFFCURVE",
"391.11 280.76 OFFCURVE",
"422.77 319.76 CURVE",
"422.99 198.99 LINE SMOOTH",
"422.99 106.99 OFFCURVE",
"350.99 1.99 OFFCURVE",
"223.99 1.99 CURVE SMOOTH"
);
}
);
width = 517;
}
);
leftKerningGroup = a;
note = aring;
rightKerningGroup = aacute;
unicode = 00E5;
},
{
glyphname = atilde;
layers = (
{
hints = (
{
horizontal = 1;
place = "{-14, 15.99}";
type = Stem;
},
{
horizontal = 1;
place = "{493, 18}";
type = Stem;
},
{
horizontal = 1;
place = "{603, 19}";
type = Stem;
},
{
horizontal = 1;
place = "{712, 19}";
type = Stem;
},
{
place = "{30, 49.99}";
type = Stem;
},
{
place = "{105.02, 30.81}";
type = Stem;
},
{
place = "{392.16, 30.81}";
type = Stem;
},
{
place = "{422.99, 44}";
type = Stem;
}
);
layerId = "F5467FAD-1970-4982-B3D3-939C01050498";
paths = (
{
closed = 1;
nodes = (
"350 731 LINE",
"375.58 702.22 OFFCURVE",
"392.16 665.67 OFFCURVE",
"392.16 643.06 CURVE SMOOTH",
"392.16 630.31 OFFCURVE",
"386.89 622 OFFCURVE",
"375 622 CURVE SMOOTH",
"352 622 OFFCURVE",
"325 647 OFFCURVE",
"266 688 CURVE SMOOTH",
"229 713 OFFCURVE",
"200 731 OFFCURVE",
"164 731 CURVE SMOOTH",
"128.32 731 OFFCURVE",
"105.02 703.78 OFFCURVE",
"105.02 671.2 CURVE SMOOTH",
"105.02 648.98 OFFCURVE",
"115.86 624.27 OFFCURVE",
"141 604 CURVE",
"178 603 LINE",
"152.42 631.78 OFFCURVE",
"135.83 668.33 OFFCURVE",
"135.83 690.94 CURVE SMOOTH",
"135.83 703.68 OFFCURVE",
"141.1 712 OFFCURVE",
"153 712 CURVE SMOOTH",
"176 712 OFFCURVE",
"203 687 OFFCURVE",
"262 646 CURVE SMOOTH",
"299 621 OFFCURVE",
"328 603 OFFCURVE",
"364 603 CURVE SMOOTH",
"399.67 603 OFFCURVE",
"422.97 630.22 OFFCURVE",
"422.97 662.8 CURVE SMOOTH",
"422.97 685.02 OFFCURVE",
"412.14 709.73 OFFCURVE",
"387 730 CURVE"
);
},
{
closed = 1;
nodes = (
"162 511 OFFCURVE",
"78 456 OFFCURVE",
"67 393 CURVE",
"131 392 LINE",
"143 437 OFFCURVE",
"180 493 OFFCURVE",
"265 493 CURVE SMOOTH",
"363.58 493 OFFCURVE",
"407.58 445.15 OFFCURVE",
"415.51 379.51 CURVE SMOOTH",
"415.98 375.64 OFFCURVE",
"416.21 371.89 OFFCURVE",
"416.21 368.26 CURVE SMOOTH",
"416.21 300.86 OFFCURVE",
"336.99 276.26 OFFCURVE",
"245 265 CURVE SMOOTH",
"86 246 OFFCURVE",
"30 198 OFFCURVE",
"30 123 CURVE SMOOTH",
"30 42 OFFCURVE",
"105 -14 OFFCURVE",
"224 -14 CURVE SMOOTH",
"322.77 -14 OFFCURVE",
"395.53 48.9 OFFCURVE",
"422.99 128.14 CURVE",
"422.99 0 LINE",
"466.99 0 LINE",
"466.99 310 LINE SMOOTH",
"466.99 399 OFFCURVE",
"448.99 511 OFFCURVE",
"265 511 CURVE SMOOTH"
);
},
{
closed = 1;
nodes = (
"108.99 2 OFFCURVE",
"79.99 78 OFFCURVE",
"79.99 129 CURVE SMOOTH",
"79.99 194 OFFCURVE",
"126.99 233 OFFCURVE",
"241.99 248 CURVE SMOOTH",
"324.82 258.62 OFFCURVE",
"391.11 280.76 OFFCURVE",
"422.77 319.76 CURVE",
"422.99 198.99 LINE SMOOTH",
"422.99 106.99 OFFCURVE",
"350.99 1.99 OFFCURVE",
"223.99 1.99 CURVE SMOOTH"
);
}
);
width = 517;
}
);
leftKerningGroup = a;
note = atilde;
rightKerningGroup = aacute;
unicode = 00E3;
},
{
glyphname = ae;
layers = (
{
hints = (
{
horizontal = 1;
place = "{-14, 16}";
type = Stem;
},
{
horizontal = 1;
place = "{251, 21.54}";
type = Stem;
},
{
horizontal = 1;
place = "{498, 15}";
type = Stem;
},
{
place = "{30, 50}";
type = Stem;
},
{
place = "{423, 54.03}";
type = Stem;
},
{
place = "{872.87, 47.86}";
type = Stem;
},
{
horizontal = 1;
place = "{493, 18}";
type = Stem;
}
);
layerId = "F5467FAD-1970-4982-B3D3-939C01050498";
paths = (
{
closed = 1;
nodes = (
"582.14 4 OFFCURVE",
"479.11 89.24 OFFCURVE",
"477.03 251 CURVE",
"918 251 LINE",
"919.83 265.39 OFFCURVE",
"920.73 279.35 OFFCURVE",
"920.73 292.83 CURVE SMOOTH",
"920.73 426.37 OFFCURVE",
"832.33 513 OFFCURVE",
"687 513 CURVE SMOOTH",
"590.21 513 OFFCURVE",
"503.95 470.39 OFFCURVE",
"458.31 392 CURVE",
"441.58 455.74 OFFCURVE",
"394.24 511 OFFCURVE",
"265 511 CURVE SMOOTH",
"162 511 OFFCURVE",
"78 456 OFFCURVE",
"67 393 CURVE",
"131 392 LINE",
"143 437 OFFCURVE",
"180 493 OFFCURVE",
"265 493 CURVE SMOOTH",
"363.58 493 OFFCURVE",
"407.58 445.15 OFFCURVE",
"415.51 379.52 CURVE SMOOTH",
"415.98 375.64 OFFCURVE",
"416.21 371.89 OFFCURVE",
"416.21 368.27 CURVE SMOOTH",
"416.21 300.87 OFFCURVE",
"336.99 276.27 OFFCURVE",
"245 265 CURVE SMOOTH",
"86 246 OFFCURVE",
"30 198 OFFCURVE",
"30 123 CURVE SMOOTH",
"30 42 OFFCURVE",
"105 -14 OFFCURVE",
"224 -14 CURVE SMOOTH",
"348.63 -14 OFFCURVE",
"417.54 63.35 OFFCURVE",
"439.79 152.58 CURVE",
"477.93 39.56 OFFCURVE",
"580.36 -14 OFFCURVE",
"694 -14 CURVE SMOOTH",
"797 -14 OFFCURVE",
"871 19 OFFCURVE",
"919 78 CURVE",
"878 97 LINE",
"844 48 OFFCURVE",
"796 4 OFFCURVE",
"694 4 CURVE SMOOTH"
);
},
{
closed = 1;
nodes = (
"813.06 498 OFFCURVE",
"872.87 411.93 OFFCURVE",
"872.87 327.49 CURVE SMOOTH",
"872.87 308.78 OFFCURVE",
"869.93 290.14 OFFCURVE",
"864.12 272.54 CURVE",
"477.4 272.54 LINE",
"483.68 399.64 OFFCURVE",
"562.36 498 OFFCURVE",
"687 498 CURVE SMOOTH"
);
},
{
closed = 1;
nodes = (
"109 2 OFFCURVE",
"80 78 OFFCURVE",
"80 129 CURVE SMOOTH",
"80 194 OFFCURVE",
"127 233 OFFCURVE",
"242 248 CURVE SMOOTH",
"324.83 258.62 OFFCURVE",
"391.12 280.77 OFFCURVE",
"422.77 319.76 CURVE",
"423 199 LINE SMOOTH",
"423 107 OFFCURVE",
"351 2 OFFCURVE",
"224 2 CURVE SMOOTH"
);
}
);
width = 961;
}
);
leftKerningGroup = a;
note = ae;
rightKerningGroup = ae;
unicode = 00E6;
},
{
glyphname = b;
layers = (
{
hints = (
{
horizontal = 1;
place = "{-12, 30}";
type = Stem;
},
{
horizontal = 1;
place = "{484, 29}";
type = Stem;
},
{
place = "{50.5, 44.5}";
type = Stem;
},
{
place = "{507.99, 45}";
type = Stem;
}
);
layerId = "F5467FAD-1970-4982-B3D3-939C01050498";
paths = (
{
closed = 1;
nodes = (
"182.69 513 OFFCURVE",
"112.78 425.33 OFFCURVE",
"87.69 331.79 CURVE",
"95 398 LINE",
"95 732 LINE",
"50 732 LINE",
"51 0 LINE",
"95 0 LINE",
"95 118 LINE",
"88 169.85 LINE",
"113.36 75.55 OFFCURVE",
"183.19 -12 OFFCURVE",
"303.99 -12 CURVE SMOOTH",
"455.99 -12 OFFCURVE",
"552.99 100 OFFCURVE",
"552.99 252 CURVE SMOOTH",
"552.99 403 OFFCURVE",
"455.99 513 OFFCURVE",
"303.99 513 CURVE SMOOTH"
);
},
{
closed = 1;
nodes = (
"182.99 18 OFFCURVE",
"81.99 107 OFFCURVE",
"81.99 252 CURVE SMOOTH",
"81.99 394 OFFCURVE",
"182.99 484 OFFCURVE",
"303.99 484 CURVE SMOOTH",
"426.99 484 OFFCURVE",
"507.99 379 OFFCURVE",
"507.99 252 CURVE SMOOTH",
"507.99 123 OFFCURVE",
"425.99 18 OFFCURVE",
"303.99 18 CURVE SMOOTH"
);
}
);
width = 583;
}
);
leftKerningGroup = b;
note = b;
rightKerningGroup = b;
unicode = 0062;
},
{
glyphname = c;
layers = (
{
hints = (
{
horizontal = 1;
place = "{-14, 14}";
type = Stem;
},
{
horizontal = 1;
place = "{495, 18}";
type = Stem;
},
{
place = "{30, 53}";
type = Stem;
}
);
layerId = "F5467FAD-1970-4982-B3D3-939C01050498";
paths = (
{
closed = 1;
nodes = (
"524 408 LINE",
"487 471 OFFCURVE",
"414 513 OFFCURVE",
"308 513 CURVE SMOOTH",
"146 513 OFFCURVE",
"30 420 OFFCURVE",
"30 244 CURVE SMOOTH",
"30 72 OFFCURVE",
"155 -14 OFFCURVE",
"300 -14 CURVE SMOOTH",
"413 -14 OFFCURVE",
"490 31 OFFCURVE",
"529 112 CURVE",
"489 128 LINE",
"459 68 OFFCURVE",
"405 0 OFFCURVE",
"300 0 CURVE SMOOTH",
"187 0 OFFCURVE",
"83 91 OFFCURVE",
"83 244 CURVE SMOOTH",
"83 392 OFFCURVE",
"167 495 OFFCURVE",
"308 495 CURVE SMOOTH",
"401.7 495 OFFCURVE",
"448 450 OFFCURVE",
"486 387 CURVE"
);
}
);
width = 559;
}
);
leftKerningGroup = a;
note = c;
rightKerningGroup = c;
unicode = 0063;
},
{
glyphname = ccedilla;
layers = (
{
hints = (
{
horizontal = 1;
place = "{-196, 24}";
type = Stem;
},
{
horizontal = 1;
place = "{-78, 22.43}";
type = Stem;
},
{
horizontal = 1;
place = "{-14, 14}";
type = Stem;
},
{
horizontal = 1;
place = "{495, 18}";
type = Stem;
},
{
place = "{30, 53}";
type = Stem;
},
{
place = "{351.1, 29.64}";
type = Stem;
},
{
horizontal = 1;
place = "{-61, 17}";
type = Stem;
}
);
layerId = "F5467FAD-1970-4982-B3D3-939C01050498";
paths = (
{
closed = 1;
nodes = (
"413 -14 OFFCURVE",
"490 31 OFFCURVE",
"529 112 CURVE",
"489 128 LINE",
"459 68 OFFCURVE",
"405 0 OFFCURVE",
"300 0 CURVE SMOOTH",
"187 0 OFFCURVE",
"83 91 OFFCURVE",
"83 244 CURVE SMOOTH",
"83 392 OFFCURVE",
"167 495 OFFCURVE",
"308 495 CURVE SMOOTH",
"401.7 495 OFFCURVE",
"448 450 OFFCURVE",
"486 387 CURVE",
"524 408 LINE",
"487 471 OFFCURVE",
"414 513 OFFCURVE",
"308 513 CURVE SMOOTH",
"146 513 OFFCURVE",
"30 420 OFFCURVE",
"30 244 CURVE SMOOTH",
"30 86.63 OFFCURVE",
"134.63 1.26 OFFCURVE",
"263.49 -12.13 CURVE",
"233.99 -78 LINE",
"261.99 -78 LINE",
"262.54 -76.77 LINE",
"273.56 -68.29 OFFCURVE",
"289.91 -61 OFFCURVE",
"308.99 -61 CURVE SMOOTH",
"333.49 -61 OFFCURVE",
"351.1 -79.38 OFFCURVE",
"351.1 -103.4 CURVE SMOOTH",
"351.1 -146.94 OFFCURVE",
"302.23 -172 OFFCURVE",
"263.99 -172 CURVE SMOOTH",
"247.99 -172 OFFCURVE",
"223.99 -167 OFFCURVE",
"206.99 -161 CURVE",
"206.99 -189 LINE",
"218.99 -192 OFFCURVE",
"239.99 -196 OFFCURVE",
"257.99 -196 CURVE SMOOTH",
"308.99 -196 OFFCURVE",
"366.99 -173 OFFCURVE",
"378.99 -117 CURVE SMOOTH",
"380.15 -111.81 OFFCURVE",
"380.74 -106.59 OFFCURVE",
"380.74 -101.47 CURVE SMOOTH",
"380.74 -71.1 OFFCURVE",
"359.91 -44 OFFCURVE",
"311.99 -44 CURVE SMOOTH",
"299.18 -44 OFFCURVE",
"284.87 -48.84 OFFCURVE",
"272.03 -55.57 CURVE",
"290.7 -13.88 LINE",
"293.78 -13.96 OFFCURVE",
"296.88 -14 OFFCURVE",
"299.99 -14 CURVE SMOOTH"
);
}
);
width = 559;
}
);
leftKerningGroup = a;
note = ccedilla;
rightKerningGroup = c;
unicode = 00E7;
},
{
glyphname = d;
layers = (
{
hints = (
{
horizontal = 1;
place = "{-12, 30}";
type = Stem;
},
{
horizontal = 1;
place = "{484, 29}";
type = Stem;
},
{
place = "{30, 45}";
type = Stem;
},
{
place = "{491, 44.5}";
type = Stem;
}
);
layerId = "F5467FAD-1970-4982-B3D3-939C01050498";
paths = (
{
closed = 1;
nodes = (
"491 0 LINE",
"535 0 LINE",
"536 732 LINE",
"491 732 LINE",
"491 398 LINE",
"497.22 324.29 LINE",
"473.9 420.59 OFFCURVE",
"403.54 513 OFFCURVE",
"279 513 CURVE SMOOTH",
"127 513 OFFCURVE",
"30 403 OFFCURVE",
"30 252 CURVE SMOOTH",
"30 100 OFFCURVE",
"127 -12 OFFCURVE",
"279 -12 CURVE SMOOTH",
"403.64 -12 OFFCURVE",
"474.02 81.2 OFFCURVE",
"497.28 178.86 CURVE",
"491 118 LINE"
);
},
{
closed = 1;
nodes = (
"157 18 OFFCURVE",
"75 123 OFFCURVE",
"75 252 CURVE SMOOTH",
"75 379 OFFCURVE",
"156 484 OFFCURVE",
"279 484 CURVE SMOOTH",
"400 484 OFFCURVE",
"501 394 OFFCURVE",
"501 252 CURVE SMOOTH",
"501 107 OFFCURVE",
"400 18 OFFCURVE",
"279 18 CURVE SMOOTH"
);
}
);
width = 586;
}
);
leftKerningGroup = a;
note = d;
rightKerningGroup = d;
unicode = 0064;
},
{
glyphname = eth;
layers = (
{
hints = (
{
horizontal = 1;
place = "{-34, 29.99}";
type = Stem;
},
{
horizontal = 1;
place = "{461.98, 29.01}";
type = Stem;
},
{
place = "{37.99, 47}";
type = Stem;
},
{
place = "{509.99, 43}";
type = Stem;
}
);
layerId = "F5467FAD-1970-4982-B3D3-939C01050498";
paths = (
{
closed = 1;
nodes = (
"553 509.95 OFFCURVE",
"446.01 663.6 OFFCURVE",
"268.24 745.05 CURVE",
"326.99 795.99 LINE",
"307.99 814.99 LINE",
"240.87 756.79 LINE",
"191.3 776.66 OFFCURVE",
"136.78 791.24 OFFCURVE",
"77.99 799.99 CURVE",
"77.99 763.99 LINE",
"125.46 755.24 OFFCURVE",
"168.75 743.23 OFFCURVE",
"208.02 728.3 CURVE",
"149.99 677.99 LINE",
"168.99 658.99 LINE",
"235.84 716.95 LINE",
"407.06 642.09 OFFCURVE",
"494.37 507.56 OFFCURVE",
"511.74 346.79 CURVE",
"470.17 422.43 OFFCURVE",
"390.75 490.99 OFFCURVE",
"286.99 490.99 CURVE SMOOTH",
"276.99 490.99 OFFCURVE",
"268.99 490.99 OFFCURVE",
"260.99 489.99 CURVE SMOOTH",
"121.99 474.99 OFFCURVE",
"37.99 370.99 OFFCURVE",
"37.99 235.99 CURVE SMOOTH",
"37.99 226.99 OFFCURVE",
"38.99 215.99 OFFCURVE",
"39.99 202.99 CURVE",
"55.99 60.99 OFFCURVE",
"148.99 -34.01 OFFCURVE",
"283.99 -34.01 CURVE SMOOTH",
"293.99 -34.01 OFFCURVE",
"303.99 -33.01 OFFCURVE",
"314.99 -32.01 CURVE SMOOTH",
"448.31 -17.89 OFFCURVE",
"524.73 94.46 OFFCURVE",
"540.79 195.59 CURVE",
"549.99 236.98 OFFCURVE",
"552.99 273.98 OFFCURVE",
"552.99 311.98 CURVE SMOOTH"
);
},
{
closed = 1;
nodes = (
"303.99 -4.02 OFFCURVE",
"295.99 -4.02 OFFCURVE",
"288.99 -4.02 CURVE SMOOTH",
"169.99 -4.02 OFFCURVE",
"84.99 103.98 OFFCURVE",
"84.99 240.98 CURVE SMOOTH",
"84.99 351.98 OFFCURVE",
"150.99 448.98 OFFCURVE",
"262.99 459.98 CURVE",
"272.99 461.98 OFFCURVE",
"283.99 461.98 OFFCURVE",
"289.99 461.98 CURVE SMOOTH",
"407.99 461.98 OFFCURVE",
"509.99 371.98 OFFCURVE",
"509.99 220.98 CURVE SMOOTH",
"509.99 213.97 OFFCURVE",
"509.73 207.08 OFFCURVE",
"509.21 200.32 CURVE",
"507.72 188.65 OFFCURVE",
"505.93 176.6 OFFCURVE",
"503.81 164.19 CURVE",
"482.35 69.57 OFFCURVE",
"407.23 7.08 OFFCURVE",
"313 -3.01 CURVE SMOOTH"
);
}
);
width = 573;
}
);
note = eth;
unicode = 00F0;
},
{
glyphname = e;
layers = (
{
hints = (
{
horizontal = 1;
place = "{-14, 18}";
type = Stem;
},
{
horizontal = 1;
place = "{251, 21.54}";
type = Stem;
},
{
horizontal = 1;
place = "{498, 15}";
type = Stem;
},
{
place = "{30, 53.03}";
type = Stem;
},
{
place = "{478.87, 47.86}";
type = Stem;
}
);
layerId = "F5467FAD-1970-4982-B3D3-939C01050498";
paths = (
{
closed = 1;
nodes = (
"188.14 4 OFFCURVE",
"85.11 89.24 OFFCURVE",
"83.03 251 CURVE",
"524 251 LINE",
"525.83 265.39 OFFCURVE",
"526.73 279.35 OFFCURVE",
"526.73 292.83 CURVE SMOOTH",
"526.73 426.37 OFFCURVE",
"438.33 513 OFFCURVE",
"293 513 CURVE SMOOTH",
"150 513 OFFCURVE",
"30 420 OFFCURVE",
"30 256 CURVE SMOOTH",
"30 72 OFFCURVE",
"156 -14 OFFCURVE",
"300 -14 CURVE SMOOTH",
"403 -14 OFFCURVE",
"477 19 OFFCURVE",
"525 78 CURVE",
"484 97 LINE",
"450 48 OFFCURVE",
"402 4 OFFCURVE",
"300 4 CURVE SMOOTH"
);
},
{
closed = 1;
nodes = (
"419.06 498 OFFCURVE",
"478.87 411.92 OFFCURVE",
"478.87 327.49 CURVE SMOOTH",
"478.87 308.77 OFFCURVE",
"475.93 290.14 OFFCURVE",
"470.12 272.54 CURVE",
"83.4 272.54 LINE",
"89.68 399.63 OFFCURVE",
"168.36 498 OFFCURVE",
"293 498 CURVE SMOOTH"
);
}
);
width = 567;
}
);
leftKerningGroup = a;
note = e;
rightKerningGroup = ae;
unicode = 0065;
},
{
glyphname = eacute;
layers = (
{
hints = (
{
horizontal = 1;
place = "{-14, 18}";
type = Stem;
},
{
horizontal = 1;
place = "{251, 21.54}";
type = Stem;
},
{
horizontal = 1;
place = "{498, 15}";
type = Stem;
},
{
place = "{30, 53.03}";
type = Stem;
},
{
place = "{478.87, 47.86}";
type = Stem;
}
);
layerId = "F5467FAD-1970-4982-B3D3-939C01050498";
paths = (
{
closed = 1;
nodes = (
"230 661 LINE",
"247 656 LINE",
"373 735 LINE",
"350 774 LINE"
);
},
{
closed = 1;
nodes = (
"188.14 4 OFFCURVE",
"85.11 89.24 OFFCURVE",
"83.03 251 CURVE",
"524 251 LINE",
"525.83 265.39 OFFCURVE",
"526.73 279.35 OFFCURVE",
"526.73 292.83 CURVE SMOOTH",
"526.73 426.37 OFFCURVE",
"438.33 513 OFFCURVE",
"293 513 CURVE SMOOTH",
"150 513 OFFCURVE",
"30 420 OFFCURVE",
"30 256 CURVE SMOOTH",
"30 72 OFFCURVE",
"156 -14 OFFCURVE",
"300 -14 CURVE SMOOTH",
"403 -14 OFFCURVE",
"477 19 OFFCURVE",
"525 78 CURVE",
"484 97 LINE",
"450 48 OFFCURVE",
"402 4 OFFCURVE",
"300 4 CURVE SMOOTH"
);
},
{
closed = 1;
nodes = (
"419.06 498 OFFCURVE",
"478.87 411.92 OFFCURVE",
"478.87 327.49 CURVE SMOOTH",
"478.87 308.77 OFFCURVE",
"475.93 290.14 OFFCURVE",
"470.12 272.54 CURVE",
"83.4 272.54 LINE",
"89.68 399.63 OFFCURVE",
"168.36 498 OFFCURVE",
"293 498 CURVE SMOOTH"
);
}
);
width = 567;
}
);
leftKerningGroup = a;
note = eacute;
rightKerningGroup = ae;
unicode = 00E9;
},
{
glyphname = ecircumflex;
layers = (
{
hints = (
{
horizontal = 1;
place = "{-14, 18}";
type = Stem;
},
{
horizontal = 1;
place = "{251, 21.54}";
type = Stem;
},
{
horizontal = 1;
place = "{498, 15}";
type = Stem;
},
{
place = "{30, 53.03}";
type = Stem;
},
{
place = "{478.87, 47.86}";
type = Stem;
}
);
layerId = "F5467FAD-1970-4982-B3D3-939C01050498";
paths = (
{
closed = 1;
nodes = (
"179 656 LINE",
"292 761.52 LINE",
"405 656 LINE",
"447 670 LINE",
"293 807 LINE",
"292 806 LINE",
"291 807 LINE",
"137 670 LINE"
);
},
{
closed = 1;
nodes = (
"188.14 4 OFFCURVE",
"85.11 89.24 OFFCURVE",
"83.03 251 CURVE",
"524 251 LINE",
"525.83 265.39 OFFCURVE",
"526.73 279.35 OFFCURVE",
"526.73 292.83 CURVE SMOOTH",
"526.73 426.37 OFFCURVE",
"438.33 513 OFFCURVE",
"293 513 CURVE SMOOTH",
"150 513 OFFCURVE",
"30 420 OFFCURVE",
"30 256 CURVE SMOOTH",
"30 72 OFFCURVE",
"156 -14 OFFCURVE",
"300 -14 CURVE SMOOTH",
"403 -14 OFFCURVE",
"477 19 OFFCURVE",
"525 78 CURVE",
"484 97 LINE",
"450 48 OFFCURVE",
"402 4 OFFCURVE",
"300 4 CURVE SMOOTH"
);
},
{
closed = 1;
nodes = (
"419.06 498 OFFCURVE",
"478.87 411.92 OFFCURVE",
"478.87 327.49 CURVE SMOOTH",
"478.87 308.77 OFFCURVE",
"475.93 290.14 OFFCURVE",
"470.12 272.54 CURVE",
"83.4 272.54 LINE",
"89.68 399.63 OFFCURVE",
"168.36 498 OFFCURVE",
"293 498 CURVE SMOOTH"
);
}
);
width = 567;
}
);
leftKerningGroup = a;
note = ecircumflex;
rightKerningGroup = ae;
unicode = 00EA;
},
{
glyphname = edieresis;
layers = (
{
hints = (
{
horizontal = 1;
place = "{-14, 18}";
type = Stem;
},
{
horizontal = 1;
place = "{251, 21.54}";
type = Stem;
},
{
horizontal = 1;
place = "{498, 15}";
type = Stem;
},
{
horizontal = 1;
place = "{672, 42}";
type = Stem;
},
{
place = "{30, 53.03}";
type = Stem;
},
{
place = "{146, 42}";
type = Stem;
},
{
place = "{394, 42}";
type = Stem;
},
{
place = "{478.87, 47.86}";
type = Stem;
}
);
layerId = "F5467FAD-1970-4982-B3D3-939C01050498";
paths = (
{
closed = 1;
nodes = (
"188 714 LINE",
"146 714 LINE",
"146 672 LINE",
"188 672 LINE"
);
},
{
closed = 1;
nodes = (
"436 714 LINE",
"394 714 LINE",
"394 672 LINE",
"436 672 LINE"
);
},
{
closed = 1;
nodes = (
"188.14 4 OFFCURVE",
"85.11 89.24 OFFCURVE",
"83.03 251 CURVE",
"524 251 LINE",
"525.83 265.39 OFFCURVE",
"526.73 279.35 OFFCURVE",
"526.73 292.83 CURVE SMOOTH",
"526.73 426.37 OFFCURVE",
"438.33 513 OFFCURVE",
"293 513 CURVE SMOOTH",
"150 513 OFFCURVE",
"30 420 OFFCURVE",
"30 256 CURVE SMOOTH",
"30 72 OFFCURVE",
"156 -14 OFFCURVE",
"300 -14 CURVE SMOOTH",
"403 -14 OFFCURVE",
"477 19 OFFCURVE",
"525 78 CURVE",
"484 97 LINE",
"450 48 OFFCURVE",
"402 4 OFFCURVE",
"300 4 CURVE SMOOTH"
);
},
{
closed = 1;
nodes = (
"419.06 498 OFFCURVE",
"478.87 411.92 OFFCURVE",
"478.87 327.49 CURVE SMOOTH",
"478.87 308.77 OFFCURVE",
"475.93 290.14 OFFCURVE",
"470.12 272.54 CURVE",
"83.4 272.54 LINE",
"89.68 399.63 OFFCURVE",
"168.36 498 OFFCURVE",
"293 498 CURVE SMOOTH"
);
}
);
width = 567;
}
);
leftKerningGroup = a;
note = edieresis;
rightKerningGroup = ae;
unicode = 00EB;
},
{
glyphname = egrave;
layers = (
{
hints = (
{
horizontal = 1;
place = "{-14, 18}";
type = Stem;
},
{
horizontal = 1;
place = "{251, 21.54}";
type = Stem;
},
{
horizontal = 1;
place = "{498, 15}";
type = Stem;
},
{
place = "{30, 53.03}";
type = Stem;
},
{
place = "{478.87, 47.86}";
type = Stem;
}
);
layerId = "F5467FAD-1970-4982-B3D3-939C01050498";
paths = (
{
closed = 1;
nodes = (
"348 661 LINE",
"228 774 LINE",
"205 735 LINE",
"331 656 LINE"
);
},
{
closed = 1;
nodes = (
"188.14 4 OFFCURVE",
"85.11 89.24 OFFCURVE",
"83.03 251 CURVE",
"524 251 LINE",
"525.83 265.39 OFFCURVE",
"526.73 279.35 OFFCURVE",
"526.73 292.83 CURVE SMOOTH",
"526.73 426.37 OFFCURVE",
"438.33 513 OFFCURVE",
"293 513 CURVE SMOOTH",
"150 513 OFFCURVE",
"30 420 OFFCURVE",
"30 256 CURVE SMOOTH",
"30 72 OFFCURVE",
"156 -14 OFFCURVE",
"300 -14 CURVE SMOOTH",
"403 -14 OFFCURVE",
"477 19 OFFCURVE",
"525 78 CURVE",
"484 97 LINE",
"450 48 OFFCURVE",
"402 4 OFFCURVE",
"300 4 CURVE SMOOTH"
);
},
{
closed = 1;
nodes = (
"419.06 498 OFFCURVE",
"478.87 411.92 OFFCURVE",
"478.87 327.49 CURVE SMOOTH",
"478.87 308.77 OFFCURVE",
"475.93 290.14 OFFCURVE",
"470.12 272.54 CURVE",
"83.4 272.54 LINE",
"89.68 399.63 OFFCURVE",
"168.36 498 OFFCURVE",
"293 498 CURVE SMOOTH"
);
}
);
width = 567;
}
);
leftKerningGroup = a;
note = egrave;
rightKerningGroup = ae;
unicode = 00E8;
},
{
glyphname = f;
layers = (
{
hints = (
{
horizontal = 1;
place = "{466, 35}";
type = Stem;
},
{
horizontal = 1;
place = "{728, 18}";
type = Stem;
},
{
place = "{114.5, 43.5}";
type = Stem;
},
{
place = "{58, 36}";
type = Stem;
}
);
layerId = "F5467FAD-1970-4982-B3D3-939C01050498";
paths = (
{
closed = 1;
nodes = (
"98 746 OFFCURVE",
"58 674 OFFCURVE",
"58 625 CURVE SMOOTH",
"58 570 OFFCURVE",
"94 514 OFFCURVE",
"176 501 CURVE",
"9 501 LINE",
"9 466 LINE",
"115 466 LINE",
"114 1 LINE",
"158 1 LINE",
"158 466 LINE",
"346 466 LINE",
"346 501 LINE",
"228 501 LINE",
"123 523 OFFCURVE",
"94 575 OFFCURVE",
"94 621 CURVE SMOOTH",
"94 690 OFFCURVE",
"151 728 OFFCURVE",
"214 728 CURVE SMOOTH",
"271 728 OFFCURVE",
"311 695 OFFCURVE",
"331 663 CURVE",
"375 691 LINE",
"345 719 OFFCURVE",
"282 746 OFFCURVE",
"214 746 CURVE SMOOTH"
);
}
);
width = 367;
}
);
leftKerningGroup = f;
note = f;
rightKerningGroup = f;
unicode = 0066;
},
{
glyphname = g;
layers = (
{
hints = (
{
horizontal = 1;
place = "{-259, 29}";
type = Stem;
},
{
horizontal = 1;
place = "{-14, 30}";
type = Stem;
},
{
horizontal = 1;
place = "{481, 31}";
type = Stem;
},
{
place = "{30, 44.99}";
type = Stem;
},
{
place = "{490.99, 45}";
type = Stem;
}
);
layerId = "F5467FAD-1970-4982-B3D3-939C01050498";
paths = (
{
closed = 1;
nodes = (
"535 500 LINE",
"491 500 LINE",
"491 382 LINE",
"497.28 321.14 LINE",
"474.02 418.8 OFFCURVE",
"403.64 512 OFFCURVE",
"279 512 CURVE SMOOTH",
"127 512 OFFCURVE",
"30 400 OFFCURVE",
"30 248 CURVE SMOOTH",
"30 97 OFFCURVE",
"127 -14 OFFCURVE",
"279 -14 CURVE SMOOTH",
"403.42 -14 OFFCURVE",
"473.77 78.24 OFFCURVE",
"497.15 174.95 CURVE",
"490.99 102 LINE",
"490.99 -1 LINE SMOOTH",
"490.99 -153 OFFCURVE",
"398.99 -230 OFFCURVE",
"284.99 -230 CURVE SMOOTH",
"176.99 -230 OFFCURVE",
"128.99 -177 OFFCURVE",
"103.99 -128 CURVE",
"59.99 -138 LINE",
"90.99 -207 OFFCURVE",
"156.99 -259 OFFCURVE",
"284.99 -259 CURVE SMOOTH",
"427.99 -259 OFFCURVE",
"535.99 -175 OFFCURVE",
"535.99 -1 CURVE"
);
},
{
closed = 1;
nodes = (
"155.99 16 OFFCURVE",
"74.99 121 OFFCURVE",
"74.99 248 CURVE SMOOTH",
"74.99 377 OFFCURVE",
"156.99 481 OFFCURVE",
"278.99 481 CURVE SMOOTH",
"399.99 481 OFFCURVE",
"500.99 393 OFFCURVE",
"500.99 248 CURVE SMOOTH",
"500.99 105 OFFCURVE",
"399.99 16 OFFCURVE",
"278.99 16 CURVE SMOOTH"
);
}
);
width = 586;
}
);
leftKerningGroup = a;
note = g;
rightKerningGroup = a;
unicode = 0067;
},
{
glyphname = h;
layers = (
{
hints = (
{
horizontal = 1;
place = "{481.29, 25}";
type = Stem;
},
{
place = "{50, 44}";
type = Stem;
},
{
place = "{477, 44}";
type = Stem;
}
);
layerId = "F5467FAD-1970-4982-B3D3-939C01050498";
paths = (
{
closed = 1;
nodes = (
"224.49 506.29 OFFCURVE",
"124.31 435.46 OFFCURVE",
"94 342.52 CURVE",
"94 700 LINE",
"50 700 LINE",
"50 0 LINE",
"94 0 LINE",
"94 277 LINE",
"111 420 OFFCURVE",
"218 481.29 OFFCURVE",
"307 481.29 CURVE SMOOTH",
"432 481.29 OFFCURVE",
"477 398 OFFCURVE",
"477 304 CURVE SMOOTH",
"477 1 LINE",
"521 1 LINE",
"521 304 LINE SMOOTH",
"521 409 OFFCURVE",
"482 506.29 OFFCURVE",
"320 506.29 CURVE SMOOTH"
);
}
);
width = 572;
}
);
leftKerningGroup = b;
note = h;
rightKerningGroup = a;
unicode = 0068;
},
{
glyphname = i;
layers = (
{
hints = (
{
horizontal = 1;
place = "{656, 44}";
type = Stem;
},
{
place = "{102, 44}";
type = Stem;
}
);
layerId = "F5467FAD-1970-4982-B3D3-939C01050498";
paths = (
{
closed = 1;
nodes = (
"146 700 LINE",
"102 700 LINE",
"102 656 LINE",
"146 656 LINE"
);
},
{
closed = 1;
nodes = (
"146 500 LINE",
"102 500 LINE",
"102 0 LINE",
"146 0 LINE"
);
}
);
width = 250;
}
);
leftKerningGroup = i;
note = i;
rightKerningGroup = i;
unicode = 0069;
},
{
glyphname = dotlessi;
layers = (
{
hints = (
{
horizontal = 1;
place = "{0, 500}";
type = Stem;
},
{
place = "{102, 44}";
type = Stem;
}
);
layerId = "F5467FAD-1970-4982-B3D3-939C01050498";
paths = (
{
closed = 1;
nodes = (
"146 500 LINE",
"102 500 LINE",
"102 0 LINE",
"146 0 LINE"
);
}
);
width = 248;
}
);
leftKerningGroup = i;
note = dotlessi;
rightKerningGroup = i;
unicode = 0131;
},
{
glyphname = iacute;
layers = (
{
hints = (
{
horizontal = 1;
place = "{0, 774}";
type = Stem;
},
{
place = "{102, 44}";
type = Stem;
}
);
layerId = "F5467FAD-1970-4982-B3D3-939C01050498";
paths = (
{
closed = 1;
nodes = (
"63 661 LINE",
"80 656 LINE",
"206 735 LINE",
"183 774 LINE"
);
},
{
closed = 1;
nodes = (
"146 500 LINE",
"102 500 LINE",
"102 0 LINE",
"146 0 LINE"
);
}
);
width = 248;
}
);
leftKerningGroup = i;
note = iacute;
rightKerningGroup = i;
unicode = 00ED;
},
{
glyphname = icircumflex;
layers = (
{
hints = (
{
horizontal = 1;
place = "{0, 807}";
type = Stem;
},
{
place = "{102, 44}";
type = Stem;
}
);
layerId = "F5467FAD-1970-4982-B3D3-939C01050498";
paths = (
{
closed = 1;
nodes = (
"12 656 LINE",
"125 761.52 LINE",
"238 656 LINE",
"280 670 LINE",
"126 807 LINE",
"125 806 LINE",
"124 807 LINE",
"-30 670 LINE"
);
},
{
closed = 1;
nodes = (
"146 500 LINE",
"102 500 LINE",
"102 0 LINE",
"146 0 LINE"
);
}
);
width = 248;
}
);
leftKerningGroup = i;
note = icircumflex;
rightKerningGroup = i;
unicode = 00EE;
},
{
glyphname = idieresis;
layers = (
{
hints = (
{
horizontal = 1;
place = "{672, 42}";
type = Stem;
},
{
place = "{-21, 42}";
type = Stem;
},
{
place = "{102, 44}";
type = Stem;
},
{
place = "{227, 42}";
type = Stem;
}
);
layerId = "F5467FAD-1970-4982-B3D3-939C01050498";
paths = (
{
closed = 1;
nodes = (
"21 714 LINE",
"-21 714 LINE",
"-21 672 LINE",
"21 672 LINE"
);
},
{
closed = 1;
nodes = (
"269 714 LINE",
"227 714 LINE",
"227 672 LINE",
"269 672 LINE"
);
},
{
closed = 1;
nodes = (
"146 500 LINE",
"102 500 LINE",
"102 0 LINE",
"146 0 LINE"
);
}
);
width = 248;
}
);
leftKerningGroup = i;
note = idieresis;
rightKerningGroup = i;
unicode = 00EF;
},
{
glyphname = igrave;
layers = (
{
hints = (
{
horizontal = 1;
place = "{0, 774}";
type = Stem;
},
{
place = "{102, 44}";
type = Stem;
}
);
layerId = "F5467FAD-1970-4982-B3D3-939C01050498";
paths = (
{
closed = 1;
nodes = (
"181 661 LINE",
"61 774 LINE",
"38 735 LINE",
"164 656 LINE"
);
},
{
closed = 1;
nodes = (
"146 500 LINE",
"102 500 LINE",
"102 0 LINE",
"146 0 LINE"
);
}
);
width = 248;
}
);
leftKerningGroup = i;
note = igrave;
rightKerningGroup = i;
unicode = 00EC;
},
{
glyphname = j;
layers = (
{
hints = (
{
horizontal = 1;
place = "{-260, 21}";
type = Stem;
},
{
horizontal = 1;
place = "{656, 44}";
type = Stem;
},
{
place = "{102, 44}";
type = Stem;
}
);
layerId = "F5467FAD-1970-4982-B3D3-939C01050498";
paths = (
{
closed = 1;
nodes = (
"102 700 LINE",
"102 656 LINE",
"146 656 LINE",
"146 700 LINE"
);
},
{
closed = 1;
nodes = (
"146 500 LINE",
"102 500 LINE",
"102 -70 LINE SMOOTH",
"102 -137 OFFCURVE",
"76 -239 OFFCURVE",
"-37 -239 CURVE SMOOTH",
"-89 -239 OFFCURVE",
"-130 -210 OFFCURVE",
"-156 -181 CURVE",
"-187 -203 LINE",
"-158 -232 OFFCURVE",
"-114 -260 OFFCURVE",
"-37 -260 CURVE SMOOTH",
"122 -260 OFFCURVE",
"146 -135 OFFCURVE",
"146 -70 CURVE SMOOTH"
);
}
);
width = 248;
}
);
leftKerningGroup = j;
note = j;
rightKerningGroup = j;
unicode = 006A;
},
{
glyphname = k;
layers = (
{
hints = (
{
horizontal = 1;
place = "{0, 700}";
type = Stem;
},
{
place = "{50, 44}";
type = Stem;
}
);
layerId = "F5467FAD-1970-4982-B3D3-939C01050498";
paths = (
{
closed = 1;
nodes = (
"94 0 LINE",
"94 180.21 LINE",
"225.05 315.83 LINE",
"434 0 LINE",
"486 0 LINE",
"256.43 348.31 LINE",
"403 500 LINE",
"358 500 LINE",
"94 219.09 LINE",
"94 700 LINE",
"50 700 LINE",
"50 0 LINE"
);
}
);
width = 516;
}
);
leftKerningGroup = b;
note = k;
rightKerningGroup = k;
unicode = 006B;
},
{
glyphname = l;
layers = (
{
hints = (
{
horizontal = 1;
place = "{0, 700}";
type = Stem;
},
{
place = "{50, 44}";
type = Stem;
}
);
layerId = "F5467FAD-1970-4982-B3D3-939C01050498";
paths = (
{
closed = 1;
nodes = (
"94 700 LINE",
"50 700 LINE",
"50 0 LINE",
"94 0 LINE"
);
}
);
width = 144;
}
);
leftKerningGroup = b;
note = l;
rightKerningGroup = l;
unicode = 006C;
},
{
glyphname = lslash;
layers = (
{
hints = (
{
horizontal = 1;
place = "{0, 700}";
type = Stem;
},
{
place = "{163, 44}";
type = Stem;
}
);
layerId = "F5467FAD-1970-4982-B3D3-939C01050498";
paths = (
{
closed = 1;
nodes = (
"207 381.2 LINE",
"388 433 LINE",
"388 470 LINE",
"207 418.2 LINE",
"207 700 LINE",
"163 700 LINE",
"163 405.61 LINE",
"84 383 LINE",
"84 346 LINE",
"163 368.61 LINE",
"163 0 LINE",
"207 0 LINE"
);
}
);
width = 472;
}
);
note = lslash;
unicode = 0142;
},
{
glyphname = m;
layers = (
{
hints = (
{
horizontal = 1;
place = "{481, 29}";
type = Stem;
},
{
place = "{50, 44}";
type = Stem;
},
{
place = "{470, 44}";
type = Stem;
},
{
place = "{895, 44}";
type = Stem;
}
);
layerId = "F5467FAD-1970-4982-B3D3-939C01050498";
paths = (
{
closed = 1;
nodes = (
"630.62 510 OFFCURVE",
"538.02 432.58 OFFCURVE",
"512.74 335.02 CURVE",
"504.89 428.04 OFFCURVE",
"458.23 510 OFFCURVE",
"315 510 CURVE SMOOTH",
"219.77 510 OFFCURVE",
"127.55 444.67 OFFCURVE",
"94 357.63 CURVE",
"94 500 LINE",
"50 500 LINE",
"50 0 LINE",
"94 0 LINE",
"94 284.62 LINE",
"113.76 422.17 OFFCURVE",
"216.56 481 OFFCURVE",
"302 481 CURVE SMOOTH",
"427 481 OFFCURVE",
"470 397 OFFCURVE",
"470 304 CURVE SMOOTH",
"470 0 LINE",
"514 0 LINE",
"514 284.61 LINE",
"533.83 422.17 OFFCURVE",
"638.6 481 OFFCURVE",
"726 481 CURVE SMOOTH",
"851 481 OFFCURVE",
"895 398 OFFCURVE",
"895 304 CURVE SMOOTH",
"895 0 LINE",
"939 0 LINE",
"939 304 LINE SMOOTH",
"939 409 OFFCURVE",
"900 510 OFFCURVE",
"738 510 CURVE SMOOTH"
);
}
);
width = 976;
}
);
leftKerningGroup = m;
note = m;
rightKerningGroup = a;
unicode = 006D;
},
{
glyphname = n;
layers = (
{
hints = (
{
horizontal = 1;
place = "{482, 25}";
type = Stem;
},
{
place = "{50, 44}";
type = Stem;
},
{
place = "{477, 44}";
type = Stem;
}
);
layerId = "F5467FAD-1970-4982-B3D3-939C01050498";
paths = (
{
closed = 1;
nodes = (
"224.49 507 OFFCURVE",
"124.31 435.69 OFFCURVE",
"94 342.59 CURVE",
"94 500 LINE",
"50 500 LINE",
"50 1 LINE",
"94 1 LINE",
"94 277 LINE",
"111 420 OFFCURVE",
"218 482 OFFCURVE",
"307 482 CURVE SMOOTH",
"432 482 OFFCURVE",
"477 398 OFFCURVE",
"477 304 CURVE SMOOTH",
"477 1 LINE",
"521 1 LINE",
"521 304 LINE SMOOTH",
"521 409 OFFCURVE",
"482 507 OFFCURVE",
"320 507 CURVE SMOOTH"
);
}
);
width = 571;
}
);
leftKerningGroup = m;
note = n;
rightKerningGroup = a;
unicode = 006E;
},
{
glyphname = ntilde;
layers = (
{
hints = (
{
horizontal = 1;
place = "{482, 25}";
type = Stem;
},
{
horizontal = 1;
place = "{662, 19}";
type = Stem;
},
{
horizontal = 1;
place = "{771, 19}";
type = Stem;
},
{
place = "{50, 44}";
type = Stem;
},
{
place = "{400.16, 30.81}";
type = Stem;
},
{
place = "{477, 44}";
type = Stem;
},
{
place = "{113.02, 30.81}";
type = Stem;
}
);
layerId = "F5467FAD-1970-4982-B3D3-939C01050498";
paths = (
{
closed = 1;
nodes = (
"358 790 LINE",
"383.58 761.22 OFFCURVE",
"400.16 724.67 OFFCURVE",
"400.16 702.06 CURVE SMOOTH",
"400.16 689.31 OFFCURVE",
"394.89 681 OFFCURVE",
"383 681 CURVE SMOOTH",
"360 681 OFFCURVE",
"333 706 OFFCURVE",
"274 747 CURVE SMOOTH",
"237 772 OFFCURVE",
"208 790 OFFCURVE",
"172 790 CURVE SMOOTH",
"136.32 790 OFFCURVE",
"113.02 762.78 OFFCURVE",
"113.02 730.2 CURVE SMOOTH",
"113.02 707.98 OFFCURVE",
"123.86 683.27 OFFCURVE",
"149 663 CURVE",
"186 662 LINE",
"160.42 690.78 OFFCURVE",
"143.83 727.33 OFFCURVE",
"143.83 749.94 CURVE SMOOTH",
"143.83 762.68 OFFCURVE",
"149.1 771 OFFCURVE",
"161 771 CURVE SMOOTH",
"184 771 OFFCURVE",
"211 746 OFFCURVE",
"270 705 CURVE SMOOTH",
"307 680 OFFCURVE",
"336 662 OFFCURVE",
"372 662 CURVE SMOOTH",
"407.67 662 OFFCURVE",
"430.97 689.22 OFFCURVE",
"430.97 721.8 CURVE SMOOTH",
"430.97 744.02 OFFCURVE",
"420.14 768.73 OFFCURVE",
"395 789 CURVE"
);
},
{
closed = 1;
nodes = (
"224.49 507 OFFCURVE",
"124.31 435.69 OFFCURVE",
"94 342.59 CURVE",
"94 500 LINE",
"50 500 LINE",
"50 1 LINE",
"94 1 LINE",
"94 277 LINE",
"111 420 OFFCURVE",
"218 482 OFFCURVE",
"307 482 CURVE SMOOTH",
"432 482 OFFCURVE",
"477 398 OFFCURVE",
"477 304 CURVE SMOOTH",
"477 1 LINE",
"521 1 LINE",
"521 304 LINE SMOOTH",
"521 409 OFFCURVE",
"482 507 OFFCURVE",
"320 507 CURVE SMOOTH"
);
}
);
width = 571;
}
);
leftKerningGroup = m;
note = ntilde;
rightKerningGroup = a;
unicode = 00F1;
},
{
glyphname = o;
layers = (
{
hints = (
{
horizontal = 1;
place = "{-14, 12}";
type = Stem;
},
{
horizontal = 1;
place = "{498, 14}";
type = Stem;
},
{
place = "{30, 50.6}";
type = Stem;
},
{
place = "{496.5, 50.6}";
type = Stem;
}
);
layerId = "F5467FAD-1970-4982-B3D3-939C01050498";
paths = (
{
closed = 1;
nodes = (
"443.05 -14 OFFCURVE",
"547.1 98 OFFCURVE",
"547.1 247 CURVE SMOOTH",
"547.1 397 OFFCURVE",
"442 512 OFFCURVE",
"288.55 512 CURVE SMOOTH",
"135.1 512 OFFCURVE",
"30 397 OFFCURVE",
"30 247 CURVE SMOOTH",
"30 98 OFFCURVE",
"134.05 -14 OFFCURVE",
"288.55 -14 CURVE SMOOTH"
);
},
{
closed = 1;
nodes = (
"160.33 -2 OFFCURVE",
"80.6 113 OFFCURVE",
"80.6 247 CURVE SMOOTH",
"80.6 382 OFFCURVE",
"160.33 498 OFFCURVE",
"288.55 498 CURVE SMOOTH",
"416.78 498 OFFCURVE",
"496.5 382 OFFCURVE",
"496.5 247 CURVE SMOOTH",
"496.5 113 OFFCURVE",
"416.78 -2 OFFCURVE",
"288.55 -2 CURVE SMOOTH"
);
}
);
width = 577;
}
);
leftKerningGroup = a;
note = o;
rightKerningGroup = o;
unicode = 006F;
},
{
glyphname = oacute;
layers = (
{
hints = (
{
horizontal = 1;
place = "{-14, 12}";
type = Stem;
},
{
horizontal = 1;
place = "{498, 14}";
type = Stem;
},
{
place = "{30, 50.6}";
type = Stem;
},
{
place = "{496.5, 50.6}";
type = Stem;
}
);
layerId = "F5467FAD-1970-4982-B3D3-939C01050498";
paths = (
{
closed = 1;
nodes = (
"215 661 LINE",
"232 656 LINE",
"358 735 LINE",
"335 774 LINE"
);
},
{
closed = 1;
nodes = (
"443.05 -14 OFFCURVE",
"547.1 98 OFFCURVE",
"547.1 247 CURVE SMOOTH",
"547.1 397 OFFCURVE",
"442 512 OFFCURVE",
"288.55 512 CURVE SMOOTH",
"135.1 512 OFFCURVE",
"30 397 OFFCURVE",
"30 247 CURVE SMOOTH",
"30 98 OFFCURVE",
"134.05 -14 OFFCURVE",
"288.55 -14 CURVE SMOOTH"
);
},
{
closed = 1;
nodes = (
"160.33 -2 OFFCURVE",
"80.6 113 OFFCURVE",
"80.6 247 CURVE SMOOTH",
"80.6 382 OFFCURVE",
"160.33 498 OFFCURVE",
"288.55 498 CURVE SMOOTH",
"416.78 498 OFFCURVE",
"496.5 382 OFFCURVE",
"496.5 247 CURVE SMOOTH",
"496.5 113 OFFCURVE",
"416.78 -2 OFFCURVE",
"288.55 -2 CURVE SMOOTH"
);
}
);
width = 577;
}
);
leftKerningGroup = a;
note = oacute;
rightKerningGroup = o;
unicode = 00F3;
},
{
glyphname = ocircumflex;
layers = (
{
hints = (
{
horizontal = 1;
place = "{-14, 12}";
type = Stem;
},
{
horizontal = 1;
place = "{498, 14}";
type = Stem;
},
{
place = "{30, 50.6}";
type = Stem;
},
{
place = "{496.5, 50.6}";
type = Stem;
}
);
layerId = "F5467FAD-1970-4982-B3D3-939C01050498";
paths = (
{
closed = 1;
nodes = (
"164 656 LINE",
"277 761.52 LINE",
"390 656 LINE",
"432 670 LINE",
"278 807 LINE",
"277 806 LINE",
"276 807 LINE",
"122 670 LINE"
);
},
{
closed = 1;
nodes = (
"443.05 -14 OFFCURVE",
"547.1 98 OFFCURVE",
"547.1 247 CURVE SMOOTH",
"547.1 397 OFFCURVE",
"442 512 OFFCURVE",
"288.55 512 CURVE SMOOTH",
"135.1 512 OFFCURVE",
"30 397 OFFCURVE",
"30 247 CURVE SMOOTH",
"30 98 OFFCURVE",
"134.05 -14 OFFCURVE",
"288.55 -14 CURVE SMOOTH"
);
},
{
closed = 1;
nodes = (
"160.33 -2 OFFCURVE",
"80.6 113 OFFCURVE",
"80.6 247 CURVE SMOOTH",
"80.6 382 OFFCURVE",
"160.33 498 OFFCURVE",
"288.55 498 CURVE SMOOTH",
"416.78 498 OFFCURVE",
"496.5 382 OFFCURVE",
"496.5 247 CURVE SMOOTH",
"496.5 113 OFFCURVE",
"416.78 -2 OFFCURVE",
"288.55 -2 CURVE SMOOTH"
);
}
);
width = 577;
}
);
leftKerningGroup = a;
note = ocircumflex;
rightKerningGroup = o;
unicode = 00F4;
},
{
glyphname = odieresis;
layers = (
{
hints = (
{
horizontal = 1;
place = "{-14, 12}";
type = Stem;
},
{
horizontal = 1;
place = "{498, 14}";
type = Stem;
},
{
horizontal = 1;
place = "{672, 42}";
type = Stem;
},
{
place = "{30, 50.6}";
type = Stem;
},
{
place = "{131, 42}";
type = Stem;
},
{
place = "{379, 42}";
type = Stem;
},
{
place = "{496.5, 50.6}";
type = Stem;
}
);
layerId = "F5467FAD-1970-4982-B3D3-939C01050498";
paths = (
{
closed = 1;
nodes = (
"173 714 LINE",
"131 714 LINE",
"131 672 LINE",
"173 672 LINE"
);
},
{
closed = 1;
nodes = (
"421 714 LINE",
"379 714 LINE",
"379 672 LINE",
"421 672 LINE"
);
},
{
closed = 1;
nodes = (
"443.05 -14 OFFCURVE",
"547.1 98 OFFCURVE",
"547.1 247 CURVE SMOOTH",
"547.1 397 OFFCURVE",
"442 512 OFFCURVE",
"288.55 512 CURVE SMOOTH",
"135.1 512 OFFCURVE",
"30 397 OFFCURVE",
"30 247 CURVE SMOOTH",
"30 98 OFFCURVE",
"134.05 -14 OFFCURVE",
"288.55 -14 CURVE SMOOTH"
);
},
{
closed = 1;
nodes = (
"160.33 -2 OFFCURVE",
"80.6 113 OFFCURVE",
"80.6 247 CURVE SMOOTH",
"80.6 382 OFFCURVE",
"160.33 498 OFFCURVE",
"288.55 498 CURVE SMOOTH",
"416.78 498 OFFCURVE",
"496.5 382 OFFCURVE",
"496.5 247 CURVE SMOOTH",
"496.5 113 OFFCURVE",
"416.78 -2 OFFCURVE",
"288.55 -2 CURVE SMOOTH"
);
}
);
width = 577;
}
);
leftKerningGroup = a;
note = odieresis;
rightKerningGroup = o;
unicode = 00F6;
},
{
glyphname = ograve;
layers = (
{
hints = (
{
horizontal = 1;
place = "{-14, 12}";
type = Stem;
},
{
horizontal = 1;
place = "{498, 14}";
type = Stem;
},
{
place = "{30, 50.6}";
type = Stem;
},
{
place = "{496.5, 50.6}";
type = Stem;
}
);
layerId = "F5467FAD-1970-4982-B3D3-939C01050498";
paths = (
{
closed = 1;
nodes = (
"333 661 LINE",
"213 774 LINE",
"190 735 LINE",
"316 656 LINE"
);
},
{
closed = 1;
nodes = (
"443.05 -14 OFFCURVE",
"547.1 98 OFFCURVE",
"547.1 247 CURVE SMOOTH",
"547.1 397 OFFCURVE",
"442 512 OFFCURVE",
"288.55 512 CURVE SMOOTH",
"135.1 512 OFFCURVE",
"30 397 OFFCURVE",
"30 247 CURVE SMOOTH",
"30 98 OFFCURVE",
"134.05 -14 OFFCURVE",
"288.55 -14 CURVE SMOOTH"
);
},
{
closed = 1;
nodes = (
"160.33 -2 OFFCURVE",
"80.6 113 OFFCURVE",
"80.6 247 CURVE SMOOTH",
"80.6 382 OFFCURVE",
"160.33 498 OFFCURVE",
"288.55 498 CURVE SMOOTH",
"416.78 498 OFFCURVE",
"496.5 382 OFFCURVE",
"496.5 247 CURVE SMOOTH",
"496.5 113 OFFCURVE",
"416.78 -2 OFFCURVE",
"288.55 -2 CURVE SMOOTH"
);
}
);
width = 577;
}
);
leftKerningGroup = a;
note = ograve;
rightKerningGroup = o;
unicode = 00F2;
},
{
glyphname = oslash;
layers = (
{
hints = (
{
horizontal = 1;
place = "{-14.01, 11.99}";
type = Stem;
},
{
horizontal = 1;
place = "{497.99, 14}";
type = Stem;
},
{
place = "{30, 50.6}";
type = Stem;
},
{
place = "{496.5, 50.59}";
type = Stem;
}
);
layerId = "F5467FAD-1970-4982-B3D3-939C01050498";
paths = (
{
closed = 1;
nodes = (
"419 695 LINE",
"384 695 LINE",
"329.06 509.22 LINE",
"315.98 511.05 OFFCURVE",
"302.46 511.99 OFFCURVE",
"288.54 511.99 CURVE SMOOTH",
"135.1 511.99 OFFCURVE",
"30 396.99 OFFCURVE",
"30 246.99 CURVE SMOOTH",
"30 136.21 OFFCURVE",
"87.51 45.89 OFFCURVE",
"180.51 6.84 CURVE",
"130 -164.01 LINE",
"165 -164.01 LINE",
"212.28 -4.1 LINE",
"235.96 -10.57 OFFCURVE",
"261.48 -14.01 OFFCURVE",
"288.54 -14.01 CURVE SMOOTH",
"443.04 -14.01 OFFCURVE",
"547.09 97.99 OFFCURVE",
"547.09 246.99 CURVE SMOOTH",
"547.09 371.59 OFFCURVE",
"474.58 472.03 OFFCURVE",
"362.07 502.48 CURVE"
);
},
{
closed = 1;
nodes = (
"80.6 381.99 OFFCURVE",
"160.32 497.99 OFFCURVE",
"288.55 497.99 CURVE SMOOTH",
"301.1 497.99 OFFCURVE",
"313.19 496.88 OFFCURVE",
"324.79 494.74 CURVE",
"186.44 26.85 LINE",
"119.42 69.24 OFFCURVE",
"80.6 153.49 OFFCURVE",
"80.6 246.99 CURVE SMOOTH"
);
},
{
closed = 1;
nodes = (
"262.57 -2.01 OFFCURVE",
"238.59 2.71 OFFCURVE",
"216.85 11.35 CURVE",
"357.12 485.73 LINE",
"444.57 452.52 OFFCURVE",
"496.5 355.94 OFFCURVE",
"496.5 246.98 CURVE SMOOTH",
"496.5 112.98 OFFCURVE",
"416.77 -2.02 OFFCURVE",
"288.55 -2.02 CURVE SMOOTH"
);
}
);
width = 577;
}
);
note = oslash;
unicode = 00F8;
},
{
glyphname = otilde;
layers = (
{
hints = (
{
horizontal = 1;
place = "{-14, 12}";
type = Stem;
},
{
horizontal = 1;
place = "{498, 14}";
type = Stem;
},
{
horizontal = 1;
place = "{663, 19}";
type = Stem;
},
{
horizontal = 1;
place = "{772, 19}";
type = Stem;
},
{
place = "{30, 50.6}";
type = Stem;
},
{
place = "{389.16, 30.81}";
type = Stem;
},
{
place = "{496.5, 50.6}";
type = Stem;
},
{
place = "{102.02, 30.81}";
type = Stem;
}
);
layerId = "F5467FAD-1970-4982-B3D3-939C01050498";
paths = (
{
closed = 1;
nodes = (
"347 791 LINE",
"372.58 762.22 OFFCURVE",
"389.16 725.67 OFFCURVE",
"389.16 703.06 CURVE SMOOTH",
"389.16 690.31 OFFCURVE",
"383.89 682 OFFCURVE",
"372 682 CURVE SMOOTH",
"349 682 OFFCURVE",
"322 707 OFFCURVE",
"263 748 CURVE SMOOTH",
"226 773 OFFCURVE",
"197 791 OFFCURVE",
"161 791 CURVE SMOOTH",
"125.32 791 OFFCURVE",
"102.02 763.78 OFFCURVE",
"102.02 731.2 CURVE SMOOTH",
"102.02 708.98 OFFCURVE",
"112.86 684.27 OFFCURVE",
"138 664 CURVE",
"175 663 LINE",
"149.42 691.78 OFFCURVE",
"132.83 728.33 OFFCURVE",
"132.83 750.94 CURVE SMOOTH",
"132.83 763.68 OFFCURVE",
"138.1 772 OFFCURVE",
"150 772 CURVE SMOOTH",
"173 772 OFFCURVE",
"200 747 OFFCURVE",
"259 706 CURVE SMOOTH",
"296 681 OFFCURVE",
"325 663 OFFCURVE",
"361 663 CURVE SMOOTH",
"396.67 663 OFFCURVE",
"419.97 690.22 OFFCURVE",
"419.97 722.8 CURVE SMOOTH",
"419.97 745.02 OFFCURVE",
"409.14 769.73 OFFCURVE",
"384 790 CURVE"
);
},
{
closed = 1;
nodes = (
"443.05 -14 OFFCURVE",
"547.1 98 OFFCURVE",
"547.1 247 CURVE SMOOTH",
"547.1 397 OFFCURVE",
"442 512 OFFCURVE",
"288.55 512 CURVE SMOOTH",
"135.1 512 OFFCURVE",
"30 397 OFFCURVE",
"30 247 CURVE SMOOTH",
"30 98 OFFCURVE",
"134.05 -14 OFFCURVE",
"288.55 -14 CURVE SMOOTH"
);
},
{
closed = 1;
nodes = (
"160.33 -2 OFFCURVE",
"80.6 113 OFFCURVE",
"80.6 247 CURVE SMOOTH",
"80.6 382 OFFCURVE",
"160.33 498 OFFCURVE",
"288.55 498 CURVE SMOOTH",
"416.78 498 OFFCURVE",
"496.5 382 OFFCURVE",
"496.5 247 CURVE SMOOTH",
"496.5 113 OFFCURVE",
"416.78 -2 OFFCURVE",
"288.55 -2 CURVE SMOOTH"
);
}
);
width = 577;
}
);
leftKerningGroup = a;
note = otilde;
unicode = 00F5;
},
{
glyphname = oe;
layers = (
{
hints = (
{
horizontal = 1;
place = "{-14, 18}";
type = Stem;
},
{
horizontal = 1;
place = "{251, 21.53}";
type = Stem;
},
{
horizontal = 1;
place = "{498, 14}";
type = Stem;
},
{
place = "{30, 50.6}";
type = Stem;
},
{
place = "{495.53, 51.56}";
type = Stem;
},
{
place = "{942.87, 47.86}";
type = Stem;
},
{
horizontal = 1;
place = "{-14, 11.99}";
type = Stem;
}
);
layerId = "F5467FAD-1970-4982-B3D3-939C01050498";
paths = (
{
closed = 1;
nodes = (
"652.99 4 OFFCURVE",
"550.66 87.96 OFFCURVE",
"547.09 247.34 CURVE",
"547.09 248.56 OFFCURVE",
"547.08 249.78 OFFCURVE",
"547.06 251 CURVE",
"987.99 251 LINE",
"989.83 265.39 OFFCURVE",
"990.73 279.35 OFFCURVE",
"990.73 292.83 CURVE SMOOTH",
"990.73 426.37 OFFCURVE",
"902.32 513 OFFCURVE",
"756.99 513 CURVE SMOOTH",
"652.89 513 OFFCURVE",
"560.98 463.71 OFFCURVE",
"518.68 373.63 CURVE",
"477.55 457.07 OFFCURVE",
"394.59 512 OFFCURVE",
"288.54 512 CURVE SMOOTH",
"135.1 512 OFFCURVE",
"30 397 OFFCURVE",
"30 247 CURVE SMOOTH",
"30 98 OFFCURVE",
"134.05 -14 OFFCURVE",
"288.55 -14 CURVE SMOOTH",
"396.92 -14 OFFCURVE",
"480.47 41.1 OFFCURVE",
"520.7 125.43 CURVE",
"565.17 30.96 OFFCURVE",
"659.88 -14 OFFCURVE",
"764 -14 CURVE SMOOTH",
"867 -14 OFFCURVE",
"941 19 OFFCURVE",
"989 78 CURVE",
"948 97 LINE",
"914 48 OFFCURVE",
"866 4 OFFCURVE",
"764 4 CURVE SMOOTH"
);
},
{
closed = 1;
nodes = (
"160.32 -2 OFFCURVE",
"80.6 113 OFFCURVE",
"80.6 247 CURVE SMOOTH",
"80.6 382 OFFCURVE",
"160.32 498 OFFCURVE",
"288.55 498 CURVE SMOOTH",
"406.19 498 OFFCURVE",
"483 400.36 OFFCURVE",
"494.88 279.99 CURVE",
"494.3 272.17 OFFCURVE",
"494 264.17 OFFCURVE",
"494 256 CURVE SMOOTH",
"494 244.16 OFFCURVE",
"494.52 232.72 OFFCURVE",
"495.53 221.69 CURVE",
"486.16 98.84 OFFCURVE",
"408.62 -2.01 OFFCURVE",
"288.54 -2.01 CURVE SMOOTH"
);
},
{
closed = 1;
nodes = (
"883.06 497.99 OFFCURVE",
"942.87 411.92 OFFCURVE",
"942.87 327.48 CURVE SMOOTH",
"942.87 308.77 OFFCURVE",
"939.93 290.13 OFFCURVE",
"934.12 272.53 CURVE",
"547.4 272.53 LINE",
"553.68 399.63 OFFCURVE",
"632.36 497.99 OFFCURVE",
"757 497.99 CURVE SMOOTH"
);
}
);
width = 1011;
}
);
leftKerningGroup = a;
note = oe;
rightKerningGroup = ae;
unicode = 0153;
},
{
glyphname = p;
layers = (
{
hints = (
{
horizontal = 1;
place = "{498, 47}";
type = Stem;
}
);
layerId = "F5467FAD-1970-4982-B3D3-939C01050498";
paths = (
{
closed = 1;
nodes = (
"179.85 512 OFFCURVE",
"109.06 413.48 OFFCURVE",
"87.87 312.89 CURVE",
"95 382 LINE",
"95 500 LINE",
"51 500 LINE",
"50 -200 LINE",
"95 -200 LINE",
"95 102 LINE",
"88.2 182.56 LINE",
"109.79 83.85 OFFCURVE",
"180.51 -12.99 OFFCURVE",
"308 -12.99 CURVE SMOOTH",
"460 -12.99 OFFCURVE",
"557 97.01 OFFCURVE",
"557 248.01 CURVE SMOOTH",
"557 400.01 OFFCURVE",
"460 512.01 OFFCURVE",
"308 512.01 CURVE SMOOTH"
);
},
{
closed = 1;
nodes = (
"187 16.01 OFFCURVE",
"86 106.01 OFFCURVE",
"86 248.01 CURVE SMOOTH",
"86 393.01 OFFCURVE",
"187 482.01 OFFCURVE",
"308 482.01 CURVE SMOOTH",
"430 482.01 OFFCURVE",
"512 377.01 OFFCURVE",
"512 248.01 CURVE SMOOTH",
"512 121.01 OFFCURVE",
"431 16.01 OFFCURVE",
"308 16.01 CURVE SMOOTH"
);
}
);
width = 587;
}
);
leftKerningGroup = p;
note = p;
rightKerningGroup = p;
unicode = 0070;
},
{
glyphname = thorn;
layers = (
{
hints = (
{
horizontal = 1;
place = "{498, 47}";
type = Stem;
}
);
layerId = "F5467FAD-1970-4982-B3D3-939C01050498";
paths = (
{
closed = 1;
nodes = (
"165.85 506 OFFCURVE",
"95.06 407.48 OFFCURVE",
"73.87 306.89 CURVE",
"81 376 LINE",
"81 808 LINE",
"37 808 LINE",
"36 -238 LINE",
"81 -238 LINE",
"81 96 LINE",
"74.2 176.56 LINE",
"95.79 77.85 OFFCURVE",
"166.51 -18.99 OFFCURVE",
"294 -18.99 CURVE SMOOTH",
"446 -18.99 OFFCURVE",
"543 91.01 OFFCURVE",
"543 242.01 CURVE SMOOTH",
"543 394.01 OFFCURVE",
"446 506.01 OFFCURVE",
"294 506.01 CURVE SMOOTH"
);
},
{
closed = 1;
nodes = (
"173 10.01 OFFCURVE",
"72 100.01 OFFCURVE",
"72 242.01 CURVE SMOOTH",
"72 387.01 OFFCURVE",
"173 476.01 OFFCURVE",
"294 476.01 CURVE SMOOTH",
"416 476.01 OFFCURVE",
"498 371.01 OFFCURVE",
"498 242.01 CURVE SMOOTH",
"498 115.01 OFFCURVE",
"417 10.01 OFFCURVE",
"294 10.01 CURVE SMOOTH"
);
}
);
width = 563;
}
);
note = thorn;
unicode = 00FE;
},
{
glyphname = q;
layers = (
{
hints = (
{
horizontal = 1;
place = "{-13, 29}";
type = Stem;
},
{
horizontal = 1;
place = "{482, 30}";
type = Stem;
},
{
place = "{29.99, 45}";
type = Stem;
},
{
place = "{492, 44.5}";
type = Stem;
}
);
layerId = "F5467FAD-1970-4982-B3D3-939C01050498";
paths = (
{
closed = 1;
nodes = (
"492 102 LINE",
"492 -232 LINE",
"537 -232 LINE",
"536 500 LINE",
"492 500 LINE",
"492 382 LINE",
"499.13 312.89 LINE",
"477.93 413.48 OFFCURVE",
"407.14 512 OFFCURVE",
"278.99 512 CURVE SMOOTH",
"126.99 512 OFFCURVE",
"29.99 400 OFFCURVE",
"29.99 248 CURVE SMOOTH",
"29.99 97 OFFCURVE",
"126.99 -13 OFFCURVE",
"278.99 -13 CURVE SMOOTH",
"406.48 -13 OFFCURVE",
"477.2 83.84 OFFCURVE",
"498.79 182.56 CURVE"
);
},
{
closed = 1;
nodes = (
"155.99 16 OFFCURVE",
"74.99 121 OFFCURVE",
"74.99 248 CURVE SMOOTH",
"74.99 377 OFFCURVE",
"156.99 482 OFFCURVE",
"278.99 482 CURVE SMOOTH",
"399.99 482 OFFCURVE",
"500.99 393 OFFCURVE",
"500.99 248 CURVE SMOOTH",
"500.99 106 OFFCURVE",
"399.99 16 OFFCURVE",
"278.99 16 CURVE SMOOTH"
);
}
);
width = 587;
}
);
leftKerningGroup = a;
note = q;
rightKerningGroup = aacute;
unicode = 0071;
},
{
glyphname = r;
layers = (
{
hints = (
{
horizontal = 1;
place = "{477.29, 29}";
type = Stem;
},
{
place = "{50, 44}";
type = Stem;
}
);
layerId = "F5467FAD-1970-4982-B3D3-939C01050498";
paths = (
{
closed = 1;
nodes = (
"208.18 506.29 OFFCURVE",
"116.91 429.25 OFFCURVE",
"94 331.26 CURVE",
"94 500 LINE",
"50 500 LINE",
"50 0 LINE",
"94 0 LINE",
"94 270.75 LINE",
"108.22 412.43 OFFCURVE",
"197.42 477.29 OFFCURVE",
"286.11 477.29 CURVE SMOOTH",
"356.5 477.29 OFFCURVE",
"391.15 439.29 OFFCURVE",
"404.14 387.29 CURVE",
"453.95 387.29 LINE",
"445.29 455.29 OFFCURVE",
"409.55 506.29 OFFCURVE",
"300.19 506.29 CURVE SMOOTH"
);
}
);
width = 460;
}
);
leftKerningGroup = m;
note = r;
rightKerningGroup = r;
unicode = 0072;
},
{
glyphname = s;
layers = (
{
hints = (
{
horizontal = 1;
place = "{-14, 18}";
type = Stem;
},
{
horizontal = 1;
place = "{496, 17}";
type = Stem;
},
{
place = "{49.94, 37.55}";
type = Stem;
},
{
place = "{388.16, 39.97}";
type = Stem;
}
);
layerId = "F5467FAD-1970-4982-B3D3-939C01050498";
paths = (
{
closed = 1;
nodes = (
"131.68 4 OFFCURVE",
"67.61 59 OFFCURVE",
"46.62 157 CURVE",
"6.85 130 LINE",
"38.89 43 OFFCURVE",
"106.27 -14 OFFCURVE",
"224.46 -14 CURVE SMOOTH",
"365.85 -14 OFFCURVE",
"428.13 57 OFFCURVE",
"428.13 133 CURVE SMOOTH",
"428.13 227 OFFCURVE",
"305.1 255 OFFCURVE",
"226.67 276 CURVE SMOOTH",
"132.78 301 OFFCURVE",
"87.49 342 OFFCURVE",
"87.49 395 CURVE SMOOTH",
"87.49 453 OFFCURVE",
"142.72 496 OFFCURVE",
"222.25 496 CURVE SMOOTH",
"268.65 496 OFFCURVE",
"331.61 491 OFFCURVE",
"350.39 401 CURVE",
"403.41 413 LINE",
"373.59 490 OFFCURVE",
"290.74 513 OFFCURVE",
"222.26 513 CURVE SMOOTH",
"122.84 513 OFFCURVE",
"49.94 465 OFFCURVE",
"49.94 395 CURVE SMOOTH",
"49.94 320 OFFCURVE",
"117.32 283 OFFCURVE",
"214.52 257 CURVE SMOOTH",
"308.42 231 OFFCURVE",
"388.16 209 OFFCURVE",
"388.16 135 CURVE SMOOTH",
"388.16 60 OFFCURVE",
"331.55 4 OFFCURVE",
"224.47 4 CURVE SMOOTH"
);
}
);
width = 441;
}
);
leftKerningGroup = s;
note = s;
rightKerningGroup = s;
unicode = 0073;
},
{
glyphname = scaron;
layers = (
{
hints = (
{
horizontal = 1;
place = "{-14, 18}";
type = Stem;
},
{
horizontal = 1;
place = "{496, 17}";
type = Stem;
},
{
place = "{49.94, 37.55}";
type = Stem;
},
{
place = "{388.16, 39.97}";
type = Stem;
}
);
layerId = "F5467FAD-1970-4982-B3D3-939C01050498";
paths = (
{
closed = 1;
nodes = (
"222.26 610 LINE",
"223.26 611 LINE",
"224.26 610 LINE",
"378.26 747 LINE",
"336.26 761 LINE",
"223.26 655.48 LINE",
"110.26 761 LINE",
"68.26 747 LINE"
);
},
{
closed = 1;
nodes = (
"131.68 4 OFFCURVE",
"67.61 59 OFFCURVE",
"46.62 157 CURVE",
"6.85 130 LINE",
"38.89 43 OFFCURVE",
"106.27 -14 OFFCURVE",
"224.46 -14 CURVE SMOOTH",
"365.85 -14 OFFCURVE",
"428.13 57 OFFCURVE",
"428.13 133 CURVE SMOOTH",
"428.13 227 OFFCURVE",
"305.1 255 OFFCURVE",
"226.67 276 CURVE SMOOTH",
"132.78 301 OFFCURVE",
"87.49 342 OFFCURVE",
"87.49 395 CURVE SMOOTH",
"87.49 453 OFFCURVE",
"142.72 496 OFFCURVE",
"222.25 496 CURVE SMOOTH",
"268.65 496 OFFCURVE",
"331.61 491 OFFCURVE",
"350.39 401 CURVE",
"403.41 413 LINE",
"373.59 490 OFFCURVE",
"290.74 513 OFFCURVE",
"222.26 513 CURVE SMOOTH",
"122.84 513 OFFCURVE",
"49.94 465 OFFCURVE",
"49.94 395 CURVE SMOOTH",
"49.94 320 OFFCURVE",
"117.32 283 OFFCURVE",
"214.52 257 CURVE SMOOTH",
"308.42 231 OFFCURVE",
"388.16 209 OFFCURVE",
"388.16 135 CURVE SMOOTH",
"388.16 60 OFFCURVE",
"331.55 4 OFFCURVE",
"224.47 4 CURVE SMOOTH"
);
}
);
width = 441;
}
);
leftKerningGroup = s;
note = scaron;
rightKerningGroup = s;
unicode = 0161;
},
{
glyphname = germandbls;
layers = (
{
hints = (
{
horizontal = 1;
place = "{-16, 33}";
type = Stem;
},
{
horizontal = 1;
place = "{405, 10}";
type = Stem;
},
{
horizontal = 1;
place = "{700, 16}";
type = Stem;
},
{
place = "{43, 44}";
type = Stem;
},
{
place = "{401, 44}";
type = Stem;
},
{
place = "{533, 45}";
type = Stem;
}
);
layerId = "F5467FAD-1970-4982-B3D3-939C01050498";
paths = (
{
closed = 1;
nodes = (
"43 -16 LINE",
"87 -16 LINE",
"87 551 LINE SMOOTH",
"87 631 OFFCURVE",
"145 700 OFFCURVE",
"241 700 CURVE SMOOTH",
"342 700 OFFCURVE",
"401 631 OFFCURVE",
"401 551 CURVE SMOOTH",
"401 473 OFFCURVE",
"370 415 OFFCURVE",
"263 415 CURVE",
"263 405 LINE",
"303 405 LINE SMOOTH",
"435 405 OFFCURVE",
"533 332 OFFCURVE",
"533 201 CURVE SMOOTH",
"533 72 OFFCURVE",
"436 17 OFFCURVE",
"297 17 CURVE SMOOTH",
"271 17 OFFCURVE",
"241 23 OFFCURVE",
"215 31 CURVE",
"215 4 LINE",
"239 -6 OFFCURVE",
"276 -16 OFFCURVE",
"308 -16 CURVE SMOOTH",
"469 -16 OFFCURVE",
"578 53 OFFCURVE",
"578 201 CURVE SMOOTH",
"578 304 OFFCURVE",
"501 421 OFFCURVE",
"370 421 CURVE",
"434 462 OFFCURVE",
"445 501 OFFCURVE",
"445 563 CURVE SMOOTH",
"445 680 OFFCURVE",
"356 716 OFFCURVE",
"241 716 CURVE SMOOTH",
"123 716 OFFCURVE",
"43 681 OFFCURVE",
"43 560 CURVE SMOOTH"
);
}
);
width = 596;
}
);
leftKerningGroup = germandbls;
note = germandbls;
rightKerningGroup = germandbls;
unicode = 00DF;
},
{
glyphname = t;
layers = (
{
hints = (
{
horizontal = 1;
place = "{-12, 22}";
type = Stem;
},
{
horizontal = 1;
place = "{467, 35}";
type = Stem;
},
{
place = "{121, 44}";
type = Stem;
}
);
layerId = "F5467FAD-1970-4982-B3D3-939C01050498";
paths = (
{
closed = 1;
nodes = (
"404 74 LINE",
"383 43 OFFCURVE",
"348 10 OFFCURVE",
"292 10 CURVE SMOOTH",
"212 10 OFFCURVE",
"165 69 OFFCURVE",
"165 144 CURVE SMOOTH",
"165 467 LINE",
"342 467 LINE",
"342 502 LINE",
"165 502 LINE",
"165 700 LINE",
"121 700 LINE",
"121 502 LINE",
"16 502 LINE",
"16 467 LINE",
"121 467 LINE",
"121 141 LINE SMOOTH",
"121 52 OFFCURVE",
"161 -12 OFFCURVE",
"292 -12 CURVE SMOOTH",
"358 -12 OFFCURVE",
"399 16 OFFCURVE",
"429 59 CURVE"
);
}
);
width = 459;
}
);
leftKerningGroup = t;
note = t;
rightKerningGroup = t;
unicode = 0074;
},
{
glyphname = u;
layers = (
{
hints = (
{
horizontal = 1;
place = "{-7, 25}";
type = Stem;
},
{
place = "{50, 44}";
type = Stem;
},
{
place = "{476, 44}";
type = Stem;
}
);
layerId = "F5467FAD-1970-4982-B3D3-939C01050498";
paths = (
{
closed = 1;
nodes = (
"476 1 LINE",
"520 1 LINE",
"520 500 LINE",
"476 500 LINE",
"476 224 LINE",
"461 55 OFFCURVE",
"350 18 OFFCURVE",
"264 18 CURVE SMOOTH",
"139 18 OFFCURVE",
"94 103 OFFCURVE",
"94 197 CURVE SMOOTH",
"94 500 LINE",
"50 500 LINE",
"50 197 LINE SMOOTH",
"50 92 OFFCURVE",
"89 -7 OFFCURVE",
"251 -7 CURVE SMOOTH",
"351.58 -7 OFFCURVE",
"449.52 44.97 OFFCURVE",
"476 145.72 CURVE"
);
}
);
width = 570;
}
);
leftKerningGroup = m;
note = u;
rightKerningGroup = a;
unicode = 0075;
},
{
glyphname = uacute;
layers = (
{
hints = (
{
horizontal = 1;
place = "{-7, 25}";
type = Stem;
},
{
place = "{50, 44}";
type = Stem;
},
{
place = "{476, 44}";
type = Stem;
}
);
layerId = "F5467FAD-1970-4982-B3D3-939C01050498";
paths = (
{
closed = 1;
nodes = (
"225 661 LINE",
"242 656 LINE",
"368 735 LINE",
"345 774 LINE"
);
},
{
closed = 1;
nodes = (
"476 1 LINE",
"520 1 LINE",
"520 500 LINE",
"476 500 LINE",
"476 224 LINE",
"461 55 OFFCURVE",
"350 18 OFFCURVE",
"264 18 CURVE SMOOTH",
"139 18 OFFCURVE",
"94 103 OFFCURVE",
"94 197 CURVE SMOOTH",
"94 500 LINE",
"50 500 LINE",
"50 197 LINE SMOOTH",
"50 92 OFFCURVE",
"89 -7 OFFCURVE",
"251 -7 CURVE SMOOTH",
"351.58 -7 OFFCURVE",
"449.52 44.97 OFFCURVE",
"476 145.72 CURVE"
);
}
);
width = 570;
}
);
leftKerningGroup = m;
note = uacute;
rightKerningGroup = aacute;
unicode = 00FA;
},
{
glyphname = ucircumflex;
layers = (
{
hints = (
{
horizontal = 1;
place = "{-7, 25}";
type = Stem;
},
{
place = "{50, 44}";
type = Stem;
},
{
place = "{476, 44}";
type = Stem;
}
);
layerId = "F5467FAD-1970-4982-B3D3-939C01050498";
paths = (
{
closed = 1;
nodes = (
"174 656 LINE",
"287 761.52 LINE",
"400 656 LINE",
"442 670 LINE",
"288 807 LINE",
"287 806 LINE",
"286 807 LINE",
"132 670 LINE"
);
},
{
closed = 1;
nodes = (
"476 1 LINE",
"520 1 LINE",
"520 500 LINE",
"476 500 LINE",
"476 224 LINE",
"461 55 OFFCURVE",
"350 18 OFFCURVE",
"264 18 CURVE SMOOTH",
"139 18 OFFCURVE",
"94 103 OFFCURVE",
"94 197 CURVE SMOOTH",
"94 500 LINE",
"50 500 LINE",
"50 197 LINE SMOOTH",
"50 92 OFFCURVE",
"89 -7 OFFCURVE",
"251 -7 CURVE SMOOTH",
"351.58 -7 OFFCURVE",
"449.52 44.97 OFFCURVE",
"476 145.72 CURVE"
);
}
);
width = 570;
}
);
leftKerningGroup = m;
note = ucircumflex;
rightKerningGroup = aacute;
unicode = 00FB;
},
{
glyphname = udieresis;
layers = (
{
hints = (
{
horizontal = 1;
place = "{-7, 25}";
type = Stem;
},
{
horizontal = 1;
place = "{672, 42}";
type = Stem;
},
{
place = "{50, 44}";
type = Stem;
},
{
place = "{141, 42}";
type = Stem;
},
{
place = "{389, 42}";
type = Stem;
},
{
place = "{476, 44}";
type = Stem;
}
);
layerId = "F5467FAD-1970-4982-B3D3-939C01050498";
paths = (
{
closed = 1;
nodes = (
"183 714 LINE",
"141 714 LINE",
"141 672 LINE",
"183 672 LINE"
);
},
{
closed = 1;
nodes = (
"431 714 LINE",
"389 714 LINE",
"389 672 LINE",
"431 672 LINE"
);
},
{
closed = 1;
nodes = (
"476 1 LINE",
"520 1 LINE",
"520 500 LINE",
"476 500 LINE",
"476 224 LINE",
"461 55 OFFCURVE",
"350 18 OFFCURVE",
"264 18 CURVE SMOOTH",
"139 18 OFFCURVE",
"94 103 OFFCURVE",
"94 197 CURVE SMOOTH",
"94 500 LINE",
"50 500 LINE",
"50 197 LINE SMOOTH",
"50 92 OFFCURVE",
"89 -7 OFFCURVE",
"251 -7 CURVE SMOOTH",
"351.58 -7 OFFCURVE",
"449.52 44.97 OFFCURVE",
"476 145.72 CURVE"
);
}
);
width = 570;
}
);
leftKerningGroup = m;
note = udieresis;
rightKerningGroup = aacute;
unicode = 00FC;
},
{
glyphname = ugrave;
layers = (
{
hints = (
{
horizontal = 1;
place = "{-7, 25}";
type = Stem;
},
{
place = "{50, 44}";
type = Stem;
},
{
place = "{476, 44}";
type = Stem;
}
);
layerId = "F5467FAD-1970-4982-B3D3-939C01050498";
paths = (
{
closed = 1;
nodes = (
"343 661 LINE",
"223 774 LINE",
"200 735 LINE",
"326 656 LINE"
);
},
{
closed = 1;
nodes = (
"476 1 LINE",
"520 1 LINE",
"520 500 LINE",
"476 500 LINE",
"476 224 LINE",
"461 55 OFFCURVE",
"350 18 OFFCURVE",
"264 18 CURVE SMOOTH",
"139 18 OFFCURVE",
"94 103 OFFCURVE",
"94 197 CURVE SMOOTH",
"94 500 LINE",
"50 500 LINE",
"50 197 LINE SMOOTH",
"50 92 OFFCURVE",
"89 -7 OFFCURVE",
"251 -7 CURVE SMOOTH",
"351.58 -7 OFFCURVE",
"449.52 44.97 OFFCURVE",
"476 145.72 CURVE"
);
}
);
width = 570;
}
);
leftKerningGroup = m;
note = ugrave;
rightKerningGroup = aacute;
unicode = 00F9;
},
{
glyphname = v;
layers = (
{
hints = (
{
horizontal = 1;
place = "{0, 28.43}";
type = Stem;
},
{
place = "{11, 478}";
type = Stem;
}
);
layerId = "F5467FAD-1970-4982-B3D3-939C01050498";
paths = (
{
closed = 1;
nodes = (
"222 0 LINE",
"278 0 LINE",
"489 500 LINE",
"449 500 LINE",
"250 28.43 LINE",
"51 500 LINE",
"11 500 LINE"
);
}
);
width = 500;
}
);
leftKerningGroup = v;
note = v;
rightKerningGroup = v;
unicode = 0076;
},
{
glyphname = w;
layers = (
{
hints = (
{
horizontal = 1;
place = "{0, 30.07}";
type = Stem;
},
{
horizontal = 1;
place = "{472, 28}";
type = Stem;
},
{
place = "{10, 626}";
type = Stem;
}
);
layerId = "F5467FAD-1970-4982-B3D3-939C01050498";
paths = (
{
closed = 1;
nodes = (
"450 0 LINE",
"493 0 LINE",
"636 500 LINE",
"596 500 LINE",
"471 30.07 LINE",
"346 500 LINE",
"300 500 LINE",
"175 30.07 LINE",
"50 500 LINE",
"10 500 LINE",
"153 0 LINE",
"196 0 LINE",
"323 472 LINE"
);
}
);
width = 646;
}
);
leftKerningGroup = w;
note = w;
rightKerningGroup = w;
unicode = 0077;
},
{
glyphname = x;
layers = (
{
hints = (
{
horizontal = 1;
place = "{0, 500}";
type = Stem;
},
{
place = "{20, 518}";
type = Stem;
}
);
layerId = "F5467FAD-1970-4982-B3D3-939C01050498";
paths = (
{
closed = 1;
nodes = (
"466 0 LINE",
"522 0 LINE",
"306.78 241.27 LINE",
"538 500 LINE",
"481 500 LINE",
"276.24 275.51 LINE",
"76 500 LINE",
"22 500 LINE",
"245.64 248.15 LINE",
"20 0 LINE",
"77 0 LINE",
"275.98 213.98 LINE"
);
}
);
width = 558;
}
);
leftKerningGroup = x;
note = x;
rightKerningGroup = x;
unicode = 0078;
},
{
glyphname = y;
layers = (
{
hints = (
{
horizontal = 1;
place = "{-200, 700}";
type = Stem;
},
{
place = "{47, 448}";
type = Stem;
}
);
layerId = "F5467FAD-1970-4982-B3D3-939C01050498";
paths = (
{
closed = 1;
nodes = (
"166 -200 LINE",
"210 -200 LINE",
"495 500 LINE",
"452 500 LINE",
"291.89 108.13 LINE",
"100 500 LINE",
"47 500 LINE",
"270.55 55.89 LINE"
);
}
);
width = 532;
}
);
leftKerningGroup = y;
note = y;
rightKerningGroup = y;
unicode = 0079;
},
{
glyphname = yacute;
layers = (
{
hints = (
{
horizontal = 1;
place = "{-200, 990}";
type = Stem;
},
{
place = "{47, 448}";
type = Stem;
}
);
layerId = "F5467FAD-1970-4982-B3D3-939C01050498";
paths = (
{
closed = 1;
nodes = (
"204 677 LINE",
"221 672 LINE",
"347 751 LINE",
"324 790 LINE"
);
},
{
closed = 1;
nodes = (
"166 -200 LINE",
"210 -200 LINE",
"495 500 LINE",
"452 500 LINE",
"291.89 108.13 LINE",
"100 500 LINE",
"47 500 LINE",
"270.55 55.89 LINE"
);
}
);
width = 532;
}
);
leftKerningGroup = y;
note = yacute;
rightKerningGroup = y;
unicode = 00FD;
},
{
glyphname = ydieresis;
layers = (
{
hints = (
{
horizontal = 1;
place = "{688, 42}";
type = Stem;
},
{
place = "{120, 42}";
type = Stem;
},
{
place = "{368, 42}";
type = Stem;
}
);
layerId = "F5467FAD-1970-4982-B3D3-939C01050498";
paths = (
{
closed = 1;
nodes = (
"162 730 LINE",
"120 730 LINE",
"120 688 LINE",
"162 688 LINE"
);
},
{
closed = 1;
nodes = (
"410 730 LINE",
"368 730 LINE",
"368 688 LINE",
"410 688 LINE"
);
},
{
closed = 1;
nodes = (
"166 -200 LINE",
"210 -200 LINE",
"495 500 LINE",
"452 500 LINE",
"291.89 108.13 LINE",
"100 500 LINE",
"47 500 LINE",
"270.55 55.89 LINE"
);
}
);
width = 532;
}
);
leftKerningGroup = y;
note = ydieresis;
rightKerningGroup = y;
unicode = 00FF;
},
{
glyphname = z;
layers = (
{
hints = (
{
horizontal = 1;
place = "{0, 35}";
type = Stem;
},
{
horizontal = 1;
place = "{465, 35}";
type = Stem;
},
{
place = "{3, 480}";
type = Stem;
}
);
layerId = "F5467FAD-1970-4982-B3D3-939C01050498";
paths = (
{
closed = 1;
nodes = (
"466 35 LINE",
"49.3 35 LINE",
"483 465 LINE",
"483 500 LINE",
"43 500 LINE",
"43 465 LINE",
"421.9 465 LINE",
"3 35 LINE",
"3 0 LINE",
"466 0 LINE"
);
}
);
width = 489;
}
);
leftKerningGroup = z;
note = z;
rightKerningGroup = z;
unicode = 007A;
},
{
glyphname = zcaron;
layers = (
{
hints = (
{
horizontal = 1;
place = "{0, 35}";
type = Stem;
},
{
horizontal = 1;
place = "{465, 35}";
type = Stem;
},
{
place = "{3, 480}";
type = Stem;
}
);
layerId = "F5467FAD-1970-4982-B3D3-939C01050498";
paths = (
{
closed = 1;
nodes = (
"246 638 LINE",
"247 639 LINE",
"248 638 LINE",
"402 775 LINE",
"360 789 LINE",
"247 683.48 LINE",
"134 789 LINE",
"92 775 LINE"
);
},
{
closed = 1;
nodes = (
"466 35 LINE",
"49.3 35 LINE",
"483 465 LINE",
"483 500 LINE",
"43 500 LINE",
"43 465 LINE",
"421.9 465 LINE",
"3 35 LINE",
"3 0 LINE",
"466 0 LINE"
);
}
);
width = 489;
}
);
leftKerningGroup = z;
note = zcaron;
rightKerningGroup = z;
unicode = 017E;
},
{
glyphname = fi;
layers = (
{
hints = (
{
horizontal = 1;
place = "{466, 35}";
type = Stem;
},
{
horizontal = 1;
place = "{668.5, 35.5}";
type = Stem;
},
{
horizontal = 1;
place = "{739.62, 15.52}";
type = Stem;
},
{
place = "{62, 36}";
type = Stem;
},
{
place = "{114.5, 43.5}";
type = Stem;
},
{
place = "{441, 44}";
type = Stem;
}
);
layerId = "F5467FAD-1970-4982-B3D3-939C01050498";
paths = (
{
closed = 1;
nodes = (
"348 739.62 OFFCURVE",
"403 693 OFFCURVE",
"426 669 CURVE",
"485 668 LINE",
"485 704 LINE",
"436 704 LINE",
"401 727 OFFCURVE",
"347 755.14 OFFCURVE",
"261 755.14 CURVE SMOOTH",
"109 755.14 OFFCURVE",
"62 667 OFFCURVE",
"62 615 CURVE SMOOTH",
"62 568 OFFCURVE",
"89 521 OFFCURVE",
"140 501 CURVE",
"9 501 LINE",
"9 466 LINE",
"115 466 LINE",
"114 1 LINE",
"158 1 LINE",
"158 466 LINE",
"441 466 LINE",
"441 0 LINE",
"485 0 LINE",
"485 500 LINE",
"473.42 500 LINE",
"473.42 501 LINE",
"190 501 LINE",
"109 529 OFFCURVE",
"98 573 OFFCURVE",
"98 611 CURVE SMOOTH",
"98 687 OFFCURVE",
"162 739.62 OFFCURVE",
"261 739.62 CURVE SMOOTH"
);
}
);
width = 602;
}
);
leftKerningGroup = f;
note = fi;
rightKerningGroup = i;
unicode = FB01;
},
{
glyphname = fl;
layers = (
{
hints = (
{
horizontal = 1;
place = "{466, 35}";
type = Stem;
},
{
horizontal = 1;
place = "{728, 18}";
type = Stem;
},
{
place = "{114.5, 43.5}";
type = Stem;
},
{
place = "{457, 44}";
type = Stem;
},
{
place = "{58, 36}";
type = Stem;
}
);
layerId = "F5467FAD-1970-4982-B3D3-939C01050498";
paths = (
{
closed = 1;
nodes = (
"98 746 OFFCURVE",
"58 674 OFFCURVE",
"58 625 CURVE SMOOTH",
"58 570 OFFCURVE",
"94 514 OFFCURVE",
"176 501 CURVE",
"9 501 LINE",
"9 466 LINE",
"115 466 LINE",
"114 1 LINE",
"158 1 LINE",
"158 466 LINE",
"346 466 LINE",
"346 501 LINE",
"228 501 LINE",
"123 523 OFFCURVE",
"94 575 OFFCURVE",
"94 621 CURVE SMOOTH",
"94 690 OFFCURVE",
"151 728 OFFCURVE",
"214 728 CURVE SMOOTH",
"271 728 OFFCURVE",
"311 695 OFFCURVE",
"331 663 CURVE",
"375 691 LINE",
"345 719 OFFCURVE",
"282 746 OFFCURVE",
"214 746 CURVE SMOOTH"
);
},
{
closed = 1;
nodes = (
"501 700 LINE",
"457 700 LINE",
"457 0 LINE",
"501 0 LINE"
);
}
);
width = 551;
}
);
leftKerningGroup = f;
note = fl;
rightKerningGroup = l;
unicode = FB02;
},
{
glyphname = ordfeminine;
layers = (
{
hints = (
{
horizontal = 1;
place = "{371.34, 11.04}";
type = Stem;
},
{
horizontal = 1;
place = "{721.17, 12.42}";
type = Stem;
},
{
place = "{26.7, 34.49}";
type = Stem;
},
{
place = "{297.86, 30.36}";
type = Stem;
}
);
layerId = "F5467FAD-1970-4982-B3D3-939C01050498";
paths = (
{
closed = 1;
nodes = (
"117.78 733.59 OFFCURVE",
"59.82 695.64 OFFCURVE",
"52.23 652.17 CURVE",
"96.39 651.48 LINE",
"104.67 682.53 OFFCURVE",
"130.2 721.17 OFFCURVE",
"188.85 721.17 CURVE SMOOTH",
"256.87 721.17 OFFCURVE",
"287.23 688.15 OFFCURVE",
"292.7 642.86 CURVE SMOOTH",
"299.04 590.45 OFFCURVE",
"241.93 572.04 OFFCURVE",
"175.05 563.85 CURVE SMOOTH",
"65.34 550.74 OFFCURVE",
"26.7 517.62 OFFCURVE",
"26.7 465.87 CURVE SMOOTH",
"26.7 409.98 OFFCURVE",
"78.45 371.34 OFFCURVE",
"160.56 371.34 CURVE SMOOTH",
"228.71 371.34 OFFCURVE",
"278.91 414.74 OFFCURVE",
"297.86 469.42 CURVE",
"297.86 381 LINE",
"328.22 381 LINE",
"328.22 594.9 LINE SMOOTH",
"328.22 656.31 OFFCURVE",
"315.8 733.59 OFFCURVE",
"188.84 733.59 CURVE SMOOTH"
);
},
{
closed = 1;
nodes = (
"81.2 382.38 OFFCURVE",
"61.19 434.82 OFFCURVE",
"61.19 470.01 CURVE SMOOTH",
"61.19 514.86 OFFCURVE",
"93.62 541.77 OFFCURVE",
"172.97 552.12 CURVE SMOOTH",
"230.13 559.44 OFFCURVE",
"275.87 574.72 OFFCURVE",
"297.71 601.63 CURVE",
"297.86 518.31 LINE SMOOTH",
"297.86 454.83 OFFCURVE",
"248.18 382.38 OFFCURVE",
"160.55 382.38 CURVE SMOOTH"
);
}
);
width = 373;
}
);
note = ordfeminine;
unicode = 00AA;
},
{
glyphname = ordmasculine;
layers = (
{
hints = (
{
horizontal = 1;
place = "{367.34, 8.28}";
type = Stem;
},
{
horizontal = 1;
place = "{720.62, 9.66}";
type = Stem;
},
{
place = "{26.7, 34.91}";
type = Stem;
},
{
place = "{348.58, 34.92}";
type = Stem;
}
);
layerId = "F5467FAD-1970-4982-B3D3-939C01050498";
paths = (
{
closed = 1;
nodes = (
"311.7 367.34 OFFCURVE",
"383.5 444.62 OFFCURVE",
"383.5 547.43 CURVE SMOOTH",
"383.5 650.93 OFFCURVE",
"310.98 730.28 OFFCURVE",
"205.1 730.28 CURVE SMOOTH",
"99.22 730.28 OFFCURVE",
"26.7 650.93 OFFCURVE",
"26.7 547.43 CURVE SMOOTH",
"26.7 444.62 OFFCURVE",
"98.49 367.34 OFFCURVE",
"205.1 367.34 CURVE SMOOTH"
);
},
{
closed = 1;
nodes = (
"116.62 375.62 OFFCURVE",
"61.61 454.97 OFFCURVE",
"61.61 547.43 CURVE SMOOTH",
"61.61 640.58 OFFCURVE",
"116.62 720.62 OFFCURVE",
"205.1 720.62 CURVE SMOOTH",
"293.57 720.62 OFFCURVE",
"348.58 640.58 OFFCURVE",
"348.58 547.43 CURVE SMOOTH",
"348.58 454.97 OFFCURVE",
"293.57 375.62 OFFCURVE",
"205.1 375.62 CURVE SMOOTH"
);
}
);
width = 380;
}
);
note = ordmasculine;
unicode = 00BA;
},
{
glyphname = Delta;
layers = (
{
hints = (
{
horizontal = 1;
place = "{0, 38}";
type = Stem;
},
{
horizontal = 1;
place = "{661.36, 38.64}";
type = Stem;
},
{
place = "{41, 570}";
type = Stem;
}
);
layerId = "F5467FAD-1970-4982-B3D3-939C01050498";
paths = (
{
closed = 1;
nodes = (
"41 0 LINE",
"611 0 LINE",
"611 38 LINE",
"354 700 LINE",
"298 700 LINE",
"41 38 LINE"
);
},
{
closed = 1;
nodes = (
"84 38 LINE",
"326 661.36 LINE",
"568 38 LINE"
);
}
);
width = 652;
}
);
note = Delta;
unicode = 0394;
},
{
glyphname = Omega;
layers = (
{
hints = (
{
horizontal = 1;
place = "{0, 44}";
type = Stem;
},
{
horizontal = 1;
place = "{674, 31}";
type = Stem;
},
{
place = "{31, 42}";
type = Stem;
},
{
place = "{213, 55}";
type = Stem;
},
{
place = "{685, 43}";
type = Stem;
}
);
layerId = "F5467FAD-1970-4982-B3D3-939C01050498";
paths = (
{
closed = 1;
nodes = (
"168 705 OFFCURVE",
"31 546 OFFCURVE",
"31 359 CURVE SMOOTH",
"31 273 OFFCURVE",
"71 84 OFFCURVE",
"213 44 CURVE",
"15 44 LINE",
"15 0 LINE",
"268 0 LINE",
"268 54 LINE",
"146 96 OFFCURVE",
"73 215 OFFCURVE",
"73 359 CURVE SMOOTH",
"73 533 OFFCURVE",
"196 674 OFFCURVE",
"379 674 CURVE SMOOTH",
"563 674 OFFCURVE",
"685 533 OFFCURVE",
"685 359 CURVE SMOOTH",
"685 215 OFFCURVE",
"611 95 OFFCURVE",
"489 54 CURVE",
"489 0 LINE",
"742 0 LINE",
"742 44 LINE",
"550 44 LINE",
"666 74 OFFCURVE",
"728 240 OFFCURVE",
"728 359 CURVE SMOOTH",
"728 546 OFFCURVE",
"590 705 OFFCURVE",
"379 705 CURVE SMOOTH"
);
}
);
width = 758;
}
);
note = Omega;
unicode = 03A9;
},
{
glyphname = mu;
layers = (
{
hints = (
{
horizontal = 1;
place = "{-7, 24}";
type = Stem;
},
{
place = "{53, 42}";
type = Stem;
},
{
place = "{459, 42}";
type = Stem;
}
);
layerId = "F5467FAD-1970-4982-B3D3-939C01050498";
paths = (
{
closed = 1;
nodes = (
"459 0 LINE",
"501 0 LINE",
"501 500 LINE",
"459 500 LINE",
"459 213 LINE SMOOTH",
"459 52 OFFCURVE",
"339 17 OFFCURVE",
"257 17 CURVE SMOOTH",
"137 17 OFFCURVE",
"95 98 OFFCURVE",
"95 188 CURVE SMOOTH",
"95 500 LINE",
"53 500 LINE",
"53 -200 LINE",
"95 -200 LINE",
"95 47.66 LINE",
"124.03 14.36 OFFCURVE",
"171.11 -7 OFFCURVE",
"245 -7 CURVE SMOOTH",
"333.47 -7 OFFCURVE",
"420.82 35.16 OFFCURVE",
"459 117.38 CURVE"
);
}
);
width = 556;
}
);
note = mu;
unicode = 03BC;
},
{
glyphname = pi;
layers = (
{
hints = (
{
horizontal = 1;
place = "{463, 37}";
type = Stem;
},
{
place = "{124, 50}";
type = Stem;
},
{
place = "{426, 50}";
type = Stem;
}
);
layerId = "F5467FAD-1970-4982-B3D3-939C01050498";
paths = (
{
closed = 1;
nodes = (
"476 0 LINE",
"476 463 LINE",
"580 463 LINE",
"580 500 LINE",
"23 500 LINE",
"23 463 LINE",
"124 463 LINE",
"124 0 LINE",
"174 0 LINE",
"174 463 LINE",
"426 463 LINE",
"426 0 LINE"
);
}
);
width = 600;
}
);
note = pi;
unicode = 03C0;
},
{
glyphname = zero;
layers = (
{
hints = (
{
horizontal = 1;
place = "{-13, 27}";
type = Stem;
},
{
horizontal = 1;
place = "{682, 27}";
type = Stem;
},
{
place = "{36, 45}";
type = Stem;
},
{
place = "{571, 45}";
type = Stem;
}
);
layerId = "F5467FAD-1970-4982-B3D3-939C01050498";
paths = (
{
closed = 1;
nodes = (
"512 -13 OFFCURVE",
"616 129 OFFCURVE",
"616 348 CURVE SMOOTH",
"616 567 OFFCURVE",
"512 709 OFFCURVE",
"325 709 CURVE SMOOTH",
"139 709 OFFCURVE",
"36 567 OFFCURVE",
"36 348 CURVE SMOOTH",
"36 129 OFFCURVE",
"139 -13 OFFCURVE",
"325 -13 CURVE SMOOTH"
);
},
{
closed = 1;
nodes = (
"173 14 OFFCURVE",
"81 141 OFFCURVE",
"81 348 CURVE SMOOTH",
"81 555 OFFCURVE",
"173 682 OFFCURVE",
"325 682 CURVE SMOOTH",
"476 682 OFFCURVE",
"571 555 OFFCURVE",
"571 348 CURVE SMOOTH",
"571 141 OFFCURVE",
"476 14 OFFCURVE",
"325 14 CURVE SMOOTH"
);
}
);
width = 652;
}
);
note = zero;
rightKerningGroup = zero;
unicode = 0030;
},
{
glyphname = one;
layers = (
{
hints = (
{
horizontal = 1;
place = "{620, 19}";
type = Stem;
},
{
place = "{240, 42}";
type = Stem;
}
);
layerId = "F5467FAD-1970-4982-B3D3-939C01050498";
paths = (
{
closed = 1;
nodes = (
"240 0 LINE",
"282 0 LINE",
"282 700 LINE",
"234 700 LINE",
"215 645 OFFCURVE",
"153 637 OFFCURVE",
"75 639 CURVE",
"75 620 LINE",
"240 620 LINE"
);
}
);
width = 377;
}
);
note = one;
rightKerningGroup = one;
unicode = 0031;
},
{
glyphname = two;
layers = (
{
hints = (
{
horizontal = 1;
place = "{0, 40}";
type = Stem;
},
{
horizontal = 1;
place = "{689, 24}";
type = Stem;
},
{
place = "{441.04, 41.97}";
type = Stem;
}
);
layerId = "F5467FAD-1970-4982-B3D3-939C01050498";
paths = (
{
closed = 1;
nodes = (
"114 592 LINE",
"128 645 OFFCURVE",
"176 689 OFFCURVE",
"268 689 CURVE SMOOTH",
"368.63 689 OFFCURVE",
"441.04 622.81 OFFCURVE",
"441.04 519.24 CURVE SMOOTH",
"441.04 331.28 OFFCURVE",
"190.09 245.57 OFFCURVE",
"43 34 CURVE",
"43 0 LINE",
"494 0 LINE",
"494 40 LINE",
"84 40 LINE",
"233.4 243.19 OFFCURVE",
"483.01 316.42 OFFCURVE",
"483.01 525.5 CURVE SMOOTH",
"483.01 647.02 OFFCURVE",
"407.03 713 OFFCURVE",
"268 713 CURVE SMOOTH",
"155 713 OFFCURVE",
"81 660 OFFCURVE",
"67 587 CURVE"
);
}
);
width = 537;
}
);
note = two;
unicode = 0032;
},
{
glyphname = three;
layers = (
{
hints = (
{
horizontal = 1;
place = "{-10, 23}";
type = Stem;
},
{
horizontal = 1;
place = "{389, 32.65}";
type = Stem;
},
{
horizontal = 1;
place = "{671, 29}";
type = Stem;
},
{
place = "{454, 41}";
type = Stem;
}
);
layerId = "F5467FAD-1970-4982-B3D3-939C01050498";
paths = (
{
closed = 1;
nodes = (
"481 671 LINE",
"481 700 LINE",
"71 700 LINE",
"71 671 LINE",
"436 671 LINE",
"199 411 LINE",
"226 384 LINE",
"242 388 OFFCURVE",
"257 389 OFFCURVE",
"275 389 CURVE SMOOTH",
"377 389 OFFCURVE",
"454 319 OFFCURVE",
"454 202 CURVE SMOOTH",
"454 82 OFFCURVE",
"364 13 OFFCURVE",
"264 13 CURVE SMOOTH",
"164 13 OFFCURVE",
"90 59 OFFCURVE",
"76 163 CURVE",
"34 163 LINE",
"51 45 OFFCURVE",
"142 -10 OFFCURVE",
"264 -10 CURVE SMOOTH",
"386 -10 OFFCURVE",
"495 68 OFFCURVE",
"495 202 CURVE SMOOTH",
"495 355.2 OFFCURVE",
"394.83 421.65 OFFCURVE",
"271.47 421.65 CURVE SMOOTH",
"264.38 421.65 OFFCURVE",
"257.22 421.43 OFFCURVE",
"250 420.99 CURVE"
);
}
);
width = 537;
}
);
note = three;
rightKerningGroup = three;
unicode = 0033;
},
{
glyphname = four;
layers = (
{
hints = (
{
horizontal = 1;
place = "{242.66, 30.34}";
type = Stem;
},
{
place = "{380, 42}";
type = Stem;
}
);
layerId = "F5467FAD-1970-4982-B3D3-939C01050498";
paths = (
{
closed = 1;
nodes = (
"422 0 LINE",
"422 242.24 LINE",
"547 242 LINE",
"547 273 LINE",
"422 273 LINE",
"422 700 LINE",
"383 700 LINE",
"34 268 LINE",
"34 243 LINE",
"380 242.32 LINE",
"380 0 LINE"
);
},
{
closed = 1;
nodes = (
"80 273 LINE",
"380 651.5 LINE",
"380 273 LINE"
);
}
);
width = 577;
}
);
note = four;
rightKerningGroup = four;
unicode = 0034;
},
{
glyphname = five;
layers = (
{
hints = (
{
horizontal = 1;
place = "{-10, 23}";
type = Stem;
},
{
horizontal = 1;
place = "{402, 23}";
type = Stem;
},
{
horizontal = 1;
place = "{670, 30}";
type = Stem;
},
{
place = "{118, 42}";
type = Stem;
},
{
place = "{499, 41}";
type = Stem;
},
{
horizontal = 1;
place = "{346, 35.25}";
type = Stem;
}
);
layerId = "F5467FAD-1970-4982-B3D3-939C01050498";
paths = (
{
closed = 1;
nodes = (
"241.86 425 OFFCURVE",
"196.96 407.3 OFFCURVE",
"160 381.25 CURVE",
"160 670 LINE",
"499 670 LINE",
"499 700 LINE",
"118 700 LINE",
"118 346 LINE",
"160 346 LINE",
"191 373 OFFCURVE",
"225 402 OFFCURVE",
"308 402 CURVE SMOOTH",
"406 402 OFFCURVE",
"499 341 OFFCURVE",
"499 207 CURVE SMOOTH",
"499 88 OFFCURVE",
"404 13 OFFCURVE",
"304 13 CURVE SMOOTH",
"215 13 OFFCURVE",
"134 67 OFFCURVE",
"117 163 CURVE",
"76 163 LINE",
"95 53 OFFCURVE",
"194 -10 OFFCURVE",
"304 -10 CURVE SMOOTH",
"425 -10 OFFCURVE",
"540 73 OFFCURVE",
"540 207 CURVE SMOOTH",
"540 351 OFFCURVE",
"431 425 OFFCURVE",
"308 425 CURVE SMOOTH"
);
}
);
width = 600;
}
);
note = five;
rightKerningGroup = five;
unicode = 0035;
},
{
glyphname = six;
layers = (
{
hints = (
{
horizontal = 1;
place = "{-10, 24}";
type = Stem;
},
{
horizontal = 1;
place = "{391, 24}";
type = Stem;
},
{
place = "{40.99, 42}";
type = Stem;
},
{
place = "{461.99, 42}";
type = Stem;
}
);
layerId = "F5467FAD-1970-4982-B3D3-939C01050498";
paths = (
{
closed = 1;
nodes = (
"232.38 415 OFFCURVE",
"194.14 406.77 OFFCURVE",
"160.55 391.08 CURVE",
"351.99 700 LINE",
"311.99 700 LINE",
"79.23 325.38 LINE SMOOTH",
"57.35 290.17 OFFCURVE",
"40.99 251.47 OFFCURVE",
"40.99 203 CURVE SMOOTH",
"40.99 69 OFFCURVE",
"150.99 -10 OFFCURVE",
"272.99 -10 CURVE SMOOTH",
"394.99 -10 OFFCURVE",
"503.99 68 OFFCURVE",
"503.99 202 CURVE SMOOTH",
"503.99 336 OFFCURVE",
"393.99 415 OFFCURVE",
"271.99 415 CURVE SMOOTH"
);
},
{
closed = 1;
nodes = (
"171.99 14 OFFCURVE",
"82.99 82 OFFCURVE",
"82.99 202 CURVE SMOOTH",
"82.99 322 OFFCURVE",
"172.99 391 OFFCURVE",
"272.99 391 CURVE SMOOTH",
"372.99 391 OFFCURVE",
"461.99 323 OFFCURVE",
"461.99 203 CURVE SMOOTH",
"461.99 83 OFFCURVE",
"371.99 14 OFFCURVE",
"271.99 14 CURVE SMOOTH"
);
}
);
width = 547;
}
);
note = six;
unicode = 0036;
},
{
glyphname = seven;
layers = (
{
hints = (
{
horizontal = 1;
place = "{670, 30}";
type = Stem;
},
{
place = "{61, 387}";
type = Stem;
}
);
layerId = "F5467FAD-1970-4982-B3D3-939C01050498";
paths = (
{
closed = 1;
nodes = (
"73 0 LINE",
"119 0 LINE",
"448 700 LINE",
"61 700 LINE",
"61 670 LINE",
"398.43 670 LINE"
);
}
);
width = 504;
}
);
note = seven;
rightKerningGroup = seven;
unicode = 0037;
},
{
glyphname = eight;
layers = (
{
hints = (
{
horizontal = 1;
place = "{0, 20}";
type = Stem;
},
{
horizontal = 1;
place = "{384.99, 20}";
type = Stem;
},
{
horizontal = 1;
place = "{684.99, 20.01}";
type = Stem;
},
{
place = "{32, 42}";
type = Stem;
},
{
place = "{453, 42}";
type = Stem;
},
{
place = "{76, 43}";
type = Stem;
},
{
place = "{408, 43}";
type = Stem;
}
);
layerId = "F5467FAD-1970-4982-B3D3-939C01050498";
paths = (
{
closed = 1;
nodes = (
"398.4 416.88 OFFCURVE",
"451 467.02 OFFCURVE",
"451 544 CURVE SMOOTH",
"451 648 OFFCURVE",
"354 705 OFFCURVE",
"263 705 CURVE SMOOTH",
"172 705 OFFCURVE",
"76 649 OFFCURVE",
"76 545 CURVE SMOOTH",
"76 468.27 OFFCURVE",
"128.79 417.67 OFFCURVE",
"193.02 396.41 CURVE",
"102.22 373.36 OFFCURVE",
"32 304.93 OFFCURVE",
"32 202.99 CURVE SMOOTH",
"32 74.99 OFFCURVE",
"142 -0.01 OFFCURVE",
"264 -0.01 CURVE SMOOTH",
"387 -0.01 OFFCURVE",
"495 73.99 OFFCURVE",
"495 201.99 CURVE SMOOTH",
"495 303.52 OFFCURVE",
"424.7 372.46 OFFCURVE",
"334.16 396.02 CURVE"
);
},
{
closed = 1;
nodes = (
"119 643.99 OFFCURVE",
"201 684.99 OFFCURVE",
"264 684.99 CURVE SMOOTH",
"327 684.99 OFFCURVE",
"408 645.99 OFFCURVE",
"408 544.99 CURVE SMOOTH",
"408 461.99 OFFCURVE",
"342 404.99 OFFCURVE",
"263 404.99 CURVE SMOOTH",
"184 404.99 OFFCURVE",
"119 461.99 OFFCURVE",
"119 543.99 CURVE SMOOTH"
);
},
{
closed = 1;
nodes = (
"164 19.99 OFFCURVE",
"74 84.99 OFFCURVE",
"74 201.99 CURVE SMOOTH",
"74 317.99 OFFCURVE",
"164 384.99 OFFCURVE",
"264 384.99 CURVE SMOOTH",
"364 384.99 OFFCURVE",
"453 318.99 OFFCURVE",
"453 202.99 CURVE SMOOTH",
"453 85.99 OFFCURVE",
"362 19.99 OFFCURVE",
"263 19.99 CURVE SMOOTH"
);
}
);
width = 527;
}
);
note = eight;
rightKerningGroup = eight;
unicode = 0038;
},
{
glyphname = nine;
layers = (
{
hints = (
{
horizontal = 1;
place = "{307, 19.99}";
type = Stem;
},
{
horizontal = 1;
place = "{692, 20}";
type = Stem;
},
{
place = "{40, 42}";
type = Stem;
},
{
place = "{461, 42}";
type = Stem;
}
);
layerId = "F5467FAD-1970-4982-B3D3-939C01050498";
paths = (
{
closed = 1;
nodes = (
"503 636 OFFCURVE",
"393 712 OFFCURVE",
"271 712 CURVE SMOOTH",
"149 712 OFFCURVE",
"40 637 OFFCURVE",
"40 510 CURVE SMOOTH",
"40 382 OFFCURVE",
"150 307 OFFCURVE",
"272 307 CURVE SMOOTH",
"332.21 307 OFFCURVE",
"380.39 327.84 OFFCURVE",
"402.59 344.63 CURVE",
"183.46 0 LINE",
"227 0.25 LINE",
"335.38 177.94 OFFCURVE",
"503 401.08 OFFCURVE",
"503 509 CURVE SMOOTH"
);
},
{
closed = 1;
nodes = (
"170.67 326.99 OFFCURVE",
"82 392.87 OFFCURVE",
"82 509 CURVE SMOOTH",
"82 625 OFFCURVE",
"172 692 OFFCURVE",
"272 692 CURVE SMOOTH",
"372 692 OFFCURVE",
"461 626 OFFCURVE",
"461 510 CURVE SMOOTH",
"461 392.12 OFFCURVE",
"368.63 326.99 OFFCURVE",
"268.79 326.99 CURVE SMOOTH"
);
}
);
width = 543;
}
);
note = nine;
rightKerningGroup = nine;
unicode = 0039;
},
{
glyphname = fraction;
layers = (
{
hints = (
{
horizontal = 1;
place = "{-2, 753}";
type = Stem;
},
{
place = "{89, 614}";
type = Stem;
}
);
layerId = "F5467FAD-1970-4982-B3D3-939C01050498";
paths = (
{
closed = 1;
nodes = (
"89 -2 LINE",
"122 -2 LINE",
"703 751 LINE",
"670 751 LINE"
);
}
);
width = 784;
}
);
note = fraction;
unicode = 2044;
},
{
glyphname = onehalf;
layers = (
{
hints = (
{
horizontal = 1;
place = "{14.99, 28}";
type = Stem;
},
{
horizontal = 1;
place = "{439.99, 12}";
type = Stem;
},
{
horizontal = 1;
place = "{768, 9}";
type = Stem;
},
{
place = "{181, 39}";
type = Stem;
},
{
place = "{546.24, 38.23}";
type = Stem;
},
{
place = "{770.03, 38.99}";
type = Stem;
}
);
layerId = "F5467FAD-1970-4982-B3D3-939C01050498";
paths = (
{
closed = 1;
nodes = (
"181 420 LINE",
"220 420 LINE",
"220 847 LINE",
"177 847 LINE",
"166 808 OFFCURVE",
"131 779 OFFCURVE",
"78 777 CURVE",
"78 768 LINE",
"181 768 LINE"
);
},
{
closed = 1;
nodes = (
"83 -9 LINE",
"116 -9 LINE",
"698 745 LINE",
"665 745 LINE"
);
},
{
closed = 1;
nodes = (
"600.1 452 OFFCURVE",
"546.24 422.2 OFFCURVE",
"546.24 361.77 CURVE SMOOTH",
"546.24 357.66 OFFCURVE",
"546.49 353.4 OFFCURVE",
"547 349 CURVE",
"588 353 LINE",
"585.61 361.37 OFFCURVE",
"584.47 369.18 OFFCURVE",
"584.47 376.41 CURVE SMOOTH",
"584.47 417.57 OFFCURVE",
"621.41 439.99 OFFCURVE",
"675 439.99 CURVE SMOOTH",
"747.41 439.99 OFFCURVE",
"770.03 386.37 OFFCURVE",
"770.03 331.59 CURVE SMOOTH",
"770.03 170.28 OFFCURVE",
"557.21 83.31 OFFCURVE",
"529 40.99 CURVE",
"529 14.99 LINE",
"821 14.99 LINE",
"821 42.99 LINE",
"572 42.99 LINE",
"614.78 80.8 OFFCURVE",
"809.02 188.89 OFFCURVE",
"809.02 333.77 CURVE SMOOTH",
"809.02 396.63 OFFCURVE",
"775.24 451.99 OFFCURVE",
"675 451.99 CURVE SMOOTH"
);
}
);
width = 882;
}
);
note = onehalf;
unicode = 00BD;
},
{
glyphname = onequarter;
layers = (
{
hints = (
{
horizontal = 1;
place = "{99, 25}";
type = Stem;
},
{
horizontal = 1;
place = "{768, 9}";
type = Stem;
},
{
place = "{181, 39}";
type = Stem;
},
{
place = "{697, 39}";
type = Stem;
}
);
layerId = "F5467FAD-1970-4982-B3D3-939C01050498";
paths = (
{
closed = 1;
nodes = (
"181 420 LINE",
"220 420 LINE",
"220 847 LINE",
"177 847 LINE",
"166 808 OFFCURVE",
"131 779 OFFCURVE",
"78 777 CURVE",
"78 768 LINE",
"181 768 LINE"
);
},
{
closed = 1;
nodes = (
"85 0 LINE",
"118 0 LINE",
"699 754 LINE",
"667 754 LINE"
);
},
{
closed = 1;
nodes = (
"736 0 LINE",
"736 99 LINE",
"814 99 LINE",
"814 124 LINE",
"736 124 LINE",
"736 428 LINE",
"702 428 LINE",
"450 125 LINE",
"449 99 LINE",
"697 99 LINE",
"697 0 LINE"
);
},
{
closed = 1;
nodes = (
"488 124 LINE",
"697 378.66 LINE",
"697 124 LINE"
);
}
);
width = 851;
}
);
note = onequarter;
unicode = 00BC;
},
{
glyphname = threequarters;
layers = (
{
hints = (
{
horizontal = 1;
place = "{99, 25}";
type = Stem;
},
{
horizontal = 1;
place = "{413, 19}";
type = Stem;
},
{
horizontal = 1;
place = "{657, 20.41}";
type = Stem;
},
{
horizontal = 1;
place = "{824, 24}";
type = Stem;
},
{
place = "{324, 33}";
type = Stem;
},
{
place = "{697, 39}";
type = Stem;
}
);
layerId = "F5467FAD-1970-4982-B3D3-939C01050498";
paths = (
{
closed = 1;
nodes = (
"347 824 LINE",
"347 848 LINE",
"74 848 LINE",
"74 824 LINE",
"313 824 LINE",
"156 671 LINE",
"173 653 LINE",
"184 655 OFFCURVE",
"195 657 OFFCURVE",
"208 657 CURVE SMOOTH",
"285 657 OFFCURVE",
"324 613 OFFCURVE",
"324 544 CURVE SMOOTH",
"324 465 OFFCURVE",
"268 432 OFFCURVE",
"211 432 CURVE SMOOTH",
"151 432 OFFCURVE",
"116 465 OFFCURVE",
"107 513 CURVE",
"69 513 LINE",
"83 448 OFFCURVE",
"144 413 OFFCURVE",
"211 413 CURVE SMOOTH",
"290 413 OFFCURVE",
"357 467 OFFCURVE",
"357 544 CURVE SMOOTH",
"357 615.79 OFFCURVE",
"311.25 677.41 OFFCURVE",
"217.42 677.41 CURVE SMOOTH",
"209.31 677.41 OFFCURVE",
"200.83 676.95 OFFCURVE",
"192 676 CURVE"
);
},
{
closed = 1;
nodes = (
"85 0 LINE",
"118 0 LINE",
"699 754 LINE",
"667 754 LINE"
);
},
{
closed = 1;
nodes = (
"736 0 LINE",
"736 99 LINE",
"814 99 LINE",
"814 124 LINE",
"736 124 LINE",
"736 428 LINE",
"702 428 LINE",
"450 125 LINE",
"449 99 LINE",
"697 99 LINE",
"697 0 LINE"
);
},
{
closed = 1;
nodes = (
"488 124 LINE",
"697 378.66 LINE",
"697 124 LINE"
);
}
);
width = 851;
}
);
note = threequarters;
unicode = 00BE;
},
{
glyphname = onesuperior;
layers = (
{
hints = (
{
horizontal = 1;
place = "{768, 9}";
type = Stem;
},
{
place = "{181, 39}";
type = Stem;
}
);
layerId = "F5467FAD-1970-4982-B3D3-939C01050498";
paths = (
{
closed = 1;
nodes = (
"181 420 LINE",
"220 420 LINE",
"220 847 LINE",
"177 847 LINE",
"166 808 OFFCURVE",
"131 779 OFFCURVE",
"78 777 CURVE",
"78 768 LINE",
"181 768 LINE"
);
}
);
width = 318;
}
);
note = onesuperior;
unicode = 00B9;
},
{
glyphname = twosuperior;
layers = (
{
hints = (
{
horizontal = 1;
place = "{423.99, 28}";
type = Stem;
},
{
horizontal = 1;
place = "{848.99, 12}";
type = Stem;
},
{
place = "{127.24, 38.23}";
type = Stem;
},
{
place = "{351.03, 38.99}";
type = Stem;
}
);
layerId = "F5467FAD-1970-4982-B3D3-939C01050498";
paths = (
{
closed = 1;
nodes = (
"181.1 861 OFFCURVE",
"127.24 831.2 OFFCURVE",
"127.24 770.77 CURVE SMOOTH",
"127.24 766.66 OFFCURVE",
"127.49 762.4 OFFCURVE",
"128 758 CURVE",
"169 762 LINE",
"166.61 770.37 OFFCURVE",
"165.47 778.18 OFFCURVE",
"165.47 785.41 CURVE SMOOTH",
"165.47 826.57 OFFCURVE",
"202.41 848.99 OFFCURVE",
"256 848.99 CURVE SMOOTH",
"328.41 848.99 OFFCURVE",
"351.03 795.37 OFFCURVE",
"351.03 740.59 CURVE SMOOTH",
"351.03 579.28 OFFCURVE",
"138.21 492.31 OFFCURVE",
"110 449.99 CURVE",
"110 423.99 LINE",
"402 423.99 LINE",
"402 451.99 LINE",
"153 451.99 LINE",
"195.78 489.8 OFFCURVE",
"390.02 597.89 OFFCURVE",
"390.02 742.77 CURVE SMOOTH",
"390.02 805.63 OFFCURVE",
"356.24 860.99 OFFCURVE",
"256 860.99 CURVE SMOOTH"
);
}
);
width = 473;
}
);
note = twosuperior;
unicode = 00B2;
},
{
glyphname = threesuperior;
layers = (
{
hints = (
{
horizontal = 1;
place = "{413, 19}";
type = Stem;
},
{
horizontal = 1;
place = "{657, 20.41}";
type = Stem;
},
{
horizontal = 1;
place = "{824, 24}";
type = Stem;
},
{
place = "{324, 33}";
type = Stem;
}
);
layerId = "F5467FAD-1970-4982-B3D3-939C01050498";
paths = (
{
closed = 1;
nodes = (
"347 824 LINE",
"347 848 LINE",
"74 848 LINE",
"74 824 LINE",
"313 824 LINE",
"156 671 LINE",
"173 653 LINE",
"184 655 OFFCURVE",
"195 657 OFFCURVE",
"208 657 CURVE SMOOTH",
"285 657 OFFCURVE",
"324 613 OFFCURVE",
"324 544 CURVE SMOOTH",
"324 465 OFFCURVE",
"268 432 OFFCURVE",
"211 432 CURVE SMOOTH",
"151 432 OFFCURVE",
"116 465 OFFCURVE",
"107 513 CURVE",
"69 513 LINE",
"83 448 OFFCURVE",
"144 413 OFFCURVE",
"211 413 CURVE SMOOTH",
"290 413 OFFCURVE",
"357 467 OFFCURVE",
"357 544 CURVE SMOOTH",
"357 615.79 OFFCURVE",
"311.25 677.41 OFFCURVE",
"217.42 677.41 CURVE SMOOTH",
"209.31 677.41 OFFCURVE",
"200.83 676.95 OFFCURVE",
"192 676 CURVE"
);
}
);
width = 391;
}
);
note = threesuperior;
unicode = 00B3;
},
{
glyphname = asterisk;
layers = (
{
hints = (
{
horizontal = 1;
place = "{431, 258}";
type = Stem;
},
{
place = "{270, 38}";
type = Stem;
}
);
layerId = "F5467FAD-1970-4982-B3D3-939C01050498";
paths = (
{
closed = 1;
nodes = (
"406 504 LINE",
"416 537 LINE",
"346.86 559.38 LINE",
"417 582 LINE",
"406 617 LINE",
"335.68 594.32 LINE",
"379 654 LINE",
"350 674 LINE",
"308 616.14 LINE",
"308 689 LINE",
"270 689 LINE",
"270 615.54 LINE",
"227 674 LINE",
"198 654 LINE",
"242.82 593.07 LINE",
"172 616 LINE",
"162 583 LINE",
"231.13 560.61 LINE",
"161 538 LINE",
"172 503 LINE",
"242.32 525.67 LINE",
"199 466 LINE",
"228 446 LINE",
"270 503.85 LINE",
"270 431 LINE",
"308 431 LINE",
"308 504.45 LINE",
"351 446 LINE",
"380 466 LINE",
"335.18 526.93 LINE"
);
}
);
width = 600;
}
);
note = asterisk;
unicode = 002A;
},
{
glyphname = backslash;
layers = (
{
hints = (
{
horizontal = 1;
place = "{-127, 859}";
type = Stem;
},
{
place = "{149, 289}";
type = Stem;
}
);
layerId = "F5467FAD-1970-4982-B3D3-939C01050498";
paths = (
{
closed = 1;
nodes = (
"403 -127 LINE",
"438 -127 LINE",
"184 732 LINE",
"149 732 LINE"
);
}
);
width = 600;
}
);
note = backslash;
rightKerningGroup = backslash;
unicode = 005C;
},
{
glyphname = periodcentered;
layers = (
{
hints = (
{
horizontal = 1;
place = "{224, 68}";
type = Stem;
},
{
place = "{266, 68}";
type = Stem;
}
);
layerId = "F5467FAD-1970-4982-B3D3-939C01050498";
paths = (
{
closed = 1;
nodes = (
"334 292 LINE",
"266 292 LINE",
"266 224 LINE",
"334 224 LINE"
);
}
);
width = 600;
}
);
note = periodcentered;
unicode = 00B7;
},
{
glyphname = bullet;
layers = (
{
hints = (
{
horizontal = 1;
place = "{116, 358}";
type = Stem;
},
{
place = "{121, 358}";
type = Stem;
}
);
layerId = "F5467FAD-1970-4982-B3D3-939C01050498";
paths = (
{
closed = 1;
nodes = (
"399 116 OFFCURVE",
"479 196 OFFCURVE",
"479 295 CURVE SMOOTH",
"479 394 OFFCURVE",
"399 474 OFFCURVE",
"300 474 CURVE SMOOTH",
"201 474 OFFCURVE",
"121 394 OFFCURVE",
"121 295 CURVE SMOOTH",
"121 196 OFFCURVE",
"201 116 OFFCURVE",
"300 116 CURVE SMOOTH"
);
}
);
width = 600;
}
);
note = bullet;
unicode = 2022;
},
{
glyphname = colon;
layers = (
{
hints = (
{
horizontal = 1;
place = "{-1, 68.54}";
type = Stem;
},
{
horizontal = 1;
place = "{398, 68}";
type = Stem;
},
{
place = "{101, 68}";
type = Stem;
}
);
layerId = "F5467FAD-1970-4982-B3D3-939C01050498";
paths = (
{
closed = 1;
nodes = (
"169 466 LINE",
"101 466 LINE",
"101 398 LINE",
"169 398 LINE"
);
},
{
closed = 1;
nodes = (
"169.35 67.54 LINE",
"100.8 67.54 LINE",
"100.8 -1 LINE",
"169.35 -1 LINE"
);
}
);
width = 270;
}
);
note = colon;
unicode = 003A;
},
{
glyphname = comma;
layers = (
{
hints = (
{
horizontal = 1;
place = "{0, 68}";
type = Stem;
},
{
place = "{149, 20}";
type = Stem;
}
);
layerId = "F5467FAD-1970-4982-B3D3-939C01050498";
paths = (
{
closed = 1;
nodes = (
"169 68 LINE",
"101 68 LINE",
"101 0 LINE",
"149 0 LINE",
"149 -9 LINE SMOOTH",
"149 -33 OFFCURVE",
"148 -66 OFFCURVE",
"109 -100 CURVE",
"109 -131 LINE",
"155 -94 OFFCURVE",
"169 -46 OFFCURVE",
"169 -9 CURVE SMOOTH"
);
}
);
width = 360;
}
);
leftKerningGroup = comma;
note = comma;
unicode = 002C;
},
{
glyphname = ellipsis;
layers = (
{
hints = (
{
horizontal = 1;
place = "{0, 68}";
type = Stem;
},
{
place = "{101, 68}";
type = Stem;
},
{
place = "{316, 68}";
type = Stem;
},
{
place = "{523, 68}";
type = Stem;
}
);
layerId = "F5467FAD-1970-4982-B3D3-939C01050498";
paths = (
{
closed = 1;
nodes = (
"169 68 LINE",
"101 68 LINE",
"101 0 LINE",
"169 0 LINE"
);
},
{
closed = 1;
nodes = (
"384 68 LINE",
"316 68 LINE",
"316 0 LINE",
"384 0 LINE"
);
},
{
closed = 1;
nodes = (
"591 68 LINE",
"523 68 LINE",
"523 0 LINE",
"591 0 LINE"
);
}
);
width = 692;
}
);
leftKerningGroup = comma;
note = ellipsis;
unicode = 2026;
},
{
glyphname = exclam;
layers = (
{
hints = (
{
horizontal = 1;
place = "{0, 68}";
type = Stem;
},
{
place = "{123.31, 63.36}";
type = Stem;
},
{
place = "{120.99, 68}";
type = Stem;
}
);
layerId = "F5467FAD-1970-4982-B3D3-939C01050498";
paths = (
{
closed = 1;
nodes = (
"123.31 608 LINE",
"142.12 214 LINE",
"167.86 214 LINE",
"186.67 608 LINE",
"186.67 731 LINE",
"123.31 731 LINE"
);
},
{
closed = 1;
nodes = (
"188.99 68 LINE",
"120.99 68 LINE",
"120.99 0 LINE",
"188.99 0 LINE"
);
}
);
width = 310;
}
);
leftKerningGroup = exclam;
note = exclam;
unicode = 0021;
},
{
glyphname = exclamdown;
layers = (
{
hints = (
{
horizontal = 1;
place = "{473, 68}";
type = Stem;
},
{
place = "{121, 68}";
type = Stem;
},
{
place = "{123.32, 63.36}";
type = Stem;
}
);
layerId = "F5467FAD-1970-4982-B3D3-939C01050498";
paths = (
{
closed = 1;
nodes = (
"189 473 LINE",
"189 541 LINE",
"121 541 LINE",
"121 473 LINE"
);
},
{
closed = 1;
nodes = (
"186.68 -190 LINE",
"186.68 -67 LINE",
"167.87 327 LINE",
"142.13 327 LINE",
"123.32 -67 LINE",
"123.32 -190 LINE"
);
}
);
width = 310;
}
);
note = exclamdown;
unicode = 00A1;
},
{
glyphname = numbersign;
layers = (
{
hints = (
{
horizontal = 1;
place = "{190, 37}";
type = Stem;
},
{
horizontal = 1;
place = "{504, 36}";
type = Stem;
},
{
place = "{30.99, 779}";
type = Stem;
}
);
layerId = "F5467FAD-1970-4982-B3D3-939C01050498";
paths = (
{
closed = 1;
nodes = (
"730 227 LINE",
"562.97 227 LINE",
"655.66 504 LINE",
"809.99 504 LINE",
"809.99 540 LINE",
"667.71 540 LINE",
"739.99 756 LINE",
"698.99 756 LINE",
"626.71 540 LINE",
"320.71 540 LINE",
"392.99 756 LINE",
"350.99 756 LINE",
"278.99 540 LINE",
"98.99 540 LINE",
"98.99 504 LINE",
"266.99 504 LINE",
"174.66 227 LINE",
"30.99 227 LINE",
"30.99 190 LINE",
"162.33 190 LINE",
"96.99 -6 LINE",
"137.99 -6 LINE",
"203.58 190 LINE",
"509.58 190 LINE",
"443.99 -6 LINE",
"484.99 -6 LINE",
"550.58 190 LINE",
"729.99 190 LINE"
);
},
{
closed = 1;
nodes = (
"215.96 227 LINE",
"308.66 504 LINE",
"614.66 504 LINE",
"521.96 227 LINE"
);
}
);
width = 823;
}
);
note = numbersign;
unicode = 0023;
},
{
glyphname = period;
layers = (
{
hints = (
{
horizontal = 1;
place = "{0, 68}";
type = Stem;
},
{
place = "{101, 68}";
type = Stem;
}
);
layerId = "F5467FAD-1970-4982-B3D3-939C01050498";
paths = (
{
closed = 1;
nodes = (
"169 68 LINE",
"101 68 LINE",
"101 0 LINE",
"169 0 LINE"
);
}
);
width = 296;
}
);
leftKerningGroup = comma;
note = period;
rightKerningGroup = period;
unicode = 002E;
},
{
glyphname = question;
layers = (
{
hints = (
{
horizontal = 1;
place = "{0, 68}";
type = Stem;
},
{
horizontal = 1;
place = "{216, 14.99}";
type = Stem;
},
{
horizontal = 1;
place = "{701, 18}";
type = Stem;
},
{
place = "{139, 53}";
type = Stem;
},
{
place = "{241, 68}";
type = Stem;
},
{
place = "{413, 53}";
type = Stem;
}
);
layerId = "F5467FAD-1970-4982-B3D3-939C01050498";
paths = (
{
closed = 1;
nodes = (
"354.6 701 OFFCURVE",
"413 652.33 OFFCURVE",
"413 578 CURVE SMOOTH",
"413 499.94 OFFCURVE",
"340.92 482.41 OFFCURVE",
"266.73 452.14 CURVE SMOOTH",
"208.99 428.02 OFFCURVE",
"139 397.59 OFFCURVE",
"139 327 CURVE SMOOTH",
"139 254.46 OFFCURVE",
"203.45 216 OFFCURVE",
"275 216 CURVE SMOOTH",
"327.17 216 OFFCURVE",
"365.87 235.9 OFFCURVE",
"389.21 276.98 CURVE",
"385.8 274.09 LINE",
"366.8 280.09 LINE",
"359.77 281.01 LINE",
"340.15 246.14 OFFCURVE",
"308.96 230.99 OFFCURVE",
"280 230.99 CURVE SMOOTH",
"228.99 230.99 OFFCURVE",
"192 270.91 OFFCURVE",
"192 326.99 CURVE SMOOTH",
"192 392.44 OFFCURVE",
"240.86 424.35 OFFCURVE",
"274.5 439.81 CURVE SMOOTH",
"342.14 471.61 OFFCURVE",
"466 495.88 OFFCURVE",
"466 580 CURVE SMOOTH",
"466 648.95 OFFCURVE",
"403.06 719 OFFCURVE",
"275 719 CURVE SMOOTH",
"189.86 719 OFFCURVE",
"107.14 677.11 OFFCURVE",
"76.62 615.12 CURVE",
"78.71 617.67 LINE",
"107.71 598.67 LINE",
"116.39 597.88 LINE",
"146 658.17 OFFCURVE",
"196.44 701 OFFCURVE",
"275 701 CURVE SMOOTH"
);
},
{
closed = 1;
nodes = (
"309 68 LINE",
"241 68 LINE",
"241 0 LINE",
"309 0 LINE"
);
}
);
width = 501;
}
);
leftKerningGroup = question;
note = question;
unicode = 003F;
},
{
glyphname = questiondown;
layers = (
{
hints = (
{
horizontal = 1;
place = "{-214, 17.99}";
type = Stem;
},
{
horizontal = 1;
place = "{274, 15}";
type = Stem;
},
{
horizontal = 1;
place = "{437, 68}";
type = Stem;
},
{
place = "{35, 53}";
type = Stem;
},
{
place = "{192, 68}";
type = Stem;
},
{
place = "{309, 53}";
type = Stem;
}
);
layerId = "F5467FAD-1970-4982-B3D3-939C01050498";
paths = (
{
closed = 1;
nodes = (
"192 437 LINE",
"260 437 LINE",
"260 505 LINE",
"192 505 LINE"
);
},
{
closed = 1;
nodes = (
"146.39 -196 OFFCURVE",
"88 -147.34 OFFCURVE",
"88 -73 CURVE SMOOTH",
"88 5.06 OFFCURVE",
"160.07 22.59 OFFCURVE",
"234.26 52.85 CURVE SMOOTH",
"292.01 76.97 OFFCURVE",
"362 107.4 OFFCURVE",
"362 178 CURVE SMOOTH",
"362 250.53 OFFCURVE",
"297.55 289 OFFCURVE",
"226 289 CURVE SMOOTH",
"173.82 289 OFFCURVE",
"135.13 269.1 OFFCURVE",
"111.78 228.01 CURVE",
"115.19 230.91 LINE",
"134.19 224.91 LINE",
"141.23 223.98 LINE",
"160.84 258.85 OFFCURVE",
"192.03 274 OFFCURVE",
"221 274 CURVE SMOOTH",
"272 274 OFFCURVE",
"309 234.09 OFFCURVE",
"309 178 CURVE SMOOTH",
"309 112.55 OFFCURVE",
"260.14 80.64 OFFCURVE",
"226.49 65.18 CURVE SMOOTH",
"158.86 33.38 OFFCURVE",
"35 9.11 OFFCURVE",
"35 -75 CURVE SMOOTH",
"35 -143.96 OFFCURVE",
"97.94 -214 OFFCURVE",
"226 -214 CURVE SMOOTH",
"311.13 -214 OFFCURVE",
"393.86 -172.12 OFFCURVE",
"424.38 -110.12 CURVE",
"422.28 -112.68 LINE",
"393.28 -93.68 LINE",
"384.61 -92.89 LINE",
"354.99 -153.18 OFFCURVE",
"304.55 -196.01 OFFCURVE",
"226 -196.01 CURVE SMOOTH"
);
}
);
width = 501;
}
);
note = questiondown;
unicode = 00BF;
},
{
glyphname = quotedbl;
layers = (
{
hints = (
{
horizontal = 1;
place = "{502, 224}";
type = Stem;
},
{
place = "{186.5, 57}";
type = Stem;
},
{
place = "{400.5, 57}";
type = Stem;
}
);
layerId = "F5467FAD-1970-4982-B3D3-939C01050498";
paths = (
{
closed = 1;
nodes = (
"248 726 LINE",
"182 726 LINE",
"191 502 LINE",
"239 502 LINE"
);
},
{
closed = 1;
nodes = (
"462 726 LINE",
"396 726 LINE",
"405 502 LINE",
"453 502 LINE"
);
}
);
width = 644;
}
);
note = quotedbl;
unicode = 0022;
},
{
glyphname = quotesingle;
layers = (
{
hints = (
{
horizontal = 1;
place = "{502, 224}";
type = Stem;
},
{
place = "{186.5, 57}";
type = Stem;
}
);
layerId = "F5467FAD-1970-4982-B3D3-939C01050498";
paths = (
{
closed = 1;
nodes = (
"248 726 LINE",
"182 726 LINE",
"191 502 LINE",
"239 502 LINE"
);
}
);
width = 430;
}
);
note = quotesingle;
rightKerningGroup = quotesingle;
unicode = 0027;
},
{
glyphname = semicolon;
layers = (
{
hints = (
{
horizontal = 1;
place = "{2, 68}";
type = Stem;
},
{
horizontal = 1;
place = "{386, 68}";
type = Stem;
},
{
place = "{126, 68}";
type = Stem;
},
{
place = "{154, 20}";
type = Stem;
}
);
layerId = "F5467FAD-1970-4982-B3D3-939C01050498";
paths = (
{
closed = 1;
nodes = (
"194 386 LINE",
"194 454 LINE",
"126 454 LINE",
"126 386 LINE"
);
},
{
closed = 1;
nodes = (
"174 70 LINE",
"106 70 LINE",
"106 2 LINE",
"154 2 LINE",
"154 -7 LINE SMOOTH",
"154 -31 OFFCURVE",
"153 -64 OFFCURVE",
"114 -98 CURVE",
"114 -129 LINE",
"160 -92 OFFCURVE",
"174 -44 OFFCURVE",
"174 -7 CURVE SMOOTH"
);
}
);
width = 385;
}
);
note = semicolon;
unicode = 003B;
},
{
glyphname = slash;
layers = (
{
hints = (
{
horizontal = 1;
place = "{-127, 859}";
type = Stem;
},
{
place = "{62, 289}";
type = Stem;
}
);
layerId = "F5467FAD-1970-4982-B3D3-939C01050498";
paths = (
{
closed = 1;
nodes = (
"97 -127 LINE",
"351 732 LINE",
"316 732 LINE",
"62 -127 LINE"
);
}
);
width = 413;
}
);
note = slash;
unicode = 002F;
},
{
glyphname = underscore;
layers = (
{
hints = (
{
horizontal = 1;
place = "{-144, 44}";
type = Stem;
},
{
place = "{15, 564}";
type = Stem;
}
);
layerId = "F5467FAD-1970-4982-B3D3-939C01050498";
paths = (
{
closed = 1;
nodes = (
"579 -100 LINE",
"15 -100 LINE",
"15 -144 LINE",
"579 -144 LINE"
);
}
);
width = 600;
}
);
note = underscore;
rightKerningGroup = underscore;
unicode = 005F;
},
{
glyphname = braceleft;
layers = (
{
hints = (
{
horizontal = 1;
place = "{-163.33, 24.84}";
type = Stem;
},
{
horizontal = 1;
place = "{303, 31}";
type = Stem;
},
{
place = "{226, 44}";
type = Stem;
},
{
place = "{282.19, 35.06}";
type = Stem;
}
);
layerId = "F5467FAD-1970-4982-B3D3-939C01050498";
paths = (
{
closed = 1;
nodes = (
"336 800 LINE",
"262 791 OFFCURVE",
"226 752 OFFCURVE",
"226 656 CURVE SMOOTH",
"226 557.64 OFFCURVE",
"280.96 465.57 OFFCURVE",
"280.96 412.47 CURVE SMOOTH",
"280.96 405.65 OFFCURVE",
"280.05 399.47 OFFCURVE",
"278 394 CURVE SMOOTH",
"261 349 OFFCURVE",
"216 337 OFFCURVE",
"176 334 CURVE",
"176 303 LINE",
"215 302 OFFCURVE",
"263 286 OFFCURVE",
"279 245 CURVE SMOOTH",
"281.21 238.82 OFFCURVE",
"282.19 231.95 OFFCURVE",
"282.19 224.46 CURVE SMOOTH",
"282.19 167.7 OFFCURVE",
"226 75.41 OFFCURVE",
"226 -20 CURVE SMOOTH",
"226 -107.28 OFFCURVE",
"256.39 -163.33 OFFCURVE",
"318.72 -163.33 CURVE SMOOTH",
"324.23 -163.33 OFFCURVE",
"329.99 -162.89 OFFCURVE",
"336 -162 CURVE",
"336 -137 LINE",
"331.53 -138 OFFCURVE",
"327.33 -138.49 OFFCURVE",
"323.39 -138.49 CURVE SMOOTH",
"284.04 -138.49 OFFCURVE",
"269.99 -89.98 OFFCURVE",
"269.99 -20 CURVE SMOOTH",
"269.99 72.23 OFFCURVE",
"317.25 154.44 OFFCURVE",
"317.25 218.75 CURVE SMOOTH",
"317.25 230.44 OFFCURVE",
"315.69 241.54 OFFCURVE",
"312 252 CURVE SMOOTH",
"297.36 290.06 OFFCURVE",
"264.5 309.37 OFFCURVE",
"223.63 318.95 CURVE",
"264.81 328.49 OFFCURVE",
"297.31 347.8 OFFCURVE",
"312 386 CURVE SMOOTH",
"315.46 395.62 OFFCURVE",
"316.93 405.98 OFFCURVE",
"316.93 417.02 CURVE SMOOTH",
"316.93 479.43 OFFCURVE",
"270 563.38 OFFCURVE",
"270 655.99 CURVE SMOOTH",
"270 734.99 OFFCURVE",
"289 765.99 OFFCURVE",
"336 774.99 CURVE"
);
}
);
width = 512;
}
);
note = braceleft;
unicode = 007B;
},
{
glyphname = braceright;
layers = (
{
hints = (
{
horizontal = 1;
place = "{-163.33, 24.85}";
type = Stem;
},
{
horizontal = 1;
place = "{303, 31}";
type = Stem;
},
{
place = "{258, 44}";
type = Stem;
},
{
place = "{211.07, 35.97}";
type = Stem;
}
);
layerId = "F5467FAD-1970-4982-B3D3-939C01050498";
paths = (
{
closed = 1;
nodes = (
"192 775 LINE",
"239 766 OFFCURVE",
"258 735 OFFCURVE",
"258 656 CURVE SMOOTH",
"258 563.38 OFFCURVE",
"211.07 479.43 OFFCURVE",
"211.07 417.03 CURVE SMOOTH",
"211.07 405.99 OFFCURVE",
"212.54 395.62 OFFCURVE",
"216 386 CURVE SMOOTH",
"230.69 347.81 OFFCURVE",
"263.19 328.5 OFFCURVE",
"304.37 318.95 CURVE",
"263.5 309.37 OFFCURVE",
"230.64 290.06 OFFCURVE",
"216 252 CURVE SMOOTH",
"212.31 241.54 OFFCURVE",
"210.75 230.44 OFFCURVE",
"210.75 218.75 CURVE SMOOTH",
"210.75 154.44 OFFCURVE",
"258.01 72.24 OFFCURVE",
"258.01 -19.99 CURVE SMOOTH",
"258.01 -89.98 OFFCURVE",
"243.96 -138.48 OFFCURVE",
"204.61 -138.48 CURVE SMOOTH",
"200.67 -138.48 OFFCURVE",
"196.47 -137.99 OFFCURVE",
"192 -136.99 CURVE",
"192 -161.99 LINE",
"198.01 -162.89 OFFCURVE",
"203.77 -163.33 OFFCURVE",
"209.28 -163.33 CURVE SMOOTH",
"271.61 -163.33 OFFCURVE",
"302 -107.28 OFFCURVE",
"302 -20 CURVE SMOOTH",
"302 75.41 OFFCURVE",
"245.81 167.7 OFFCURVE",
"245.81 224.46 CURVE SMOOTH",
"245.81 231.95 OFFCURVE",
"246.79 238.82 OFFCURVE",
"249 245 CURVE SMOOTH",
"265 286 OFFCURVE",
"313 302 OFFCURVE",
"352 303 CURVE",
"352 334 LINE",
"312 337 OFFCURVE",
"267 349 OFFCURVE",
"250 394 CURVE SMOOTH",
"247.95 399.47 OFFCURVE",
"247.04 405.65 OFFCURVE",
"247.04 412.48 CURVE SMOOTH",
"247.04 465.57 OFFCURVE",
"302 557.65 OFFCURVE",
"302 656 CURVE SMOOTH",
"302 752 OFFCURVE",
"266 791 OFFCURVE",
"192 800 CURVE"
);
}
);
width = 512;
}
);
note = braceright;
unicode = 007D;
},
{
glyphname = bracketleft;
layers = (
{
hints = (
{
horizontal = 1;
place = "{-165, 45}";
type = Stem;
},
{
horizontal = 1;
place = "{783, 45}";
type = Stem;
},
{
place = "{172, 50}";
type = Stem;
}
);
layerId = "F5467FAD-1970-4982-B3D3-939C01050498";
paths = (
{
closed = 1;
nodes = (
"378 -120 LINE",
"222 -120 LINE",
"222 783 LINE",
"378 783 LINE",
"378 828 LINE",
"172 828 LINE",
"172 -165 LINE",
"378 -165 LINE"
);
}
);
width = 500;
}
);
note = bracketleft;
rightKerningGroup = bracketleft;
unicode = 005B;
},
{
glyphname = bracketright;
layers = (
{
hints = (
{
horizontal = 1;
place = "{-165, 45}";
type = Stem;
},
{
horizontal = 1;
place = "{783, 45}";
type = Stem;
},
{
place = "{328, 50}";
type = Stem;
}
);
layerId = "F5467FAD-1970-4982-B3D3-939C01050498";
paths = (
{
closed = 1;
nodes = (
"172 828 LINE",
"172 783 LINE",
"328 783 LINE",
"328 -120 LINE",
"172 -120 LINE",
"172 -165 LINE",
"378 -165 LINE",
"378 828 LINE"
);
}
);
width = 500;
}
);
leftKerningGroup = bracketright;
note = bracketright;
rightKerningGroup = bracketright;
unicode = 005D;
},
{
glyphname = parenleft;
layers = (
{
hints = (
{
horizontal = 1;
place = "{-159, 940}";
type = Stem;
},
{
place = "{105, 60}";
type = Stem;
}
);
layerId = "F5467FAD-1970-4982-B3D3-939C01050498";
paths = (
{
closed = 1;
nodes = (
"264 781 LINE",
"195 687 OFFCURVE",
"108 536 OFFCURVE",
"105 312 CURVE SMOOTH",
"108 98 OFFCURVE",
"197 -57 OFFCURVE",
"265 -159 CURVE",
"290 -159 LINE",
"229 -51 OFFCURVE",
"168 105 OFFCURVE",
"165 309 CURVE",
"168 519 OFFCURVE",
"227 677 OFFCURVE",
"288 781 CURVE"
);
}
);
width = 373;
}
);
note = parenleft;
rightKerningGroup = parenleft;
unicode = 0028;
},
{
glyphname = parenright;
layers = (
{
hints = (
{
horizontal = 1;
place = "{-159, 940}";
type = Stem;
},
{
place = "{208, 60}";
type = Stem;
}
);
layerId = "F5467FAD-1970-4982-B3D3-939C01050498";
paths = (
{
closed = 1;
nodes = (
"85 781 LINE",
"146 677 OFFCURVE",
"205 519 OFFCURVE",
"208 309 CURVE SMOOTH",
"205 105 OFFCURVE",
"144 -51 OFFCURVE",
"83 -159 CURVE",
"108 -159 LINE",
"176 -57 OFFCURVE",
"265 98 OFFCURVE",
"268 312 CURVE",
"265 536 OFFCURVE",
"178 687 OFFCURVE",
"109 781 CURVE"
);
}
);
width = 373;
}
);
leftKerningGroup = parenright;
note = parenright;
unicode = 0029;
},
{
glyphname = emdash;
layers = (
{
hints = (
{
horizontal = 1;
place = "{293, 34}";
type = Stem;
},
{
place = "{21, 557}";
type = Stem;
}
);
layerId = "F5467FAD-1970-4982-B3D3-939C01050498";
paths = (
{
closed = 1;
nodes = (
"578 327 LINE",
"21 327 LINE",
"21 293 LINE",
"578 293 LINE"
);
}
);
width = 600;
}
);
note = emdash;
unicode = 2014;
},
{
glyphname = endash;
layers = (
{
hints = (
{
horizontal = 1;
place = "{293, 34}";
type = Stem;
},
{
place = "{95, 409}";
type = Stem;
}
);
layerId = "F5467FAD-1970-4982-B3D3-939C01050498";
paths = (
{
closed = 1;
nodes = (
"504 327 LINE",
"95 327 LINE",
"95 293 LINE",
"504 293 LINE"
);
}
);
width = 600;
}
);
note = endash;
unicode = 2013;
},
{
glyphname = hyphen;
layers = (
{
hints = (
{
horizontal = 1;
place = "{243, 34}";
type = Stem;
},
{
place = "{64, 389}";
type = Stem;
}
);
layerId = "F5467FAD-1970-4982-B3D3-939C01050498";
paths = (
{
closed = 1;
nodes = (
"453 277 LINE",
"64 277 LINE",
"64 243 LINE",
"453 243 LINE"
);
}
);
width = 517;
}
);
note = hyphen;
unicode = 002D;
},
{
glyphname = softhyphen;
layers = (
{
hints = (
{
horizontal = 1;
place = "{243, 34}";
type = Stem;
},
{
place = "{64, 389}";
type = Stem;
}
);
layerId = "F5467FAD-1970-4982-B3D3-939C01050498";
paths = (
{
closed = 1;
nodes = (
"453 277 LINE",
"64 277 LINE",
"64 243 LINE",
"453 243 LINE"
);
}
);
width = 600;
}
);
note = softhyphen;
unicode = 00AD;
},
{
glyphname = guillemotleft;
layers = (
{
hints = (
{
horizontal = 1;
place = "{81, 371}";
type = Stem;
},
{
place = "{55, 382.52}";
type = Stem;
}
);
layerId = "F5467FAD-1970-4982-B3D3-939C01050498";
paths = (
{
closed = 1;
nodes = (
"219 81 LINE",
"229 88 LINE",
"127.56 267 LINE",
"229 446 LINE",
"219 452 LINE",
"56.76 268 LINE",
"55 268 LINE",
"55.88 266.99 LINE",
"55 266 LINE",
"56.75 266 LINE"
);
},
{
closed = 1;
nodes = (
"428.43 97.63 LINE",
"437.52 103.99 LINE",
"345.32 266.7 LINE",
"437.52 429.41 LINE",
"428.43 434.87 LINE",
"280.96 267.61 LINE",
"279.35 267.61 LINE",
"280.15 266.7 LINE",
"279.35 265.8 LINE",
"280.95 265.8 LINE"
);
}
);
width = 527;
}
);
note = guillemotleft;
unicode = 00AB;
},
{
glyphname = guillemotright;
layers = (
{
hints = (
{
horizontal = 1;
place = "{81, 371}";
type = Stem;
},
{
place = "{88.47, 382.53}";
type = Stem;
}
);
layerId = "F5467FAD-1970-4982-B3D3-939C01050498";
paths = (
{
closed = 1;
nodes = (
"307 452 LINE",
"297 446 LINE",
"398.43 267 LINE",
"297 88 LINE",
"307 81 LINE",
"469.24 266 LINE",
"471 266 LINE",
"470.12 266.99 LINE",
"471 268 LINE",
"469.23 268 LINE"
);
},
{
closed = 1;
nodes = (
"97.56 434.87 LINE",
"88.47 429.41 LINE",
"180.67 266.7 LINE",
"88.47 103.99 LINE",
"97.56 97.63 LINE",
"245.04 265.79 LINE",
"246.63 265.79 LINE",
"245.83 266.7 LINE",
"246.63 267.61 LINE",
"245.03 267.61 LINE"
);
}
);
width = 526;
}
);
note = guillemotright;
unicode = 00BB;
},
{
glyphname = guilsinglleft;
layers = (
{
hints = (
{
horizontal = 1;
place = "{81, 371}";
type = Stem;
},
{
place = "{40, 174}";
type = Stem;
}
);
layerId = "F5467FAD-1970-4982-B3D3-939C01050498";
paths = (
{
closed = 1;
nodes = (
"204 81 LINE",
"214 88 LINE",
"112.56 267 LINE",
"214 446 LINE",
"204 452 LINE",
"41.76 268 LINE",
"40 268 LINE",
"40.88 266.99 LINE",
"40 266 LINE",
"41.75 266 LINE"
);
}
);
width = 347;
}
);
note = guilsinglleft;
unicode = 2039;
},
{
glyphname = guilsinglright;
layers = (
{
hints = (
{
horizontal = 1;
place = "{81, 371}";
type = Stem;
},
{
place = "{133, 174}";
type = Stem;
}
);
layerId = "F5467FAD-1970-4982-B3D3-939C01050498";
paths = (
{
closed = 1;
nodes = (
"143 452 LINE",
"133 446 LINE",
"234.43 267 LINE",
"133 88 LINE",
"143 81 LINE",
"305.24 266 LINE",
"307 266 LINE",
"306.12 266.99 LINE",
"307 268 LINE",
"305.23 268 LINE"
);
}
);
width = 352;
}
);
note = guilsinglright;
unicode = 203A;
},
{
glyphname = quotedblbase;
layers = (
{
hints = (
{
horizontal = 1;
place = "{0, 68}";
type = Stem;
},
{
place = "{149, 20}";
type = Stem;
},
{
place = "{412, 20}";
type = Stem;
}
);
layerId = "F5467FAD-1970-4982-B3D3-939C01050498";
paths = (
{
closed = 1;
nodes = (
"169 68 LINE",
"101 68 LINE",
"101 0 LINE",
"149 0 LINE",
"149 -9 LINE SMOOTH",
"149 -33 OFFCURVE",
"148 -66 OFFCURVE",
"109 -100 CURVE",
"109 -131 LINE",
"155 -94 OFFCURVE",
"169 -46 OFFCURVE",
"169 -9 CURVE SMOOTH"
);
},
{
closed = 1;
nodes = (
"432 68 LINE",
"364 68 LINE",
"364 0 LINE",
"412 0 LINE",
"412 -9 LINE SMOOTH",
"412 -33 OFFCURVE",
"411 -66 OFFCURVE",
"372 -100 CURVE",
"372 -131 LINE",
"418 -94 OFFCURVE",
"432 -46 OFFCURVE",
"432 -9 CURVE SMOOTH"
);
}
);
width = 600;
}
);
note = quotedblbase;
rightKerningGroup = quotedblbase;
unicode = 201E;
},
{
glyphname = quotedblleft;
layers = (
{
hints = (
{
horizontal = 1;
place = "{564, 68}";
type = Stem;
},
{
place = "{141, 20}";
type = Stem;
},
{
place = "{379, 20}";
type = Stem;
}
);
layerId = "F5467FAD-1970-4982-B3D3-939C01050498";
paths = (
{
closed = 1;
nodes = (
"209 632 LINE",
"161 632 LINE",
"161 641 LINE SMOOTH",
"161 665 OFFCURVE",
"162 698 OFFCURVE",
"201 732 CURVE",
"201 763 LINE",
"155 726 OFFCURVE",
"141 678 OFFCURVE",
"141 641 CURVE SMOOTH",
"141 564 LINE",
"209 564 LINE"
);
},
{
closed = 1;
nodes = (
"447 564 LINE",
"447 632 LINE",
"399 632 LINE",
"399 641 LINE SMOOTH",
"399 665 OFFCURVE",
"400 698 OFFCURVE",
"439 732 CURVE",
"439 763 LINE",
"393 726 OFFCURVE",
"379 678 OFFCURVE",
"379 641 CURVE SMOOTH",
"379 564 LINE"
);
}
);
width = 548;
}
);
leftKerningGroup = quotedblleft;
note = quotedblleft;
rightKerningGroup = quotedblleft;
unicode = 201C;
},
{
glyphname = quotedblright;
layers = (
{
hints = (
{
horizontal = 1;
place = "{649, 68}";
type = Stem;
},
{
place = "{149, 20}";
type = Stem;
},
{
place = "{387, 20}";
type = Stem;
}
);
layerId = "F5467FAD-1970-4982-B3D3-939C01050498";
paths = (
{
closed = 1;
nodes = (
"169 717 LINE",
"101 717 LINE",
"101 649 LINE",
"149 649 LINE",
"149 640 LINE SMOOTH",
"149 616 OFFCURVE",
"148 583 OFFCURVE",
"109 549 CURVE",
"109 518 LINE",
"155 555 OFFCURVE",
"169 603 OFFCURVE",
"169 640 CURVE SMOOTH"
);
},
{
closed = 1;
nodes = (
"407 717 LINE",
"339 717 LINE",
"339 649 LINE",
"387 649 LINE",
"387 640 LINE SMOOTH",
"387 616 OFFCURVE",
"386 583 OFFCURVE",
"347 549 CURVE",
"347 518 LINE",
"393 555 OFFCURVE",
"407 603 OFFCURVE",
"407 640 CURVE SMOOTH"
);
}
);
width = 548;
}
);
leftKerningGroup = quotedblright;
note = quotedblright;
unicode = 201D;
},
{
glyphname = quoteleft;
layers = (
{
hints = (
{
horizontal = 1;
place = "{566, 68}";
type = Stem;
},
{
place = "{149, 20}";
type = Stem;
}
);
layerId = "F5467FAD-1970-4982-B3D3-939C01050498";
paths = (
{
closed = 1;
nodes = (
"109 734 LINE",
"148 700 OFFCURVE",
"149 667 OFFCURVE",
"149 643 CURVE SMOOTH",
"149 634 LINE",
"101 634 LINE",
"101 566 LINE",
"169 566 LINE",
"169 643 LINE SMOOTH",
"169 680 OFFCURVE",
"155 728 OFFCURVE",
"109 765 CURVE"
);
}
);
width = 310;
}
);
leftKerningGroup = quoteleft;
note = quoteleft;
rightKerningGroup = quoteleft;
unicode = 2018;
},
{
glyphname = quoteright;
layers = (
{
hints = (
{
horizontal = 1;
place = "{661, 68}";
type = Stem;
},
{
place = "{149, 20}";
type = Stem;
}
);
layerId = "F5467FAD-1970-4982-B3D3-939C01050498";
paths = (
{
closed = 1;
nodes = (
"169 729 LINE",
"101 729 LINE",
"101 661 LINE",
"149 661 LINE",
"149 652 LINE SMOOTH",
"149 628 OFFCURVE",
"148 595 OFFCURVE",
"109 561 CURVE",
"109 530 LINE",
"155 567 OFFCURVE",
"169 615 OFFCURVE",
"169 652 CURVE SMOOTH"
);
}
);
width = 310;
}
);
note = quoteright;
unicode = 2019;
},
{
glyphname = quotesinglbase;
layers = (
{
hints = (
{
horizontal = 1;
place = "{0, 68}";
type = Stem;
},
{
place = "{149, 20}";
type = Stem;
}
);
layerId = "F5467FAD-1970-4982-B3D3-939C01050498";
paths = (
{
closed = 1;
nodes = (
"169 68 LINE",
"101 68 LINE",
"101 0 LINE",
"149 0 LINE",
"149 -9 LINE SMOOTH",
"149 -33 OFFCURVE",
"148 -66 OFFCURVE",
"109 -100 CURVE",
"109 -131 LINE",
"155 -94 OFFCURVE",
"169 -46 OFFCURVE",
"169 -9 CURVE SMOOTH"
);
}
);
width = 269;
}
);
note = quotesinglbase;
rightKerningGroup = quotesinglbase;
unicode = 201A;
},
{
glyphname = cent;
layers = (
{
hints = (
{
horizontal = 1;
place = "{83.06, 14.04}";
type = Stem;
},
{
horizontal = 1;
place = "{592, 18}";
type = Stem;
},
{
place = "{30, 53}";
type = Stem;
},
{
place = "{267, 40}";
type = Stem;
}
);
layerId = "F5467FAD-1970-4982-B3D3-939C01050498";
paths = (
{
closed = 1;
nodes = (
"489 225 LINE",
"459.67 166.35 OFFCURVE",
"407.41 100.05 OFFCURVE",
"307 97.1 CURVE",
"307 592 LINE",
"308 592 LINE SMOOTH",
"401.7 592 OFFCURVE",
"448 547 OFFCURVE",
"486 484 CURVE",
"524 505 LINE",
"487 568 OFFCURVE",
"414 610 OFFCURVE",
"308 610 CURVE",
"307 699 LINE",
"267 699 LINE",
"267 607.91 LINE",
"126.78 593.27 OFFCURVE",
"30 501.76 OFFCURVE",
"30 341 CURVE SMOOTH",
"30 182.21 OFFCURVE",
"136.54 96.71 OFFCURVE",
"267 84.52 CURVE",
"267 4 LINE",
"307 4 LINE",
"307 83.06 LINE",
"416.18 84.89 OFFCURVE",
"490.81 129.68 OFFCURVE",
"529 209 CURVE"
);
},
{
closed = 1;
nodes = (
"83 474.04 OFFCURVE",
"150.87 570.71 OFFCURVE",
"267 588.9 CURVE",
"267 99.62 LINE",
"167.54 115.51 OFFCURVE",
"83 203.05 OFFCURVE",
"83 341 CURVE SMOOTH"
);
}
);
width = 549;
}
);
note = cent;
unicode = 00A2;
},
{
glyphname = currency;
layers = (
{
hints = (
{
horizontal = 1;
place = "{133.58, 26.68}";
type = Stem;
},
{
horizontal = 1;
place = "{532.73, 26.7}";
type = Stem;
},
{
place = "{92.39, 43.44}";
type = Stem;
},
{
place = "{490.8, 43.43}";
type = Stem;
}
);
layerId = "F5467FAD-1970-4982-B3D3-939C01050498";
paths = (
{
closed = 1;
nodes = (
"505.24 121.95 LINE",
"544.14 161.93 LINE",
"488.76 217.03 LINE",
"517.39 253.11 OFFCURVE",
"534.23 298.15 OFFCURVE",
"534.23 346.5 CURVE SMOOTH",
"534.23 397.48 OFFCURVE",
"515.51 444.77 OFFCURVE",
"483.99 481.78 CURVE",
"544.06 538.27 LINE",
"505.26 578.3 LINE",
"442.56 519.34 LINE",
"406.46 544.5 OFFCURVE",
"361.97 559.43 OFFCURVE",
"313.31 559.43 CURVE SMOOTH",
"262.76 559.43 OFFCURVE",
"216.71 543.32 OFFCURVE",
"179.89 516.37 CURVE",
"116.31 578.24 LINE",
"77.41 538.26 LINE",
"139.41 477.92 LINE",
"109.84 441.51 OFFCURVE",
"92.39 395.73 OFFCURVE",
"92.39 346.51 CURVE SMOOTH",
"92.39 300.8 OFFCURVE",
"107.46 256.43 OFFCURVE",
"134.57 220.13 CURVE",
"77.53 161.9 LINE",
"116.27 121.83 LINE",
"173.48 180.24 LINE",
"210.16 151.43 OFFCURVE",
"257.8 133.58 OFFCURVE",
"313.31 133.58 CURVE SMOOTH",
"364.79 133.58 OFFCURVE",
"411.61 150.29 OFFCURVE",
"448.76 178.14 CURVE"
);
},
{
closed = 1;
nodes = (
"208.22 160.27 OFFCURVE",
"135.83 243.96 OFFCURVE",
"135.83 346.5 CURVE SMOOTH",
"135.83 451.54 OFFCURVE",
"217.01 532.73 OFFCURVE",
"313.31 532.73 CURVE SMOOTH",
"409.61 532.73 OFFCURVE",
"490.8 451.54 OFFCURVE",
"490.8 346.5 CURVE SMOOTH",
"490.8 241.45 OFFCURVE",
"409.61 160.26 OFFCURVE",
"313.31 160.26 CURVE SMOOTH"
);
}
);
width = 600;
}
);
note = currency;
unicode = 00A4;
},
{
glyphname = dollar;
layers = (
{
hints = (
{
horizontal = 1;
place = "{-7.01, 27.01}";
type = Stem;
},
{
horizontal = 1;
place = "{683, 25}";
type = Stem;
},
{
place = "{87, 44}";
type = Stem;
},
{
place = "{236.48, 31.32}";
type = Stem;
},
{
place = "{335.76, 34.75}";
type = Stem;
},
{
place = "{503.02, 45.98}";
type = Stem;
}
);
layerId = "F5467FAD-1970-4982-B3D3-939C01050498";
paths = (
{
closed = 1;
nodes = (
"549 292.78 OFFCURVE",
"456.66 332.77 OFFCURVE",
"370.51 360.69 CURVE",
"370.51 672.59 LINE",
"412.94 658.83 OFFCURVE",
"443.65 631.7 OFFCURVE",
"456.99 593 CURVE",
"498.99 604 LINE",
"478.5 654.5 OFFCURVE",
"431.23 686.78 OFFCURVE",
"370.51 700.47 CURVE",
"370.51 804 LINE",
"335.76 804 LINE",
"335.76 706.12 LINE",
"323.84 707.37 OFFCURVE",
"311.56 708 OFFCURVE",
"299 708 CURVE SMOOTH",
"288.16 708 OFFCURVE",
"277.76 707.59 OFFCURVE",
"267.79 706.79 CURVE",
"267.79 803.99 LINE",
"236.48 803.99 LINE",
"236.48 702.82 LINE",
"135.23 684.77 OFFCURVE",
"87 621.48 OFFCURVE",
"87 543.99 CURVE SMOOTH",
"87 464.63 OFFCURVE",
"135.79 418.04 OFFCURVE",
"236.48 378.11 CURVE",
"236.48 26.07 LINE",
"145.07 43.87 OFFCURVE",
"94.34 99.24 OFFCURVE",
"69 171.99 CURVE",
"30 151.99 LINE",
"66 72.45 OFFCURVE",
"129.35 14.64 OFFCURVE",
"236.48 -2.07 CURVE",
"236.48 -101.01 LINE",
"267.79 -101.01 LINE",
"267.79 -5.67 LINE",
"279.4 -6.55 OFFCURVE",
"291.46 -7.01 OFFCURVE",
"304 -7.01 CURVE SMOOTH",
"314.99 -7.01 OFFCURVE",
"325.58 -6.64 OFFCURVE",
"335.76 -5.92 CURVE",
"335.76 -101.01 LINE",
"370.51 -101.01 LINE",
"370.51 -1.91 LINE",
"495.02 18.53 OFFCURVE",
"549 97.98 OFFCURVE",
"549 189.99 CURVE SMOOTH"
);
},
{
closed = 1;
nodes = (
"311.81 682.99 OFFCURVE",
"324.09 682.15 OFFCURVE",
"335.76 680.5 CURVE",
"335.76 371.59 LINE",
"324.38 375.11 OFFCURVE",
"313.38 378.54 OFFCURVE",
"303 382 CURVE SMOOTH",
"290.4 386.2 OFFCURVE",
"278.68 390.35 OFFCURVE",
"267.8 394.49 CURVE",
"267.8 681.44 LINE",
"277.63 682.47 OFFCURVE",
"288.03 683 OFFCURVE",
"299.01 683 CURVE SMOOTH"
);
},
{
closed = 1;
nodes = (
"131.01 607.16 OFFCURVE",
"163.61 658.18 OFFCURVE",
"236.49 676.1 CURVE",
"236.49 407.33 LINE",
"149.9 445.95 OFFCURVE",
"131.01 484.85 OFFCURVE",
"131.01 544 CURVE SMOOTH"
);
},
{
closed = 1;
nodes = (
"291.37 20 OFFCURVE",
"279.3 20.56 OFFCURVE",
"267.8 21.63 CURVE",
"267.8 366.49 LINE",
"275.92 363.64 OFFCURVE",
"284.33 360.82 OFFCURVE",
"293.01 358.01 CURVE SMOOTH",
"307.22 353.37 OFFCURVE",
"321.58 348.87 OFFCURVE",
"335.77 344.25 CURVE",
"335.77 21.45 LINE",
"325.67 20.5 OFFCURVE",
"315.09 20.01 OFFCURVE",
"304.02 20.01 CURVE SMOOTH"
);
},
{
closed = 1;
nodes = (
"370.53 332.41 LINE",
"442.87 306.15 OFFCURVE",
"503.02 270.98 OFFCURVE",
"503.02 190.01 CURVE SMOOTH",
"503.02 112.04 OFFCURVE",
"461.25 47.54 OFFCURVE",
"370.53 26.92 CURVE"
);
}
);
width = 572;
}
);
note = dollar;
unicode = 0024;
},
{
glyphname = Euro;
layers = (
{
hints = (
{
horizontal = 1;
place = "{-5, 31}";
type = Stem;
},
{
horizontal = 1;
place = "{259, 33}";
type = Stem;
},
{
horizontal = 1;
place = "{405, 33}";
type = Stem;
},
{
horizontal = 1;
place = "{674, 31}";
type = Stem;
},
{
place = "{117, 54}";
type = Stem;
}
);
layerId = "F5467FAD-1970-4982-B3D3-939C01050498";
paths = (
{
closed = 1;
nodes = (
"322.27 26 OFFCURVE",
"213.74 121.25 OFFCURVE",
"181.13 259 CURVE",
"542 259 LINE",
"542 292 LINE",
"174.9 292 LINE",
"172.33 310.09 OFFCURVE",
"171 328.79 OFFCURVE",
"171 348 CURVE SMOOTH",
"171 367.53 OFFCURVE",
"172.37 386.57 OFFCURVE",
"175.02 405 CURVE",
"542 405 LINE",
"542 438 LINE",
"181.28 438 LINE",
"214.2 576.84 OFFCURVE",
"323.22 674 OFFCURVE",
"466 674 CURVE SMOOTH",
"553 674 OFFCURVE",
"639 634 OFFCURVE",
"693 567 CURVE",
"734 588 LINE",
"673 662 OFFCURVE",
"581 705 OFFCURVE",
"466 705 CURVE SMOOTH",
"288.16 705 OFFCURVE",
"162.18 592.05 OFFCURVE",
"126.97 438 CURVE",
"43 438 LINE",
"43 405 LINE",
"120.92 405 LINE",
"118.33 386.45 OFFCURVE",
"117 367.41 OFFCURVE",
"117 348 CURVE SMOOTH",
"117 328.93 OFFCURVE",
"118.32 310.22 OFFCURVE",
"120.89 292 CURVE",
"43 292 LINE",
"43 259 LINE",
"127.02 259 LINE",
"162.41 106.56 OFFCURVE",
"288.98 -5 OFFCURVE",
"466 -5 CURVE SMOOTH",
"580 -5 OFFCURVE",
"670 36 OFFCURVE",
"731 107 CURVE",
"689 127 LINE",
"635 64 OFFCURVE",
"551 26 OFFCURVE",
"466 26 CURVE SMOOTH"
);
}
);
width = 781;
}
);
note = Euro;
unicode = 20AC;
},
{
glyphname = florin;
layers = (
{
hints = (
{
horizontal = 1;
place = "{362, 33}";
type = Stem;
},
{
horizontal = 1;
place = "{713, 20}";
type = Stem;
},
{
place = "{9, 529}";
type = Stem;
}
);
layerId = "F5467FAD-1970-4982-B3D3-939C01050498";
paths = (
{
closed = 1;
nodes = (
"240 733 OFFCURVE",
"214 608 OFFCURVE",
"196 543 CURVE SMOOTH",
"157.18 395 LINE",
"35 395 LINE",
"35 362 LINE",
"148.53 362 LINE",
"9 -170 LINE",
"49 -170 LINE",
"188.35 362 LINE",
"368 362 LINE",
"368 395 LINE",
"196.99 395 LINE",
"241 563 LINE SMOOTH",
"256 620 OFFCURVE",
"292 713 OFFCURVE",
"395 713 CURVE SMOOTH",
"444 713 OFFCURVE",
"484 687 OFFCURVE",
"508 659 CURVE",
"538 680 LINE",
"510 708 OFFCURVE",
"468 733 OFFCURVE",
"395 733 CURVE SMOOTH"
);
}
);
width = 583;
}
);
note = florin;
unicode = 0192;
},
{
glyphname = sterling;
layers = (
{
hints = (
{
horizontal = 1;
place = "{-1, 42}";
type = Stem;
},
{
horizontal = 1;
place = "{354, 34}";
type = Stem;
},
{
horizontal = 1;
place = "{704, 20}";
type = Stem;
},
{
place = "{86, 37.79}";
type = Stem;
},
{
place = "{193, 42}";
type = Stem;
}
);
layerId = "F5467FAD-1970-4982-B3D3-939C01050498";
paths = (
{
closed = 1;
nodes = (
"86 -1 LINE",
"538 -1 LINE",
"538 41 LINE",
"123.79 41 LINE",
"203.71 71.79 OFFCURVE",
"235 153.24 OFFCURVE",
"235 224 CURVE SMOOTH",
"235 354 LINE",
"359 354 LINE",
"359 388 LINE",
"235 388 LINE",
"235 544 LINE SMOOTH",
"235 608 OFFCURVE",
"260 704 OFFCURVE",
"369 704 CURVE SMOOTH",
"418 704 OFFCURVE",
"457 678 OFFCURVE",
"482 650 CURVE",
"512 671 LINE",
"484 699 OFFCURVE",
"442 724 OFFCURVE",
"369 724 CURVE SMOOTH",
"217 724 OFFCURVE",
"193 606 OFFCURVE",
"193 544 CURVE SMOOTH",
"193 388 LINE",
"103 388 LINE",
"103 354 LINE",
"193 354 LINE",
"193 224 LINE SMOOTH",
"193 127 OFFCURVE",
"157 58 OFFCURVE",
"86 41 CURVE"
);
}
);
width = 581;
}
);
note = sterling;
unicode = 00A3;
},
{
glyphname = yen;
layers = (
{
hints = (
{
horizontal = 1;
place = "{148.38, 24.79}";
type = Stem;
},
{
horizontal = 1;
place = "{306.85, 24.78}";
type = Stem;
},
{
place = "{265, 42}";
type = Stem;
}
);
layerId = "F5467FAD-1970-4982-B3D3-939C01050498";
paths = (
{
closed = 1;
nodes = (
"472.85 331.63 LINE",
"321.37 331.63 LINE",
"563 700 LINE",
"517 700 LINE",
"290.48 337.42 LINE",
"281.39 337.42 LINE",
"56 700 LINE",
"10 700 LINE",
"250.74 331.63 LINE",
"96.6 331.63 LINE",
"96.6 306.85 LINE",
"265 306.85 LINE",
"265 173.17 LINE",
"96.6 173.17 LINE",
"96.6 148.38 LINE",
"265 148.38 LINE",
"265 -0.01 LINE",
"307 -0.01 LINE",
"307 148.38 LINE",
"472.85 148.38 LINE",
"472.85 173.17 LINE",
"307 173.17 LINE",
"307 306.85 LINE",
"472.85 306.85 LINE"
);
}
);
width = 573;
}
);
note = yen;
unicode = 00A5;
},
{
glyphname = approxequal;
layers = (
{
hints = (
{
horizontal = 1;
place = "{103.99, 19}";
type = Stem;
},
{
horizontal = 1;
place = "{231.99, 19}";
type = Stem;
},
{
horizontal = 1;
place = "{327, 19}";
type = Stem;
},
{
horizontal = 1;
place = "{455, 19}";
type = Stem;
},
{
place = "{53.53, 40.99}";
type = Stem;
},
{
place = "{506.13, 42.03}";
type = Stem;
}
);
layerId = "F5467FAD-1970-4982-B3D3-939C01050498";
paths = (
{
closed = 1;
nodes = (
"501 455 LINE",
"504.41 445.98 OFFCURVE",
"506.13 436.19 OFFCURVE",
"506.13 426.31 CURVE SMOOTH",
"506.13 386.91 OFFCURVE",
"478.77 346 OFFCURVE",
"422 346 CURVE SMOOTH",
"369 346 OFFCURVE",
"307 406 OFFCURVE",
"274 430 CURVE SMOOTH",
"235 457 OFFCURVE",
"208 474 OFFCURVE",
"163 474 CURVE SMOOTH",
"87.6 474 OFFCURVE",
"53.53 419.09 OFFCURVE",
"53.53 375.17 CURVE SMOOTH",
"53.53 363.18 OFFCURVE",
"56.07 352 OFFCURVE",
"61 342.99 CURVE",
"102 342.99 LINE",
"97.08 354.08 OFFCURVE",
"94.52 366.5 OFFCURVE",
"94.52 378.92 CURVE SMOOTH",
"94.52 416.94 OFFCURVE",
"118.49 455 OFFCURVE",
"172.01 455 CURVE SMOOTH",
"225.01 455 OFFCURVE",
"283.01 398 OFFCURVE",
"321.01 372 CURVE SMOOTH",
"357.01 346 OFFCURVE",
"390.01 327 OFFCURVE",
"431.01 327 CURVE SMOOTH",
"509.11 327 OFFCURVE",
"548.16 383.92 OFFCURVE",
"548.16 427.76 CURVE SMOOTH",
"548.16 437.8 OFFCURVE",
"546.11 447.16 OFFCURVE",
"542 454.99 CURVE"
);
},
{
closed = 1;
nodes = (
"501 231.99 LINE",
"504.41 222.97 OFFCURVE",
"506.13 213.19 OFFCURVE",
"506.13 203.31 CURVE SMOOTH",
"506.13 163.9 OFFCURVE",
"478.77 122.99 OFFCURVE",
"422.01 122.99 CURVE SMOOTH",
"369.01 122.99 OFFCURVE",
"307.01 182.99 OFFCURVE",
"274.01 206.99 CURVE SMOOTH",
"235.01 233.99 OFFCURVE",
"208.01 250.99 OFFCURVE",
"163.01 250.99 CURVE SMOOTH",
"87.6 250.99 OFFCURVE",
"53.53 196.08 OFFCURVE",
"53.53 152.17 CURVE SMOOTH",
"53.53 140.17 OFFCURVE",
"56.07 129 OFFCURVE",
"61.01 119.99 CURVE",
"102.01 119.99 LINE",
"97.08 131.07 OFFCURVE",
"94.52 143.49 OFFCURVE",
"94.52 155.92 CURVE SMOOTH",
"94.52 193.93 OFFCURVE",
"118.5 231.99 OFFCURVE",
"172.01 231.99 CURVE SMOOTH",
"225.01 231.99 OFFCURVE",
"283.01 174.99 OFFCURVE",
"321.01 148.99 CURVE SMOOTH",
"357.01 122.99 OFFCURVE",
"390.01 103.99 OFFCURVE",
"431.01 103.99 CURVE SMOOTH",
"509.11 103.99 OFFCURVE",
"548.16 160.91 OFFCURVE",
"548.16 204.75 CURVE SMOOTH",
"548.16 214.8 OFFCURVE",
"546.11 224.16 OFFCURVE",
"542.01 231.99 CURVE"
);
}
);
width = 600;
}
);
note = approxequal;
unicode = 2248;
},
{
glyphname = asciitilde;
layers = (
{
hints = (
{
horizontal = 1;
place = "{237, 19}";
type = Stem;
},
{
horizontal = 1;
place = "{365, 19}";
type = Stem;
},
{
place = "{53.53, 40.99}";
type = Stem;
},
{
place = "{506.13, 42.03}";
type = Stem;
}
);
layerId = "F5467FAD-1970-4982-B3D3-939C01050498";
paths = (
{
closed = 1;
nodes = (
"501 365 LINE",
"504.41 355.98 OFFCURVE",
"506.13 346.19 OFFCURVE",
"506.13 336.31 CURVE SMOOTH",
"506.13 296.91 OFFCURVE",
"478.77 256 OFFCURVE",
"422 256 CURVE SMOOTH",
"369 256 OFFCURVE",
"307 316 OFFCURVE",
"274 340 CURVE SMOOTH",
"235 367 OFFCURVE",
"208 384 OFFCURVE",
"163 384 CURVE SMOOTH",
"87.6 384 OFFCURVE",
"53.53 329.09 OFFCURVE",
"53.53 285.17 CURVE SMOOTH",
"53.53 273.18 OFFCURVE",
"56.07 262 OFFCURVE",
"61 252.99 CURVE",
"102 252.99 LINE",
"97.08 264.08 OFFCURVE",
"94.52 276.5 OFFCURVE",
"94.52 288.92 CURVE SMOOTH",
"94.52 326.94 OFFCURVE",
"118.49 365 OFFCURVE",
"172.01 365 CURVE SMOOTH",
"225.01 365 OFFCURVE",
"283.01 308 OFFCURVE",
"321.01 282 CURVE SMOOTH",
"357.01 256 OFFCURVE",
"390.01 237 OFFCURVE",
"431.01 237 CURVE SMOOTH",
"509.11 237 OFFCURVE",
"548.16 293.92 OFFCURVE",
"548.16 337.76 CURVE SMOOTH",
"548.16 347.8 OFFCURVE",
"546.11 357.16 OFFCURVE",
"542 364.99 CURVE"
);
}
);
width = 600;
}
);
note = asciitilde;
unicode = 007E;
},
{
glyphname = divide;
layers = (
{
hints = (
{
horizontal = 1;
place = "{-1, 68.54}";
type = Stem;
},
{
horizontal = 1;
place = "{213, 33}";
type = Stem;
},
{
horizontal = 1;
place = "{398, 68}";
type = Stem;
},
{
place = "{264, 68}";
type = Stem;
}
);
layerId = "F5467FAD-1970-4982-B3D3-939C01050498";
paths = (
{
closed = 1;
nodes = (
"332 466 LINE",
"264 466 LINE",
"264 398 LINE",
"332 398 LINE"
);
},
{
closed = 1;
nodes = (
"531 246 LINE",
"64 246 LINE",
"64 213 LINE",
"531 213 LINE"
);
},
{
closed = 1;
nodes = (
"332.35 67.54 LINE",
"263.8 67.54 LINE",
"263.8 -1 LINE",
"332.35 -1 LINE"
);
}
);
width = 600;
}
);
note = divide;
unicode = 00F7;
},
{
glyphname = equal;
layers = (
{
hints = (
{
horizontal = 1;
place = "{143, 33}";
type = Stem;
},
{
horizontal = 1;
place = "{354, 33}";
type = Stem;
},
{
place = "{48, 501}";
type = Stem;
}
);
layerId = "F5467FAD-1970-4982-B3D3-939C01050498";
paths = (
{
closed = 1;
nodes = (
"48 354 LINE",
"549 354 LINE",
"549 387 LINE",
"48 387 LINE"
);
},
{
closed = 1;
nodes = (
"48 143 LINE",
"549 143 LINE",
"549 176 LINE",
"48 176 LINE"
);
}
);
width = 600;
}
);
note = equal;
unicode = 003D;
},
{
glyphname = greater;
layers = (
{
hints = (
{
horizontal = 1;
place = "{28, 518}";
type = Stem;
},
{
place = "{60, 501}";
type = Stem;
}
);
layerId = "F5467FAD-1970-4982-B3D3-939C01050498";
paths = (
{
closed = 1;
nodes = (
"556.15 288 LINE",
"60 546 LINE",
"60 498 LINE",
"478.02 287 LINE",
"60 76 LINE",
"60 28 LINE",
"557.14 286 LINE",
"560 286 LINE",
"558.57 286.74 LINE",
"561 288 LINE"
);
}
);
width = 600;
}
);
note = greater;
unicode = 003E;
},
{
glyphname = greaterequal;
layers = (
{
hints = (
{
horizontal = 1;
place = "{0, 33}";
type = Stem;
},
{
place = "{37, 512}";
type = Stem;
}
);
layerId = "F5467FAD-1970-4982-B3D3-939C01050498";
paths = (
{
closed = 1;
nodes = (
"535.15 413 LINE",
"39 671 LINE",
"39 623 LINE",
"457.02 412 LINE",
"39 201 LINE",
"39 153 LINE",
"536.14 411 LINE",
"539 411 LINE",
"537.57 411.74 LINE",
"540 413 LINE"
);
},
{
closed = 1;
nodes = (
"37 33 LINE",
"37 0 LINE",
"549 0 LINE",
"549 33 LINE"
);
}
);
width = 600;
}
);
note = greaterequal;
unicode = 2265;
},
{
glyphname = infinity;
layers = (
{
hints = (
{
horizontal = 1;
place = "{158, 43}";
type = Stem;
},
{
horizontal = 1;
place = "{489.99, 43}";
type = Stem;
},
{
place = "{25, 20}";
type = Stem;
},
{
place = "{813, 20}";
type = Stem;
}
);
layerId = "F5467FAD-1970-4982-B3D3-939C01050498";
paths = (
{
closed = 1;
nodes = (
"582.44 533 OFFCURVE",
"512.51 461.11 OFFCURVE",
"434.98 376.52 CURVE",
"354.63 461.26 OFFCURVE",
"277.53 533 OFFCURVE",
"185 533 CURVE SMOOTH",
"81 533 OFFCURVE",
"25 436 OFFCURVE",
"25 345 CURVE SMOOTH",
"25 254 OFFCURVE",
"80 158 OFFCURVE",
"184 158 CURVE SMOOTH",
"269.4 158 OFFCURVE",
"361.91 240.28 OFFCURVE",
"431.91 312.39 CURVE",
"495.68 242.32 OFFCURVE",
"587.06 158 OFFCURVE",
"672 158 CURVE SMOOTH",
"776 158 OFFCURVE",
"833 255 OFFCURVE",
"833 346 CURVE SMOOTH",
"833 437 OFFCURVE",
"777 533 OFFCURVE",
"673 533 CURVE SMOOTH"
);
},
{
closed = 1;
nodes = (
"347 283 OFFCURVE",
"275 201 OFFCURVE",
"185 201 CURVE SMOOTH",
"101 201 OFFCURVE",
"45 267 OFFCURVE",
"45 346 CURVE SMOOTH",
"45 425 OFFCURVE",
"102 490 OFFCURVE",
"184 490 CURVE SMOOTH",
"272 490 OFFCURVE",
"335 428 OFFCURVE",
"382 370 CURVE SMOOTH",
"388.68 362.03 OFFCURVE",
"396.24 353.03 OFFCURVE",
"404.58 343.33 CURVE",
"396.83 334.92 OFFCURVE",
"388.98 326.45 OFFCURVE",
"381 318 CURVE SMOOTH"
);
},
{
closed = 1;
nodes = (
"594 201 OFFCURVE",
"530 276 OFFCURVE",
"489 319 CURVE SMOOTH",
"480.51 327.99 OFFCURVE",
"472.09 336.99 OFFCURVE",
"463.74 345.92 CURVE",
"472.38 355.18 OFFCURVE",
"480.49 363.95 OFFCURVE",
"488 371.99 CURVE SMOOTH",
"543 431.99 OFFCURVE",
"595 489.99 OFFCURVE",
"672 489.99 CURVE SMOOTH",
"772 489.99 OFFCURVE",
"813 407.99 OFFCURVE",
"813 344.99 CURVE SMOOTH",
"813 281.99 OFFCURVE",
"774 200.99 OFFCURVE",
"673 200.99 CURVE SMOOTH"
);
}
);
width = 858;
}
);
note = infinity;
unicode = 221E;
},
{
glyphname = integral;
layers = (
{
hints = (
{
horizontal = 1;
place = "{-215.71, 23.22}";
type = Stem;
},
{
horizontal = 1;
place = "{772, 22.77}";
type = Stem;
},
{
place = "{125, 39.98}";
type = Stem;
},
{
place = "{188.83, 51.47}";
type = Stem;
},
{
place = "{298.47, 62.32}";
type = Stem;
},
{
place = "{394.99, 39}";
type = Stem;
}
);
layerId = "F5467FAD-1970-4982-B3D3-939C01050498";
paths = (
{
closed = 1;
nodes = (
"125 -71 LINE",
"124.5 -77.54 OFFCURVE",
"124.24 -83.92 OFFCURVE",
"124.21 -90.13 CURVE SMOOTH",
"123.85 -165.97 OFFCURVE",
"157.97 -215.71 OFFCURVE",
"214.11 -215.71 CURVE SMOOTH",
"217.97 -215.71 OFFCURVE",
"221.93 -215.48 OFFCURVE",
"226 -215 CURVE SMOOTH",
"317.89 -203.59 OFFCURVE",
"360.79 -124.3 OFFCURVE",
"360.79 4.54 CURVE SMOOTH",
"360.79 78.99 OFFCURVE",
"346.46 169.99 OFFCURVE",
"319 274 CURVE SMOOTH",
"284.16 406.75 OFFCURVE",
"240.3 554.65 OFFCURVE",
"240.3 654.64 CURVE SMOOTH",
"240.3 721.11 OFFCURVE",
"259.68 766.41 OFFCURVE",
"313.99 772 CURVE SMOOTH",
"359.99 777 OFFCURVE",
"385.99 732 OFFCURVE",
"394.99 646 CURVE",
"433.99 646 LINE",
"423.7 740.53 OFFCURVE",
"388 794.77 OFFCURVE",
"326.07 794.77 CURVE SMOOTH",
"321.84 794.77 OFFCURVE",
"317.48 794.51 OFFCURVE",
"312.99 794 CURVE SMOOTH",
"219.21 784.18 OFFCURVE",
"188.83 713.13 OFFCURVE",
"188.83 617.19 CURVE SMOOTH",
"188.83 517.72 OFFCURVE",
"221.48 391.49 OFFCURVE",
"249.99 279 CURVE SMOOTH",
"283.42 147.92 OFFCURVE",
"298.47 42.95 OFFCURVE",
"298.47 -34.36 CURVE SMOOTH",
"298.47 -138.52 OFFCURVE",
"271.15 -192.49 OFFCURVE",
"224.67 -192.49 CURVE SMOOTH",
"183.25 -192.49 OFFCURVE",
"160.26 -143.82 OFFCURVE",
"164.98 -71 CURVE"
);
}
);
width = 600;
}
);
note = integral;
unicode = 222B;
},
{
glyphname = less;
layers = (
{
hints = (
{
horizontal = 1;
place = "{28, 518}";
type = Stem;
},
{
place = "{41, 501}";
type = Stem;
}
);
layerId = "F5467FAD-1970-4982-B3D3-939C01050498";
paths = (
{
closed = 1;
nodes = (
"542 76 LINE",
"123.98 287 LINE",
"542 498 LINE",
"542 546 LINE",
"45.84 288 LINE",
"41 288 LINE",
"43.42 286.74 LINE",
"42 286 LINE",
"44.85 286 LINE",
"542 28 LINE"
);
}
);
width = 600;
}
);
note = less;
unicode = 003C;
},
{
glyphname = lessequal;
layers = (
{
hints = (
{
horizontal = 1;
place = "{0, 33}";
type = Stem;
},
{
place = "{32, 512}";
type = Stem;
}
);
layerId = "F5467FAD-1970-4982-B3D3-939C01050498";
paths = (
{
closed = 1;
nodes = (
"542 201 LINE",
"123.98 412 LINE",
"542 623 LINE",
"542 671 LINE",
"45.84 413 LINE",
"41 413 LINE",
"43.42 411.74 LINE",
"42 411 LINE",
"44.85 411 LINE",
"542 153 LINE"
);
},
{
closed = 1;
nodes = (
"544 33 LINE",
"32 33 LINE",
"32 0 LINE",
"544 0 LINE"
);
}
);
width = 600;
}
);
note = lessequal;
unicode = 2264;
},
{
glyphname = logicalnot;
layers = (
{
hints = (
{
horizontal = 1;
place = "{305, 33}";
type = Stem;
},
{
place = "{592, 50}";
type = Stem;
}
);
layerId = "F5467FAD-1970-4982-B3D3-939C01050498";
paths = (
{
closed = 1;
nodes = (
"592 305 LINE",
"592 74 LINE",
"642 74 LINE",
"642 338 LINE",
"43 338 LINE",
"43 305 LINE"
);
}
);
width = 667;
}
);
note = logicalnot;
unicode = 00AC;
},
{
glyphname = minus;
layers = (
{
hints = (
{
horizontal = 1;
place = "{282, 34}";
type = Stem;
},
{
place = "{47, 726}";
type = Stem;
}
);
layerId = "F5467FAD-1970-4982-B3D3-939C01050498";
paths = (
{
closed = 1;
nodes = (
"47 282 LINE",
"773 282 LINE",
"773 316 LINE",
"47 316 LINE"
);
}
);
width = 820;
}
);
note = minus;
unicode = 2212;
},
{
glyphname = multiply;
layers = (
{
hints = (
{
horizontal = 1;
place = "{29, 511}";
type = Stem;
},
{
place = "{54, 511}";
type = Stem;
}
);
layerId = "F5467FAD-1970-4982-B3D3-939C01050498";
paths = (
{
closed = 1;
nodes = (
"541 29 LINE",
"565 52 LINE",
"333 283.52 LINE",
"565 516 LINE",
"542 540 LINE",
"309.47 307 LINE",
"77 539 LINE",
"54 515 LINE",
"286 283.47 LINE",
"55 52 LINE",
"79 29 LINE",
"309.52 260 LINE"
);
}
);
width = 600;
}
);
note = multiply;
unicode = 00D7;
},
{
glyphname = notequal;
layers = (
{
hints = (
{
horizontal = 1;
place = "{143, 33}";
type = Stem;
},
{
horizontal = 1;
place = "{354, 33}";
type = Stem;
},
{
place = "{48, 501}";
type = Stem;
}
);
layerId = "F5467FAD-1970-4982-B3D3-939C01050498";
paths = (
{
closed = 1;
nodes = (
"291.32 176 LINE",
"344.08 354 LINE",
"549 354 LINE",
"549 387 LINE",
"353.87 387 LINE",
"433 654 LINE",
"398 654 LINE",
"318.87 387 LINE",
"48 387 LINE",
"48 354 LINE",
"309.08 354 LINE",
"256.32 176 LINE",
"48 176 LINE",
"48 143 LINE",
"246.54 143 LINE",
"168 -122 LINE",
"203 -122 LINE",
"281.54 143 LINE",
"549 143 LINE",
"549 176 LINE"
);
}
);
width = 600;
}
);
note = notequal;
unicode = 2260;
},
{
glyphname = partialdiff;
layers = (
{
hints = (
{
horizontal = 1;
place = "{-9.19, 26.98}";
type = Stem;
},
{
horizontal = 1;
place = "{461.89, 30.57}";
type = Stem;
},
{
horizontal = 1;
place = "{729.67, 42.43}";
type = Stem;
},
{
place = "{27.6, 41.11}";
type = Stem;
},
{
place = "{482.31, 50.96}";
type = Stem;
}
);
layerId = "F5467FAD-1970-4982-B3D3-939C01050498";
paths = (
{
closed = 1;
nodes = (
"510.19 581.48 OFFCURVE",
"376.48 772.1 OFFCURVE",
"157.42 772.1 CURVE SMOOTH",
"144.25 772.1 OFFCURVE",
"130.77 771.41 OFFCURVE",
"116.99 769.99 CURVE SMOOTH",
"106.99 768.99 OFFCURVE",
"92.99 766.99 OFFCURVE",
"88.99 764.99 CURVE",
"100.99 726.99 LINE",
"118.71 728.79 OFFCURVE",
"135.79 729.67 OFFCURVE",
"152.24 729.67 CURVE SMOOTH",
"365.02 729.67 OFFCURVE",
"472.14 581.7 OFFCURVE",
"499.99 341.12 CURVE",
"467.38 459.55 OFFCURVE",
"375.11 492.46 OFFCURVE",
"285.76 492.46 CURVE SMOOTH",
"271 492.46 OFFCURVE",
"256.31 491.56 OFFCURVE",
"241.99 490 CURVE SMOOTH",
"105.47 476.07 OFFCURVE",
"27.6 347.43 OFFCURVE",
"27.6 225.03 CURVE SMOOTH",
"27.6 78.8 OFFCURVE",
"142.92 -9.19 OFFCURVE",
"260.42 -9.19 CURVE SMOOTH",
"268.29 -9.19 OFFCURVE",
"276.16 -8.8 OFFCURVE",
"283.99 -8 CURVE SMOOTH",
"428.96 6.74 OFFCURVE",
"533.27 123.65 OFFCURVE",
"533.27 320.96 CURVE SMOOTH",
"533.27 340.95 OFFCURVE",
"532.2 361.77 OFFCURVE",
"529.99 383.39 CURVE SMOOTH"
);
},
{
closed = 1;
nodes = (
"161.71 17.8 OFFCURVE",
"68.71 91.26 OFFCURVE",
"68.71 215.47 CURVE SMOOTH",
"68.71 328.16 OFFCURVE",
"146.95 461.89 OFFCURVE",
"277.34 461.89 CURVE SMOOTH",
"369.13 461.89 OFFCURVE",
"469.72 388.89 OFFCURVE",
"481 276.99 CURVE SMOOTH",
"481.88 268.38 OFFCURVE",
"482.31 259.81 OFFCURVE",
"482.31 251.31 CURVE SMOOTH",
"482.31 126.46 OFFCURVE",
"389.42 17.79 OFFCURVE",
"265.05 17.79 CURVE SMOOTH"
);
}
);
width = 573;
}
);
note = partialdiff;
unicode = 2202;
},
